<svg width="21" height="20" viewBox="0 0 21 20" fill="none" xmlns="http://www.w3.org/2000/svg">
<path d="M19.513 8.69904C19.5126 8.69858 19.5121 8.69812 19.5117 8.69766L11.3313 0.539551C10.9826 0.19165 10.5191 0 10.026 0C9.53284 0 9.06926 0.191498 8.72042 0.539398L0.544386 8.69339C0.541632 8.69614 0.538878 8.69904 0.536124 8.70178C-0.179905 9.42001 -0.178681 10.5853 0.539643 11.3017C0.867823 11.6292 1.30127 11.8188 1.76469 11.8387C1.78351 11.8405 1.80249 11.8414 1.82161 11.8414H2.14765V17.8453C2.14765 19.0334 3.11689 20 4.30843 20H7.50884C7.83319 20 8.09635 19.7377 8.09635 19.4141V14.707C8.09635 14.1649 8.53851 13.7239 9.08211 13.7239H10.9698C11.5134 13.7239 11.9556 14.1649 11.9556 14.707V19.4141C11.9556 19.7377 12.2186 20 12.5431 20H15.7435C16.935 20 17.9043 19.0334 17.9043 17.8453V11.8414H18.2066C18.6995 11.8414 19.1631 11.6499 19.5121 11.302C20.2312 10.5844 20.2315 9.41711 19.513 8.69904Z" fill="black"/>
</svg>
