<svg width="17" height="20" viewBox="0 0 17 20" fill="none" xmlns="http://www.w3.org/2000/svg">
<path d="M16.1235 14.7365H0.636919C0.343934 14.7365 0.0755636 14.5389 0.0146249 14.2523C-0.0456933 13.9685 0.0836308 13.6885 0.346002 13.5673C0.408265 13.5269 0.87691 13.1992 1.34609 12.2077C2.2078 10.387 2.38867 7.82225 2.38867 5.99128C2.38867 2.68764 5.07639 0 8.37998 0C11.6758 0 14.3585 2.67469 14.3713 5.96749C14.3715 5.97539 14.3717 5.98333 14.3717 5.99128C14.3717 7.82225 14.5526 10.387 15.4143 12.2077C15.8835 13.1992 16.3521 13.5269 16.4144 13.5673C16.6767 13.6885 16.8061 13.9685 16.7458 14.2523C16.6848 14.5389 16.4165 14.7365 16.1235 14.7365ZM16.4213 13.5716H16.4217H16.4213Z" fill="#040404"/>
<circle cx="8.3803" cy="17.8853" r="2.11468" fill="#040404"/>
</svg>
