<svg width="27" height="27" viewBox="0 0 27 27" fill="currentColor" xmlns="http://www.w3.org/2000/svg">
<path opacity="0.5" d="M0.640015 25.0296C0.640015 21.5306 2.03242 18.8514 4.26568 17.0365C6.51092 15.2118 9.64173 14.234 13.1399 14.234C16.6381 14.234 19.7691 15.2118 22.0143 17.0365C24.2476 18.8514 25.64 21.5306 25.64 25.0296C25.64 25.3752 25.367 25.64 25.049 25.64H1.23101C0.913057 25.64 0.640015 25.3752 0.640015 25.0296Z" stroke="#161616"/>
<path opacity="0.5" d="M8.22998 5.9107C8.22998 2.99641 10.5589 0.640015 13.4017 0.640015C16.2445 0.640015 18.5734 2.99642 18.5734 5.9107C18.5734 8.82498 16.2445 11.1813 13.4017 11.1813C10.5589 11.1813 8.22998 8.82499 8.22998 5.9107Z" stroke="#161616"/>
<path opacity="0.6" d="M14.202 23.0358H12.9447V19.5934L12.9569 19.0278L12.9773 18.4094C12.7684 18.6182 12.6233 18.7552 12.5419 18.8203L11.8583 19.3697L11.252 18.6128L13.1685 17.087H14.202V23.0358Z" fill="#161616"/>
</svg>
