<svg width="27" height="27" viewBox="0 0 27 27" fill="currentColor" xmlns="http://www.w3.org/2000/svg">
<path opacity="0.5" d="M0.640015 25.0296C0.640015 21.5306 2.03242 18.8514 4.26568 17.0365C6.51092 15.2118 9.64173 14.234 13.1399 14.234C16.6381 14.234 19.7691 15.2118 22.0143 17.0365C24.2476 18.8514 25.64 21.5306 25.64 25.0296C25.64 25.3752 25.367 25.64 25.049 25.64H1.23101C0.913057 25.64 0.640015 25.3752 0.640015 25.0296Z" stroke="#161616"/>
<path opacity="0.5" d="M8.22998 5.9107C8.22998 2.99641 10.5589 0.640015 13.4017 0.640015C16.2445 0.640015 18.5734 2.99642 18.5734 5.9107C18.5734 8.82498 16.2445 11.1813 13.4017 11.1813C10.5589 11.1813 8.22998 8.82499 8.22998 5.9107Z" stroke="#161616"/>
<path opacity="0.6" d="M15.5273 23H11.5352V22.1602L12.9688 20.7109C13.3932 20.276 13.6706 19.9753 13.8008 19.8086C13.931 19.6393 14.0247 19.4831 14.082 19.3398C14.1393 19.1966 14.168 19.0482 14.168 18.8945C14.168 18.6654 14.1042 18.4948 13.9766 18.3828C13.8516 18.2708 13.6836 18.2148 13.4727 18.2148C13.2513 18.2148 13.0365 18.2656 12.8281 18.3672C12.6198 18.4688 12.4023 18.6133 12.1758 18.8008L11.5195 18.0234C11.8008 17.7839 12.0339 17.6146 12.2188 17.5156C12.4036 17.4167 12.6055 17.3411 12.8242 17.2891C13.043 17.2344 13.2878 17.207 13.5586 17.207C13.9154 17.207 14.2305 17.2721 14.5039 17.4023C14.7773 17.5326 14.9896 17.7148 15.1406 17.9492C15.2917 18.1836 15.3672 18.4518 15.3672 18.7539C15.3672 19.0169 15.3203 19.2643 15.2266 19.4961C15.1354 19.7253 14.9922 19.9609 14.7969 20.2031C14.6042 20.4453 14.263 20.7904 13.7734 21.2383L13.0391 21.9297V21.9844H15.5273V23Z" fill="#161616"/>
</svg>
