<svg width="27" height="27" viewBox="0 0 27 27" fill="currentColor" xmlns="http://www.w3.org/2000/svg">
<path opacity="0.5" d="M0.640015 25.0296C0.640015 21.5306 2.03242 18.8514 4.26568 17.0365C6.51092 15.2118 9.64173 14.234 13.1399 14.234C16.6381 14.234 19.7691 15.2118 22.0143 17.0365C24.2476 18.8514 25.64 21.5306 25.64 25.0296C25.64 25.3752 25.367 25.64 25.049 25.64H1.23101C0.913057 25.64 0.640015 25.3752 0.640015 25.0296Z" stroke="#161616"/>
<path opacity="0.5" d="M8.22998 5.9107C8.22998 2.99641 10.5589 0.640015 13.4017 0.640015C16.2445 0.640015 18.5734 2.99642 18.5734 5.9107C18.5734 8.82498 16.2445 11.1813 13.4017 11.1813C10.5589 11.1813 8.22998 8.82499 8.22998 5.9107Z" stroke="#161616"/>
<path opacity="0.6" d="M15.3047 18.5664C15.3047 18.9232 15.1966 19.2266 14.9805 19.4766C14.7643 19.7266 14.4609 19.8984 14.0703 19.9922V20.0156C14.5312 20.0729 14.8802 20.2135 15.1172 20.4375C15.3542 20.6589 15.4727 20.9583 15.4727 21.3359C15.4727 21.8854 15.2734 22.3138 14.875 22.6211C14.4766 22.9258 13.9076 23.0781 13.168 23.0781C12.5482 23.0781 11.9987 22.9753 11.5195 22.7695V21.7422C11.7409 21.8542 11.9844 21.9453 12.25 22.0156C12.5156 22.0859 12.7786 22.1211 13.0391 22.1211C13.4375 22.1211 13.7318 22.0534 13.9219 21.918C14.112 21.7826 14.207 21.5651 14.207 21.2656C14.207 20.9974 14.0977 20.8073 13.8789 20.6953C13.6602 20.5833 13.3112 20.5273 12.832 20.5273H12.3984V19.6016H12.8398C13.2826 19.6016 13.6055 19.5443 13.8086 19.4297C14.0143 19.3125 14.1172 19.1133 14.1172 18.832C14.1172 18.3997 13.8464 18.1836 13.3047 18.1836C13.1172 18.1836 12.9258 18.2148 12.7305 18.2773C12.5378 18.3398 12.3229 18.4479 12.0859 18.6016L11.5273 17.7695C12.0482 17.3945 12.6693 17.207 13.3906 17.207C13.9818 17.207 14.4479 17.3268 14.7891 17.5664C15.1328 17.806 15.3047 18.1393 15.3047 18.5664Z" fill="#161616"/>
</svg>
