<svg width="27" height="27" viewBox="0 0 27 27" fill="currentColor" xmlns="http://www.w3.org/2000/svg">
<path opacity="0.5" d="M0.640015 25.0296C0.640015 21.5306 2.03242 18.8514 4.26568 17.0365C6.51092 15.2118 9.64173 14.234 13.1399 14.234C16.6381 14.234 19.7691 15.2118 22.0143 17.0365C24.2476 18.8514 25.64 21.5306 25.64 25.0296C25.64 25.3752 25.367 25.64 25.049 25.64H1.23101C0.913057 25.64 0.640015 25.3752 0.640015 25.0296Z" stroke="#161616"/>
<path opacity="0.5" d="M8.22998 5.9107C8.22998 2.99641 10.5589 0.640015 13.4017 0.640015C16.2445 0.640015 18.5734 2.99642 18.5734 5.9107C18.5734 8.82498 16.2445 11.1813 13.4017 11.1813C10.5589 11.1813 8.22998 8.82499 8.22998 5.9107Z" stroke="#161616"/>
<path opacity="0.6" d="M15.6562 21.8164H14.9688V23H13.7891V21.8164H11.3516V20.9766L13.8555 17.2891H14.9688V20.8789H15.6562V21.8164ZM13.7891 20.8789V19.9102C13.7891 19.7487 13.7956 19.5143 13.8086 19.207C13.8216 18.8997 13.832 18.7214 13.8398 18.6719H13.8086C13.7122 18.8854 13.5964 19.0938 13.4609 19.2969L12.4141 20.8789H13.7891Z" fill="#161616"/>
</svg>
