<svg width="27" height="27" viewBox="0 0 27 27" fill="currentColor" xmlns="http://www.w3.org/2000/svg">
<path opacity="0.5" d="M0.640015 25.0296C0.640015 21.5306 2.03242 18.8514 4.26568 17.0365C6.51092 15.2118 9.64173 14.234 13.1399 14.234C16.6381 14.234 19.7691 15.2118 22.0143 17.0365C24.2476 18.8514 25.64 21.5306 25.64 25.0296C25.64 25.3752 25.367 25.64 25.049 25.64H1.23101C0.913057 25.64 0.640015 25.3752 0.640015 25.0296Z" stroke="#161616"/>
<path opacity="0.5" d="M8.22998 5.9107C8.22998 2.99641 10.5589 0.640015 13.4017 0.640015C16.2445 0.640015 18.5734 2.99642 18.5734 5.9107C18.5734 8.82498 16.2445 11.1813 13.4017 11.1813C10.5589 11.1813 8.22998 8.82499 8.22998 5.9107Z" stroke="#161616"/>
<path opacity="0.6" d="M13.6133 19.3516C14.1654 19.3516 14.6042 19.5065 14.9297 19.8164C15.2578 20.1263 15.4219 20.5508 15.4219 21.0898C15.4219 21.7279 15.2253 22.2188 14.832 22.5625C14.4388 22.9062 13.8763 23.0781 13.1445 23.0781C12.5091 23.0781 11.9961 22.9753 11.6055 22.7695V21.7266C11.8112 21.8359 12.0508 21.9258 12.3242 21.9961C12.5977 22.0638 12.8568 22.0977 13.1016 22.0977C13.8385 22.0977 14.207 21.7956 14.207 21.1914C14.207 20.6159 13.8255 20.3281 13.0625 20.3281C12.9245 20.3281 12.7721 20.3424 12.6055 20.3711C12.4388 20.3971 12.3034 20.4258 12.1992 20.457L11.7188 20.1992L11.9336 17.2891H15.0312V18.3125H12.9922L12.8867 19.4336L13.0234 19.4062C13.1823 19.3698 13.3789 19.3516 13.6133 19.3516Z" fill="#161616"/>
</svg>
