<svg width="20" height="20" viewBox="0 0 20 20" fill="none" xmlns="http://www.w3.org/2000/svg">
<g opacity="0.6">
<rect width="20" height="20" fill="white"/>
<path d="M10 2C5.5888 2 2 5.58885 2 10C2 14.4112 5.5888 18 10 18C14.4112 18 18 14.4112 18 10C18 5.58885 14.4112 2 10 2ZM10 16.5455C6.39079 16.5455 3.45455 13.6092 3.45455 10C3.45455 6.39088 6.39079 3.45455 10 3.45455C13.6092 3.45455 16.5455 6.39088 16.5455 10C16.5455 13.6092 13.6092 16.5455 10 16.5455Z" fill="#161616"/>
<path d="M10 5.39355C9.46543 5.39355 9.03052 5.82875 9.03052 6.36369C9.03052 6.89814 9.46543 7.33295 10 7.33295C10.5346 7.33295 10.9695 6.89814 10.9695 6.36369C10.9695 5.82875 10.5346 5.39355 10 5.39355Z" fill="#161616"/>
<path d="M9.99998 8.78809C9.59833 8.78809 9.27271 9.11371 9.27271 9.51536V13.879C9.27271 14.2806 9.59833 14.6063 9.99998 14.6063C10.4016 14.6063 10.7272 14.2806 10.7272 13.879V9.51536C10.7272 9.11371 10.4016 8.78809 9.99998 8.78809Z" fill="#161616"/>
</g>
</svg>
