<svg width="20" height="20" viewBox="0 0 20 20" fill="none" xmlns="http://www.w3.org/2000/svg">
<path opacity="0.6" d="M15 6.66699C15 5.34091 14.4732 4.06914 13.5355 3.13146C12.5979 2.19378 11.3261 1.66699 10 1.66699C8.67392 1.66699 7.40215 2.19378 6.46447 3.13146C5.52678 4.06914 5 5.34091 5 6.66699C5 12.5003 2.5 14.167 2.5 14.167H17.5C17.5 14.167 15 12.5003 15 6.66699Z" stroke="#010101" stroke-linecap="round" stroke-linejoin="round"/>
<path opacity="0.6" d="M11.4417 17.5C11.2952 17.7526 11.0849 17.9622 10.8319 18.1079C10.5789 18.2537 10.292 18.3304 10 18.3304C9.70803 18.3304 9.42117 18.2537 9.16816 18.1079C8.91515 17.9622 8.70486 17.7526 8.55835 17.5" stroke="#010101" stroke-linecap="round" stroke-linejoin="round"/>
<circle cx="14.5" cy="5.5" r="5" fill="#EF3340" stroke="white"/>
<path d="M13.6523 7H13.0488V5.34766L13.0547 5.07617L13.0645 4.7793C12.9642 4.87956 12.8945 4.94531 12.8555 4.97656L12.5273 5.24023L12.2363 4.87695L13.1562 4.14453H13.6523V7ZM16.3614 7H14.3653V6.58008L15.0821 5.85547C15.2943 5.63802 15.433 5.48763 15.4981 5.4043C15.5632 5.31966 15.6101 5.24154 15.6388 5.16992C15.6674 5.09831 15.6817 5.02409 15.6817 4.94727C15.6817 4.83268 15.6498 4.7474 15.586 4.69141C15.5235 4.63542 15.4395 4.60742 15.3341 4.60742C15.2234 4.60742 15.116 4.63281 15.0118 4.68359C14.9076 4.73438 14.7989 4.80664 14.6856 4.90039L14.3575 4.51172C14.4981 4.39193 14.6147 4.30729 14.7071 4.25781C14.7996 4.20833 14.9005 4.17057 15.0098 4.14453C15.1192 4.11719 15.2416 4.10352 15.377 4.10352C15.5554 4.10352 15.713 4.13607 15.8497 4.20117C15.9864 4.26628 16.0925 4.35742 16.168 4.47461C16.2436 4.5918 16.2813 4.72591 16.2813 4.87695C16.2813 5.00846 16.2579 5.13216 16.211 5.24805C16.1654 5.36263 16.0938 5.48047 15.9962 5.60156C15.8998 5.72266 15.7292 5.89518 15.4845 6.11914L15.1173 6.46484V6.49219H16.3614V7Z" fill="white"/>
</svg>
