<svg width="18" height="18" viewBox="0 0 18 18" fill="none" xmlns="http://www.w3.org/2000/svg">
<path d="M5.78509 14.9928C6.09019 14.9928 6.28795 14.8346 6.76821 14.3657L8.94915 12.2073C8.97175 12.1791 9.0226 12.1791 9.0452 12.2073L11.2318 14.3657C11.7121 14.8346 11.9042 14.9928 12.2149 14.9928C12.6669 14.9928 12.9494 14.6821 12.9494 14.1735V4.30845C12.9494 3.18408 12.3618 2.59082 11.2487 2.59082H6.74561C5.63253 2.59082 5.04492 3.18408 5.04492 4.30845V14.1735C5.04492 14.6821 5.32743 14.9928 5.78509 14.9928ZM6.32185 13.1339C6.2484 13.2074 6.15799 13.1848 6.15799 13.0774V4.38191C6.15799 3.9299 6.384 3.70954 6.83601 3.70954H11.1583C11.6104 3.70954 11.8364 3.9299 11.8364 4.38191V13.0774C11.8364 13.1848 11.7516 13.2074 11.6725 13.1339L9.37291 10.9078C9.1356 10.6705 8.8644 10.6705 8.62144 10.9078L6.32185 13.1339Z" fill="#010101"/>
</svg>
