<svg width="15" height="15" viewBox="0 0 15 15" fill="none" xmlns="http://www.w3.org/2000/svg">
<g opacity="0.3">
<path d="M0 8.81836V9.69727H1.07597L1.95488 11.4551H6.01147L5.42553 13.2129H4.42383V14.0918H10.5762V13.2129H9.57447L8.98853 11.4551H13.0451L13.924 9.69727H15V8.81836H0Z" fill="#ffffff"/>
<path d="M8.69471 2.77576C8.77207 2.60799 8.81831 2.42317 8.81831 2.22656C8.81831 1.49963 8.22688 0.908203 7.49995 0.908203C6.77302 0.908203 6.18159 1.49963 6.18159 2.22656C6.18159 2.42317 6.22782 2.60799 6.30518 2.77576C3.66789 3.26065 1.575 5.31933 1.04102 7.93945H13.9589C13.4249 5.31933 11.332 3.26065 8.69471 2.77576ZM7.06049 2.22656C7.06049 1.98406 7.25745 1.78711 7.49995 1.78711C7.74245 1.78711 7.9394 1.98406 7.9394 2.22656C7.9394 2.46906 7.74245 2.66602 7.49995 2.66602C7.25745 2.66602 7.06049 2.46906 7.06049 2.22656Z" fill="#ffffff"/>
</g>
</svg>
