<svg width="20" height="20" viewBox="0 0 16 16" fill="none" xmlns="http://www.w3.org/2000/svg">
<g clip-path="url(#clip0)">
<path d="M7.69461 13.3325H1.59965C1.01055 13.3325 0.53302 12.855 0.53302 12.2659V11.1992H8.71918L7.69461 13.3325Z" fill="#D3DCFB"/>
<path d="M14.4007 4.7995V9.28069V12.2661H1.59965C1.01055 12.2661 0.53302 11.7886 0.53302 11.1995V4.7995L8.00021 2.13281L14.4007 4.7995Z" fill="#EBF5FC"/>
<path d="M2.41663 6.93384H1.84998C1.71191 6.93384 1.59998 6.82191 1.59998 6.68384V6.11719C1.59998 5.97912 1.71191 5.86719 1.84998 5.86719H2.41663C2.5547 5.86719 2.66664 5.97912 2.66664 6.11719V6.68384C2.66664 6.82191 2.5547 6.93384 2.41663 6.93384Z" fill="#3C58A0"/>
<path d="M4.54987 6.93384H3.98322C3.84515 6.93384 3.73322 6.82191 3.73322 6.68384V6.11719C3.73322 5.97912 3.84515 5.86719 3.98322 5.86719H4.54987C4.68793 5.86719 4.79987 5.97912 4.79987 6.11719V6.68384C4.79987 6.82191 4.68793 6.93384 4.54987 6.93384Z" fill="#3C58A0"/>
<path d="M6.68308 6.93384H6.11642C5.97836 6.93384 5.86642 6.82191 5.86642 6.68384V6.11719C5.86642 5.97912 5.97836 5.86719 6.11642 5.86719H6.68308C6.82114 5.86719 6.93308 5.97912 6.93308 6.11719V6.68384C6.93308 6.82191 6.82117 6.93384 6.68308 6.93384Z" fill="#3C58A0"/>
<path d="M8.81681 6.93384H8.25015C8.11209 6.93384 8.00015 6.82191 8.00015 6.68384V6.11719C8.00015 5.97912 8.11209 5.86719 8.25015 5.86719H8.81681C8.95487 5.86719 9.06681 5.97912 9.06681 6.11719V6.68384C9.06681 6.82191 8.95487 6.93384 8.81681 6.93384Z" fill="#3C58A0"/>
<path d="M10.9494 6.93384H10.3828C10.2447 6.93384 10.1328 6.82191 10.1328 6.68384V6.11719C10.1328 5.97912 10.2447 5.86719 10.3828 5.86719H10.9494C11.0875 5.86719 11.1994 5.97912 11.1994 6.11719V6.68384C11.1994 6.82191 11.0875 6.93384 10.9494 6.93384Z" fill="#3C58A0"/>
<path d="M13.0831 6.93384H12.5165C12.3784 6.93384 12.2665 6.82191 12.2665 6.68384V6.11719C12.2665 5.97912 12.3784 5.86719 12.5165 5.86719H13.0831C13.2212 5.86719 13.3331 5.97912 13.3331 6.11719V6.68384C13.3331 6.82191 13.2212 6.93384 13.0831 6.93384Z" fill="#3C58A0"/>
<path d="M2.41663 9.06666H1.84998C1.71191 9.06666 1.59998 8.95472 1.59998 8.81666V8.25C1.59998 8.11194 1.71191 8 1.84998 8H2.41663C2.5547 8 2.66664 8.11194 2.66664 8.25V8.81666C2.66664 8.95475 2.5547 9.06666 2.41663 9.06666Z" fill="#3C58A0"/>
<path d="M4.54987 9.06666H3.98322C3.84515 9.06666 3.73322 8.95472 3.73322 8.81666V8.25C3.73322 8.11194 3.84515 8 3.98322 8H4.54987C4.68793 8 4.79987 8.11194 4.79987 8.25V8.81666C4.79987 8.95475 4.68793 9.06666 4.54987 9.06666Z" fill="#3C58A0"/>
<path d="M6.68308 9.06666H6.11642C5.97836 9.06666 5.86642 8.95472 5.86642 8.81666V8.25C5.86642 8.11194 5.97836 8 6.11642 8H6.68308C6.82114 8 6.93308 8.11194 6.93308 8.25V8.81666C6.93308 8.95475 6.82117 9.06666 6.68308 9.06666Z" fill="#3C58A0"/>
<path d="M9.06681 9.06666V8.26666C9.06681 8.11937 8.94743 8 8.80015 8H8.26681C8.11953 8 8.00015 8.11937 8.00015 8.26666V8.8C8.00015 8.94728 8.11956 9.06666 8.26681 9.06666H9.06681Z" fill="#3C58A0"/>
<path d="M2.41663 11.2014H1.84998C1.71191 11.2014 1.59998 11.0895 1.59998 10.9514V10.3848C1.59998 10.2467 1.71191 10.1348 1.84998 10.1348H2.41663C2.5547 10.1348 2.66664 10.2467 2.66664 10.3848V10.9514C2.66664 11.0895 2.5547 11.2014 2.41663 11.2014Z" fill="#3C58A0"/>
<path d="M4.54987 11.2014H3.98322C3.84515 11.2014 3.73322 11.0895 3.73322 10.9514V10.3848C3.73322 10.2467 3.84515 10.1348 3.98322 10.1348H4.54987C4.68793 10.1348 4.79987 10.2467 4.79987 10.3848V10.9514C4.79987 11.0895 4.68793 11.2014 4.54987 11.2014Z" fill="#3C58A0"/>
<path d="M6.68308 11.2014H6.11642C5.97836 11.2014 5.86642 11.0895 5.86642 10.9514V10.3848C5.86642 10.2467 5.97836 10.1348 6.11642 10.1348H6.68308C6.82114 10.1348 6.93308 10.2467 6.93308 10.3848V10.9514C6.93308 11.0895 6.82117 11.2014 6.68308 11.2014Z" fill="#3C58A0"/>
<path d="M13.0754 5.86719H12.5238C12.4904 5.86719 12.4587 5.87375 12.4294 5.88528C12.5249 5.92297 12.5925 6.01584 12.5925 6.12472V6.67628C12.5925 6.78516 12.5248 6.87803 12.4294 6.91572C12.4587 6.92728 12.4904 6.93384 12.5238 6.93384H13.0754C13.2176 6.93384 13.3329 6.81853 13.3329 6.67631V6.12475C13.3329 5.9825 13.2176 5.86719 13.0754 5.86719Z" fill="#2A428C"/>
<path d="M10.9421 5.86719H10.3906C10.3572 5.86719 10.3254 5.87375 10.2961 5.88528C10.3916 5.92297 10.4592 6.01584 10.4592 6.12472V6.67628C10.4592 6.78516 10.3916 6.87803 10.2961 6.91572C10.3254 6.92728 10.3572 6.93384 10.3906 6.93384H10.9421C11.0844 6.93384 11.1997 6.81853 11.1997 6.67631V6.12475C11.1997 5.9825 11.0844 5.86719 10.9421 5.86719Z" fill="#2A428C"/>
<path d="M8.80909 5.86719H8.25752C8.22415 5.86719 8.19237 5.87375 8.16309 5.88528C8.25855 5.92297 8.32621 6.01584 8.32621 6.12472V6.67628C8.32621 6.78516 8.25855 6.87803 8.16309 6.91572C8.19237 6.92728 8.22415 6.93384 8.25752 6.93384H8.80909C8.95134 6.93384 9.06665 6.81853 9.06665 6.67631V6.12475C9.06662 5.9825 8.9513 5.86719 8.80909 5.86719Z" fill="#2A428C"/>
<path d="M6.67582 5.86719H6.12425C6.09088 5.86719 6.0591 5.87375 6.02982 5.88528C6.12528 5.92297 6.19294 6.01584 6.19294 6.12472V6.67628C6.19294 6.78516 6.12528 6.87803 6.02982 6.91572C6.0591 6.92728 6.09088 6.93384 6.12425 6.93384H6.67582C6.81807 6.93384 6.93338 6.81853 6.93338 6.67631V6.12475C6.93335 5.9825 6.81807 5.86719 6.67582 5.86719Z" fill="#2A428C"/>
<path d="M4.54257 5.86719H3.99101C3.95764 5.86719 3.92586 5.87375 3.89658 5.88528C3.99204 5.92297 4.05967 6.01584 4.05967 6.12472V6.67628C4.05967 6.78516 3.99201 6.87803 3.89658 6.91572C3.92586 6.92728 3.95764 6.93384 3.99101 6.93384H4.54257C4.68482 6.93384 4.80013 6.81853 4.80013 6.67631V6.12475C4.80013 5.9825 4.68482 5.86719 4.54257 5.86719Z" fill="#2A428C"/>
<path d="M2.40888 5.86719H1.85732C1.82394 5.86719 1.79216 5.87375 1.76288 5.88528C1.85835 5.92297 1.926 6.01584 1.926 6.12472V6.67628C1.926 6.78516 1.85835 6.87803 1.76288 6.91572C1.79216 6.92728 1.82394 6.93384 1.85732 6.93384H2.40888C2.55113 6.93384 2.66644 6.81853 2.66644 6.67631V6.12475C2.66641 5.9825 2.55109 5.86719 2.40888 5.86719Z" fill="#2A428C"/>
<path d="M2.40888 8H1.85732C1.82394 8 1.79216 8.00656 1.76288 8.01809C1.85835 8.05578 1.926 8.14866 1.926 8.25753V8.80912C1.926 8.918 1.85835 9.01087 1.76288 9.04856C1.79216 9.06012 1.82394 9.06669 1.85732 9.06669H2.40888C2.55113 9.06669 2.66644 8.95138 2.66644 8.80916V8.25756C2.66641 8.11531 2.55109 8 2.40888 8Z" fill="#2A428C"/>
<path d="M2.40888 10.1328H1.85732C1.82394 10.1328 1.79216 10.1394 1.76288 10.1509C1.85835 10.1886 1.926 10.2815 1.926 10.3903V10.9419C1.926 11.0508 1.85835 11.1437 1.76288 11.1814C1.79216 11.1929 1.82394 11.1995 1.85732 11.1995H2.40888C2.55113 11.1995 2.66644 11.0842 2.66644 10.942V10.3904C2.66641 10.2481 2.55109 10.1328 2.40888 10.1328Z" fill="#2A428C"/>
<path d="M4.54257 8H3.99101C3.95764 8 3.92586 8.00656 3.89658 8.01809C3.99204 8.05578 4.05967 8.14866 4.05967 8.25753V8.80912C4.05967 8.918 3.99201 9.01087 3.89658 9.04856C3.92586 9.06012 3.95764 9.06669 3.99101 9.06669H4.54257C4.68482 9.06669 4.80013 8.95138 4.80013 8.80916V8.25756C4.80013 8.11531 4.68482 8 4.54257 8Z" fill="#2A428C"/>
<path d="M4.54257 10.1328H3.99101C3.95764 10.1328 3.92586 10.1394 3.89658 10.1509C3.99204 10.1886 4.05967 10.2815 4.05967 10.3903V10.9419C4.05967 11.0508 3.99201 11.1437 3.89658 11.1814C3.92586 11.1929 3.95764 11.1995 3.99101 11.1995H4.54257C4.68482 11.1995 4.80013 11.0842 4.80013 10.942V10.3904C4.80013 10.2481 4.68482 10.1328 4.54257 10.1328Z" fill="#2A428C"/>
<path d="M6.67582 8H6.12425C6.09088 8 6.0591 8.00656 6.02982 8.01809C6.12528 8.05578 6.19294 8.14866 6.19294 8.25753V8.80912C6.19294 8.918 6.12528 9.01087 6.02982 9.04856C6.0591 9.06012 6.09088 9.06669 6.12425 9.06669H6.67582C6.81807 9.06669 6.93338 8.95138 6.93338 8.80916V8.25756C6.93335 8.11531 6.81807 8 6.67582 8Z" fill="#2A428C"/>
<path d="M9.06659 9.06666V8.25753C9.06659 8.11528 8.95128 8 8.80903 8H8.25746C8.22409 8 8.19231 8.00656 8.16302 8.01809C8.25849 8.05578 8.32615 8.14866 8.32615 8.25753V8.80912C8.32615 8.918 8.25849 9.01087 8.16302 9.04856C8.19231 9.06012 8.22409 9.06669 8.25746 9.06669H9.06659V9.06666Z" fill="#2A428C"/>
<path d="M6.67582 10.1328H6.12425C6.09088 10.1328 6.0591 10.1394 6.02982 10.1509C6.12528 10.1886 6.19294 10.2815 6.19294 10.3903V10.9419C6.19294 11.0508 6.12528 11.1437 6.02982 11.1814C6.0591 11.1929 6.09088 11.1995 6.12425 11.1995H6.67582C6.81807 11.1995 6.93338 11.0842 6.93338 10.942V10.3904C6.93335 10.2481 6.81807 10.1328 6.67582 10.1328Z" fill="#2A428C"/>
<path d="M13.6595 4.49219V9.28208V12.2675H14.4005V9.28208V4.80091L13.6595 4.49219Z" fill="#D3DCFB"/>
<path d="M14.4007 4.79972V2.13303C14.4007 1.54394 13.9231 1.06641 13.3341 1.06641H1.59965C1.01055 1.06641 0.53302 1.54394 0.53302 2.13303V4.79972H14.4007Z" fill="#FF4155"/>
<path d="M3.89403 2.37545H3.19975C3.06638 2.37545 2.95831 2.26736 2.95831 2.13402C2.95831 2.00067 3.06641 1.89258 3.19975 1.89258H3.89403C4.02741 1.89258 4.13547 2.00067 4.13547 2.13402C4.13547 2.26736 4.02738 2.37545 3.89403 2.37545Z" fill="#E80054"/>
<path d="M5.59969 2.37545H4.90541C4.77203 2.37545 4.66397 2.26736 4.66397 2.13402C4.66397 2.00067 4.77206 1.89258 4.90541 1.89258H5.59969C5.73306 1.89258 5.84113 2.00067 5.84113 2.13402C5.84113 2.26736 5.73306 2.37545 5.59969 2.37545Z" fill="#E80054"/>
<path d="M10.0279 2.37545H9.33354C9.20016 2.37545 9.0921 2.26736 9.0921 2.13402C9.0921 2.00067 9.2002 1.89258 9.33354 1.89258H10.0279C10.1612 1.89258 10.2693 2.00067 10.2693 2.13402C10.2693 2.26736 10.1612 2.37545 10.0279 2.37545Z" fill="#E80054"/>
<path d="M11.7336 2.37545H11.0393C10.9059 2.37545 10.7978 2.26736 10.7978 2.13402C10.7978 2.00067 10.9059 1.89258 11.0393 1.89258H11.7336C11.8669 1.89258 11.975 2.00067 11.975 2.13402C11.975 2.26736 11.8669 2.37545 11.7336 2.37545Z" fill="#E80054"/>
<path d="M5.06641 2C5.06641 2.36819 4.76794 2.66666 4.39975 2.66666C4.03156 2.66666 3.73309 2.36819 3.73309 2V0.666656C3.73306 0.298469 4.03153 0 4.39972 0C4.76791 0 5.06637 0.298469 5.06637 0.666656V2H5.06641Z" fill="#EBF5FC"/>
<path d="M11.1997 2C11.1997 2.36819 10.9013 2.66666 10.5331 2.66666C10.1649 2.66666 9.86639 2.36819 9.86639 2V0.666656C9.86639 0.298469 10.1649 0 10.5331 0C10.9012 0 11.1997 0.298469 11.1997 0.666656V2H11.1997Z" fill="#EBF5FC"/>
<path d="M10.5335 0C10.3966 0 10.2695 0.041375 10.1636 0.112125C10.3425 0.231688 10.4604 0.435344 10.4604 0.666687V2C10.4604 2.23131 10.3425 2.435 10.1636 2.55456C10.2694 2.62528 10.3966 2.66669 10.5335 2.66669C10.9017 2.66669 11.2001 2.36822 11.2001 2.00003V0.666656C11.2002 0.298469 10.9017 0 10.5335 0V0Z" fill="#D3DCFB"/>
<path d="M4.39966 0C4.26279 0 4.13566 0.041375 4.02979 0.112125C4.20869 0.231688 4.3266 0.435344 4.3266 0.666687V2C4.3266 2.23131 4.20869 2.435 4.02979 2.55456C4.13563 2.62528 4.26279 2.66669 4.39966 2.66669C4.76785 2.66669 5.06632 2.36822 5.06632 2.00003V0.666656C5.06635 0.298469 4.76788 0 4.39966 0V0Z" fill="#D3DCFB"/>
<path d="M13.3339 1.06641H12.5932C13.1823 1.06641 13.6598 1.54394 13.6598 2.13303V4.79975H14.4005V2.13306C14.4005 1.54397 13.923 1.06641 13.3339 1.06641Z" fill="#E80054"/>
<path d="M0.532959 3.49219H14.4007V3.97509H0.532959V3.49219Z" fill="#E80054"/>
<path d="M11.467 16C13.6762 16 15.467 14.2091 15.467 12C15.467 9.79086 13.6762 8 11.467 8C9.2579 8 7.46704 9.79086 7.46704 12C7.46704 14.2091 9.2579 16 11.467 16Z" fill="#4FABF7"/>
<path d="M11.4667 14.9331C13.0868 14.9331 14.4001 13.6198 14.4001 11.9998C14.4001 10.3797 13.0868 9.06641 11.4667 9.06641C9.84669 9.06641 8.53339 10.3797 8.53339 11.9998C8.53339 13.6198 9.84669 14.9331 11.4667 14.9331Z" fill="#EBF5FC"/>
<path d="M11.4666 11.7088C11.3333 11.7088 11.2252 11.6007 11.2252 11.4674V10.134C11.2252 10.0007 11.3333 9.89258 11.4666 9.89258C11.6 9.89258 11.7081 10.0007 11.7081 10.134V11.4674C11.7081 11.6007 11.6 11.7088 11.4666 11.7088Z" fill="#3C58A0"/>
<path d="M12.8001 12.2407H12C11.8667 12.2407 11.7586 12.1326 11.7586 11.9993C11.7586 11.8659 11.8667 11.7578 12 11.7578H12.8001C12.9334 11.7578 13.0415 11.8659 13.0415 11.9993C13.0415 12.1326 12.9334 12.2407 12.8001 12.2407Z" fill="#3C58A0"/>
<path d="M11.4667 8C11.3418 8 11.2184 8.00603 11.0965 8.01722C13.132 8.20406 14.7262 9.91572 14.7262 12C14.7262 14.0843 13.132 15.7959 11.0964 15.9828C11.2184 15.994 11.3418 16 11.4667 16C13.6758 16 15.4667 14.2091 15.4667 12C15.4667 9.79087 13.6758 8 11.4667 8Z" fill="#1886EA"/>
<path d="M11.4669 9.06641C11.3416 9.06641 11.2181 9.07431 11.0969 9.08956C12.5423 9.27147 13.6603 10.505 13.6603 11.9998C13.6603 13.4945 12.5423 14.728 11.0969 14.9099C11.2181 14.9252 11.3416 14.9331 11.4669 14.9331C13.0869 14.9331 14.4002 13.6198 14.4002 11.9998C14.4002 10.3797 13.0869 9.06641 11.4669 9.06641Z" fill="#D3DCFB"/>
<path d="M11.4669 12.5335C11.7615 12.5335 12.0003 12.2947 12.0003 12.0001C12.0003 11.7056 11.7615 11.4668 11.4669 11.4668C11.1724 11.4668 10.9336 11.7056 10.9336 12.0001C10.9336 12.2947 11.1724 12.5335 11.4669 12.5335Z" fill="#FFDD40"/>
</g>
<defs>
<clipPath id="clip0">
<rect width="16" height="16" fill="white"/>
</clipPath>
</defs>
</svg>
