<svg width="12" height="12" viewBox="0 0 12 12" fill="none" xmlns="http://www.w3.org/2000/svg">
<path d="M2.10706 11.0659H9.88726C11.1133 11.0659 11.7518 10.4331 11.7518 9.22398V2.3478C11.7518 1.13867 11.1133 0.505859 9.88726 0.505859H2.10706C0.886632 0.505859 0.248169 1.13302 0.248169 2.3478V9.22398C0.248169 10.4331 0.886632 11.0659 2.10706 11.0659ZM2.10141 9.94155C1.63245 9.94155 1.37254 9.69859 1.37254 9.20138V4.00328C1.37254 3.50607 1.63245 3.26311 2.10141 3.26311H9.89291C10.3619 3.26311 10.6218 3.50607 10.6218 4.00328V9.20138C10.6218 9.69859 10.3619 9.94155 9.89291 9.94155H2.10141ZM4.90951 5.2124H5.24287C5.44627 5.2124 5.51407 5.15025 5.51407 4.9525V4.61914C5.51407 4.41574 5.44627 4.35359 5.24287 4.35359H4.90951C4.70611 4.35359 4.63831 4.41574 4.63831 4.61914V4.9525C4.63831 5.15025 4.70611 5.2124 4.90951 5.2124ZM6.7571 5.2124H7.09045C7.28821 5.2124 7.35601 5.15025 7.35601 4.9525V4.61914C7.35601 4.41574 7.28821 4.35359 7.09045 4.35359H6.7571C6.55369 4.35359 6.48589 4.41574 6.48589 4.61914V4.9525C6.48589 5.15025 6.55369 5.2124 6.7571 5.2124ZM8.59903 5.2124H8.93239C9.1358 5.2124 9.2036 5.15025 9.2036 4.9525V4.61914C9.2036 4.41574 9.1358 4.35359 8.93239 4.35359H8.59903C8.40128 4.35359 8.33348 4.41574 8.33348 4.61914V4.9525C8.33348 5.15025 8.40128 5.2124 8.59903 5.2124ZM3.06757 7.03174H3.39528C3.59869 7.03174 3.66649 6.96959 3.66649 6.76618V6.43283C3.66649 6.23507 3.59869 6.17292 3.39528 6.17292H3.06757C2.86417 6.17292 2.79637 6.23507 2.79637 6.43283V6.76618C2.79637 6.96959 2.86417 7.03174 3.06757 7.03174ZM4.90951 7.03174H5.24287C5.44627 7.03174 5.51407 6.96959 5.51407 6.76618V6.43283C5.51407 6.23507 5.44627 6.17292 5.24287 6.17292H4.90951C4.70611 6.17292 4.63831 6.23507 4.63831 6.43283V6.76618C4.63831 6.96959 4.70611 7.03174 4.90951 7.03174ZM6.7571 7.03174H7.09045C7.28821 7.03174 7.35601 6.96959 7.35601 6.76618V6.43283C7.35601 6.23507 7.28821 6.17292 7.09045 6.17292H6.7571C6.55369 6.17292 6.48589 6.23507 6.48589 6.43283V6.76618C6.48589 6.96959 6.55369 7.03174 6.7571 7.03174ZM8.59903 7.03174H8.93239C9.1358 7.03174 9.2036 6.96959 9.2036 6.76618V6.43283C9.2036 6.23507 9.1358 6.17292 8.93239 6.17292H8.59903C8.40128 6.17292 8.33348 6.23507 8.33348 6.43283V6.76618C8.33348 6.96959 8.40128 7.03174 8.59903 7.03174ZM3.06757 8.84542H3.39528C3.59869 8.84542 3.66649 8.78327 3.66649 8.58552V8.25216C3.66649 8.04876 3.59869 7.98661 3.39528 7.98661H3.06757C2.86417 7.98661 2.79637 8.04876 2.79637 8.25216V8.58552C2.79637 8.78327 2.86417 8.84542 3.06757 8.84542ZM4.90951 8.84542H5.24287C5.44627 8.84542 5.51407 8.78327 5.51407 8.58552V8.25216C5.51407 8.04876 5.44627 7.98661 5.24287 7.98661H4.90951C4.70611 7.98661 4.63831 8.04876 4.63831 8.25216V8.58552C4.63831 8.78327 4.70611 8.84542 4.90951 8.84542ZM6.7571 8.84542H7.09045C7.28821 8.84542 7.35601 8.78327 7.35601 8.58552V8.25216C7.35601 8.04876 7.28821 7.98661 7.09045 7.98661H6.7571C6.55369 7.98661 6.48589 8.04876 6.48589 8.25216V8.58552C6.48589 8.78327 6.55369 8.84542 6.7571 8.84542Z" fill="#393939"/>
</svg>
