<svg width="32" height="27" viewBox="0 0 32 27" fill="none" xmlns="http://www.w3.org/2000/svg">
<path d="M8.63495 25.6595C8.45619 25.6595 8.28479 25.5884 8.15839 25.462C8.03199 25.3356 7.96094 25.1642 7.96094 24.9855V5.06848C7.96094 4.88973 8.03199 4.71832 8.15839 4.59192C8.28479 4.46552 8.45619 4.39453 8.63495 4.39453C8.8137 4.39453 8.98517 4.46552 9.11157 4.59192C9.23797 4.71832 9.30896 4.88973 9.30896 5.06848V24.9855C9.30909 25.074 9.29176 25.1617 9.25793 25.2435C9.22411 25.3254 9.17443 25.3998 9.11182 25.4624C9.0492 25.525 8.9749 25.5746 8.89307 25.6084C8.81123 25.6422 8.7235 25.6597 8.63495 25.6595Z" fill="#4F453C"/>
<path d="M18.8819 22.384C17.4267 22.384 16.0041 21.9524 14.794 21.1439C13.584 20.3354 12.6409 19.1863 12.084 17.8418C11.5271 16.4973 11.3814 15.0179 11.6653 13.5906C11.9492 12.1633 12.65 10.8522 13.679 9.82312C14.7081 8.79408 16.0191 8.09324 17.4464 7.80933C18.8738 7.52542 20.3532 7.67124 21.6977 8.22815C23.0422 8.78506 24.1914 9.72809 24.9999 10.9381C25.8084 12.1481 26.24 13.5707 26.24 15.026C26.2378 16.9768 25.4619 18.8471 24.0825 20.2266C22.7031 21.606 20.8327 22.3819 18.8819 22.384ZM18.8819 9.01501C17.6931 9.01501 16.5309 9.36758 15.5424 10.0281C14.5539 10.6886 13.7834 11.6273 13.3285 12.7257C12.8735 13.8241 12.7545 15.0327 12.9864 16.1987C13.2184 17.3647 13.7908 18.4357 14.6315 19.2764C15.4722 20.117 16.5432 20.6896 17.7093 20.9215C18.8753 21.1534 20.0839 21.0344 21.1822 20.5795C22.2806 20.1245 23.2194 19.354 23.8799 18.3655C24.5404 17.377 24.8929 16.2149 24.8929 15.026C24.8911 13.4324 24.2572 11.9045 23.1303 10.7776C22.0034 9.65071 20.4756 9.01687 18.8819 9.01501Z" fill="#4F453C"/>
<path d="M28.195 26.4131H3.216C2.36358 26.4123 1.5463 26.0732 0.943542 25.4705C0.340785 24.8677 0.00177087 24.0504 0.000976562 23.198V6.85608C0.00150609 6.00348 0.34039 5.18586 0.943176 4.58289C1.54596 3.97991 2.3634 3.64081 3.216 3.64001H11.344L13.603 0.765015C13.7288 0.604237 13.8894 0.474172 14.0729 0.384766C14.2564 0.29536 14.4579 0.248971 14.662 0.249023H23.105C23.309 0.249266 23.5104 0.29587 23.6938 0.385254C23.8773 0.474638 24.0381 0.604459 24.164 0.765015L26.421 3.64001H28.195C29.0475 3.64107 29.8648 3.98034 30.4675 4.58325C31.0703 5.18617 31.4092 6.00356 31.41 6.85608V23.197C31.4089 24.0494 31.0699 24.8665 30.4672 25.4692C29.8645 26.0719 29.0474 26.4109 28.195 26.412V26.4131ZM3.216 6.33704C3.07817 6.3373 2.94603 6.39216 2.84857 6.48962C2.75111 6.58709 2.69625 6.71922 2.69598 6.85706V23.198C2.69598 23.3359 2.75081 23.4682 2.84833 23.5657C2.94585 23.6632 3.07809 23.718 3.216 23.718H28.195C28.3329 23.718 28.4652 23.6632 28.5627 23.5657C28.6602 23.4682 28.715 23.3359 28.715 23.198V6.85608C28.7148 6.71825 28.6598 6.58611 28.5624 6.48865C28.4649 6.39119 28.3328 6.33632 28.195 6.33606H25.765C25.561 6.33582 25.3596 6.28921 25.1761 6.19983C24.9927 6.11045 24.8319 5.98062 24.706 5.82007L22.449 2.94507H15.317L13.06 5.82007C12.9338 5.98089 12.7727 6.11092 12.5889 6.20032C12.4051 6.28971 12.2034 6.33612 11.999 6.33606L3.216 6.33704Z" fill="#4F453C"/>
</svg>
