<svg width="38" height="38" viewBox="0 0 38 38" fill="none" xmlns="http://www.w3.org/2000/svg">
<g filter="url(#filter0_d)">
<circle cx="17" cy="17" r="9" fill="white"/>
<circle cx="17" cy="17" r="8.25" stroke="#010101" stroke-width="1.5"/>
</g>
<path d="M16.9003 19.1004C17.7839 19.1004 18.5003 18.384 18.5003 17.5004C18.5003 16.6167 17.7839 15.9004 16.9003 15.9004C16.0166 15.9004 15.3003 16.6167 15.3003 17.5004C15.3003 18.384 16.0166 19.1004 16.9003 19.1004Z" fill="#010101"/>
<path d="M15.3999 12.5L14.4849 13.5H12.8999C12.3499 13.5 11.8999 13.95 11.8999 14.5V20.5C11.8999 21.05 12.3499 21.5 12.8999 21.5H20.8999C21.4499 21.5 21.8999 21.05 21.8999 20.5V14.5C21.8999 13.95 21.4499 13.5 20.8999 13.5H19.3149L18.3999 12.5H15.3999ZM16.8999 20C15.5199 20 14.3999 18.88 14.3999 17.5C14.3999 16.12 15.5199 15 16.8999 15C18.2799 15 19.3999 16.12 19.3999 17.5C19.3999 18.88 18.2799 20 16.8999 20Z" fill="#010101"/>
<defs>
<filter id="filter0_d" x="0" y="0" width="38" height="38" filterUnits="userSpaceOnUse" color-interpolation-filters="sRGB">
<feFlood flood-opacity="0" result="BackgroundImageFix"/>
<feColorMatrix in="SourceAlpha" type="matrix" values="0 0 0 0 0 0 0 0 0 0 0 0 0 0 0 0 0 0 127 0" result="hardAlpha"/>
<feOffset dx="2" dy="2"/>
<feGaussianBlur stdDeviation="5"/>
<feColorMatrix type="matrix" values="0 0 0 0 0.620833 0 0 0 0 0.620833 0 0 0 0 0.620833 0 0 0 0.4 0"/>
<feBlend mode="normal" in2="BackgroundImageFix" result="effect1_dropShadow"/>
<feBlend mode="normal" in="SourceGraphic" in2="effect1_dropShadow" result="shape"/>
</filter>
</defs>
</svg>
