<svg width="150" height="150" viewBox="0 0 150 150" fill="none" xmlns="http://www.w3.org/2000/svg">
<path d="M43.9288 29.7675L35.1702 20.9907C33.1385 18.9549 30.4359 17.834 27.5598 17.834C24.6837 17.834 21.9811 18.9552 19.9496 20.9907L13.6007 27.3534C9.42151 31.5408 9.42151 38.3547 13.6007 42.5424L22.3778 51.3376C23.2362 52.1977 24.362 52.6278 25.4885 52.6278C26.6115 52.6278 27.735 52.1998 28.5928 51.344C30.3108 49.6296 42.2071 37.6943 43.9227 35.9822C45.6404 34.2681 45.6433 31.4857 43.9288 29.7675Z" fill="#105C6E"/>
<path d="M75 0.878906C72.573 0.878906 70.6055 2.84648 70.6055 5.27344V19.3359C70.6055 21.7629 72.573 23.7305 75 23.7305C77.427 23.7305 79.3945 21.7629 79.3945 19.3359V5.27344C79.3945 2.84648 77.427 0.878906 75 0.878906Z" fill="#26879C"/>
<path d="M85.8398 0H64.1602C61.7332 0 59.7656 1.96758 59.7656 4.39453C59.7656 6.82148 61.7332 8.78906 64.1602 8.78906H85.8398C88.2668 8.78906 90.2344 6.82148 90.2344 4.39453C90.2344 1.96758 88.2668 0 85.8398 0Z" fill="#DE513C"/>
<path d="M75 0H64.1602C61.7332 0 59.7656 1.96758 59.7656 4.39453C59.7656 6.82148 61.7332 8.78906 64.1602 8.78906H75V0Z" fill="#FC6249"/>
<path d="M122.65 34.7501C109.923 21.9966 93.0004 14.9727 75.0001 14.9727C56.9998 14.9727 40.0773 21.9966 27.3502 34.7501C14.6254 47.5013 7.61755 64.4545 7.61755 82.4861C7.61755 100.518 14.6254 117.471 27.3502 130.222C40.0773 142.976 56.9998 150 75.0001 150C93.0004 150 109.923 142.976 122.65 130.222C135.375 117.471 142.383 100.518 142.383 82.4861C142.383 64.4545 135.375 47.5013 122.65 34.7501Z" fill="#DE513C"/>
<path d="M75.0001 14.9727C56.9998 14.9727 40.0773 21.9966 27.3502 34.7501C14.6254 47.5013 7.61755 64.4545 7.61755 82.4861C7.61755 100.518 14.6254 117.471 27.3502 130.222C40.0773 142.976 56.9998 150 75.0001 150V14.9727Z" fill="#FC6249"/>
<path d="M75.0001 31.7979C47.1042 31.7979 24.4091 54.5363 24.4091 82.4858C24.4091 110.435 47.1042 133.174 75.0001 133.174C102.896 133.174 125.591 110.435 125.591 82.4858C125.591 54.5363 102.896 31.7979 75.0001 31.7979Z" fill="#96D1D9"/>
<path d="M75.0001 31.7979C47.1042 31.7979 24.4091 54.5363 24.4091 82.4858C24.4091 110.435 47.1042 133.174 75.0001 133.174V31.7979Z" fill="#F4F2E6"/>
<path d="M75 42.7758C77.427 42.7758 79.3945 40.8082 79.3945 38.3812V31.9922C77.9458 31.8668 76.4807 31.7988 75 31.7988C73.5193 31.7988 72.0542 31.8668 70.6055 31.9922V38.3812C70.6055 40.8082 72.573 42.7758 75 42.7758Z" fill="#105C6E"/>
<path d="M75 122.198C72.573 122.198 70.6055 124.166 70.6055 126.593V132.982C72.0542 133.107 73.5193 133.175 75 133.175C76.4807 133.175 77.9458 133.107 79.3945 132.982V126.593C79.3945 124.166 77.427 122.198 75 122.198Z" fill="#105C6E"/>
<path d="M125.399 78.0918H119.106C116.679 78.0918 114.711 80.0594 114.711 82.4863C114.711 84.9133 116.679 86.8809 119.106 86.8809H125.399C125.524 85.4321 125.591 83.967 125.591 82.4863C125.591 81.0057 125.524 79.5405 125.399 78.0918Z" fill="#105C6E"/>
<path d="M35.289 82.4863C35.289 80.0594 33.3215 78.0918 30.8945 78.0918H24.6012C24.4764 79.5405 24.4091 81.0057 24.4091 82.4863C24.4091 83.967 24.4764 85.4321 24.6012 86.8809H30.8945C33.3215 86.8809 35.289 84.9133 35.289 82.4863Z" fill="#105C6E"/>
<path d="M85.84 79.9513H79.6402V62.1777C79.6402 59.7508 77.6726 57.7832 75.2456 57.7832C72.8187 57.7832 70.8511 59.7508 70.8511 62.1777V84.3458C70.8511 86.7728 72.8187 88.7404 75.2456 88.7404H85.84C88.2669 88.7404 90.2345 86.7728 90.2345 84.3458C90.2345 81.9189 88.2669 79.9513 85.84 79.9513Z" fill="#105C6E"/>
</svg>
