<svg width="12" height="13" viewBox="0 0 12 13" fill="none" xmlns="http://www.w3.org/2000/svg">
<path d="M5.99438 12.62C9.19799 12.62 11.8422 9.97573 11.8422 6.77776C11.8422 3.5798 9.19234 0.935547 5.98873 0.935547C2.79076 0.935547 0.152161 3.5798 0.152161 6.77776C0.152161 9.97573 2.79641 12.62 5.99438 12.62ZM5.99438 11.4561C3.40097 11.4561 1.32738 9.37116 1.32738 6.77776C1.32738 4.18436 3.40097 2.10512 5.98873 2.10512C8.58213 2.10512 10.667 4.18436 10.6727 6.77776C10.6783 9.37116 8.58778 11.4561 5.99438 11.4561ZM3.14672 7.48968H5.98873C6.24863 7.48968 6.44638 7.29192 6.44638 7.03767V3.34249C6.44638 3.08824 6.24863 2.89049 5.98873 2.89049C5.74012 2.89049 5.54237 3.08824 5.54237 3.34249V6.58566H3.14672C2.89246 6.58566 2.69471 6.78341 2.69471 7.03767C2.69471 7.29192 2.89246 7.48968 3.14672 7.48968Z" fill="#393939"/>
</svg>
