<svg width="26" height="26" viewBox="0 0 26 26" fill="none" xmlns="http://www.w3.org/2000/svg">
<path d="M26.0003 12.9474C26.03 20.1275 20.2339 25.971 13.0534 25.9999C5.87329 26.0288 0.0294275 20.2327 0.000107733 13.0534C-0.0288104 5.87249 5.76766 0.0290319 12.9474 0.00011378C20.1275 -0.0296076 25.9714 5.76726 26.0003 12.9474Z" fill="#FEC820"/>
<path d="M13 23.5479C18.8255 23.5479 23.5479 18.8255 23.5479 13C23.5479 7.17459 18.8255 2.45215 13 2.45215C7.17459 2.45215 2.45215 7.17459 2.45215 13C2.45215 18.8255 7.17459 23.5479 13 23.5479Z" fill="#FF6F00"/>
<path d="M13 22.1504C18.0542 22.1504 22.1514 18.0532 22.1514 12.999C22.1514 7.94487 18.0542 3.84766 13 3.84766C7.94584 3.84766 3.84863 7.94487 3.84863 12.999C3.84863 18.0532 7.94584 22.1504 13 22.1504Z" fill="#FCCF4E"/>
<path d="M12.9301 0.000976562C5.75842 0.0399357 -0.0288102 5.87898 0.000107904 13.0539C0.0294276 20.1914 5.80662 25.9602 12.9297 25.9979V0.000976562H12.9301Z" fill="#FEB60E"/>
<path d="M12.9298 2.45215C7.11769 2.49151 2.42814 7.22645 2.45224 13.043C2.47594 18.8302 7.15625 23.5081 12.9298 23.5451V2.45215Z" fill="#FF5000"/>
<path d="M12.9298 3.84961C7.89162 3.88817 3.82823 7.99373 3.84871 13.0371C3.87 18.056 7.92496 22.1118 12.9298 22.1487V3.84961Z" fill="#FBBF31"/>
<path d="M16.4396 14.1863C16.4396 14.8687 16.193 15.4178 15.699 15.8323C15.205 16.2468 14.5142 16.4942 13.6253 16.5761V17.8963H12.7429V16.6018C11.6955 16.5805 10.7765 16.3954 9.98649 16.0479V14.3474C10.36 14.5326 10.8098 14.6956 11.3356 14.837C11.8617 14.9792 12.3309 15.0631 12.7429 15.0888V13.0915L12.3116 12.9244C11.4613 12.5894 10.8593 12.2255 10.505 11.8323C10.1508 11.4391 9.97363 10.9535 9.97363 10.374C9.97363 9.75103 10.217 9.23894 10.7046 8.8373C11.1918 8.43647 11.871 8.19267 12.7429 8.10712V7.12109H13.6253V8.08142C14.6082 8.12439 15.497 8.3216 16.2918 8.67384L15.6862 10.1808C15.0162 9.90607 14.3294 9.73898 13.6253 9.67874V11.5785C14.4624 11.9002 15.058 12.1794 15.4122 12.4155C15.7665 12.6517 16.0264 12.9111 16.1914 13.1951C16.3569 13.4779 16.4396 13.8092 16.4396 14.1863ZM11.912 10.374C11.912 10.5632 11.977 10.7182 12.108 10.8407C12.2389 10.9632 12.4505 11.0885 12.7425 11.2174V9.70404C12.1891 9.78557 11.912 10.0085 11.912 10.374ZM14.5013 14.2827C14.5013 14.1024 14.4278 13.9502 14.282 13.8253C14.1362 13.7012 13.9173 13.5718 13.6253 13.4393V15.0426C14.2089 14.9442 14.5013 14.6908 14.5013 14.2827Z" fill="#FF6F00"/>
</svg>
