<svg width="18" height="14" viewBox="0 0 18 14" fill="none" xmlns="http://www.w3.org/2000/svg">
<path d="M16.875 0.8125H6.1875C6.03788 0.8125 5.895 0.872125 5.78925 0.97675L5.0625 1.70463L4.33575 0.97675C4.23 0.872125 4.08712 0.8125 3.9375 0.8125H1.125C0.505125 0.8125 0 1.31762 0 1.9375V12.0625C0 12.6835 0.505125 13.1875 1.125 13.1875H3.9375C4.08712 13.1875 4.23 13.1279 4.33575 13.0233L5.0625 12.2954L5.78925 13.0221C5.895 13.1279 6.03788 13.1875 6.1875 13.1875H16.875C17.496 13.1875 18 12.6835 18 12.0625V1.9375C18 1.31762 17.496 0.8125 16.875 0.8125ZM5.625 10.9375H4.5V9.8125H5.625V10.9375ZM5.625 8.6875H4.5V7.5625H5.625V8.6875ZM5.625 6.4375H4.5V5.3125H5.625V6.4375ZM5.625 4.1875H4.5V3.0625H5.625V4.1875ZM9.5625 3.0625C10.4929 3.0625 11.25 3.81962 11.25 4.75C11.25 5.68038 10.4929 6.4375 9.5625 6.4375C8.63212 6.4375 7.875 5.68038 7.875 4.75C7.875 3.81962 8.63212 3.0625 9.5625 3.0625ZM8.4375 10.9375C8.31038 10.9375 8.18325 10.8947 8.0775 10.807C7.839 10.6079 7.80638 10.2535 8.0055 10.015L13.6305 3.265C13.8308 3.02537 14.1851 2.99613 14.4225 3.193C14.661 3.39213 14.6925 3.7465 14.4934 3.98612L8.86837 10.7361C8.75813 10.8678 8.59838 10.9375 8.4375 10.9375ZM12.9375 10.9375C12.0071 10.9375 11.25 10.1804 11.25 9.25C11.25 8.31962 12.0071 7.5625 12.9375 7.5625C13.8679 7.5625 14.625 8.31962 14.625 9.25C14.625 10.1804 13.8679 10.9375 12.9375 10.9375Z" fill="#EF3340"/>
</svg>
