<svg width="16" height="16" viewBox="0 0 16 16" fill="none" xmlns="http://www.w3.org/2000/svg">
<path d="M15.2929 2.31854C15.6834 1.92801 15.6834 1.29485 15.2929 0.904322L15.0957 0.707106C14.7052 0.316582 14.072 0.316582 13.6815 0.707107L8.70711 5.68146C8.31658 6.07199 7.68342 6.07199 7.29289 5.68147L2.31854 0.707108C1.92801 0.316584 1.29485 0.316583 0.904322 0.707107L0.707106 0.904322C0.316582 1.29485 0.316582 1.92801 0.707107 2.31854L5.68146 7.29289C6.07199 7.68342 6.07199 8.31658 5.68147 8.70711L0.707108 13.6815C0.316584 14.072 0.316583 14.7052 0.707107 15.0957L0.904322 15.2929C1.29485 15.6834 1.92801 15.6834 2.31854 15.2929L7.29289 10.3185C7.68342 9.92801 8.31658 9.92801 8.70711 10.3185L13.6815 15.2929C14.072 15.6834 14.7052 15.6834 15.0957 15.2929L15.2929 15.0957C15.6834 14.7052 15.6834 14.072 15.2929 13.6815L10.3185 8.70711C9.92801 8.31658 9.92801 7.68342 10.3185 7.29289L15.2929 2.31854Z" fill="#EF3340"/>
</svg>
