<svg width="48" height="48" viewBox="0 0 48 48" fill="none" xmlns="http://www.w3.org/2000/svg">
<path d="M23.9849 38.9866C32.5279 38.9866 39.5792 31.9353 39.5792 23.4074C39.5792 14.8795 32.5128 7.82812 23.9699 7.82812C15.442 7.82812 8.40569 14.8795 8.40569 23.4074C8.40569 31.9353 15.457 38.9866 23.9849 38.9866ZM18.8471 29.9766C18.0485 29.9766 17.4157 29.3438 17.4157 28.5301C17.4157 28.1685 17.5664 27.8069 17.8527 27.5357L21.9509 23.4224L17.8527 19.3242C17.5664 19.053 17.4157 18.6914 17.4157 18.3298C17.4157 17.5162 18.0485 16.8984 18.8471 16.8984C19.269 16.8984 19.6004 17.034 19.8716 17.3052L23.9849 21.4035L28.1133 17.2902C28.4146 17.0039 28.731 16.8683 29.1378 16.8683C29.9364 16.8683 30.5692 17.5011 30.5692 18.2997C30.5692 18.6763 30.4185 19.0078 30.1322 19.3092L26.034 23.4224L30.1322 27.5206C30.4035 27.8069 30.5541 28.1535 30.5541 28.5301C30.5541 29.3438 29.9213 29.9766 29.1077 29.9766C28.7009 29.9766 28.3543 29.8259 28.0681 29.5547L23.9849 25.4715L19.9018 29.5547C19.6306 29.841 19.269 29.9766 18.8471 29.9766Z" fill="#FFFCFC"/>
</svg>
