<svg width="13" height="13" viewBox="0 0 13 13" fill="none" xmlns="http://www.w3.org/2000/svg">
<path d="M6.6139 4.79004C6.43231 4.78962 6.25803 4.86157 6.12962 4.98997C6.00121 5.11838 5.92926 5.29266 5.92969 5.47425C5.93002 5.5075 5.93291 5.54067 5.93836 5.57346C5.95922 5.71634 6.02542 5.84873 6.1272 5.95115C6.28821 5.93861 6.45037 5.93039 6.6139 5.93039C6.77742 5.93039 6.9389 5.93861 7.09969 5.95092C7.18426 5.86596 7.24451 5.75987 7.27416 5.64371C7.09772 5.4778 7.02849 5.22737 7.09467 4.99439C6.96886 4.86375 6.79527 4.78997 6.6139 4.79004Z" fill="#010101" fill-opacity="0.65"/>
<path d="M11.248 2.4801C11.2776 2.31587 11.1741 2.15704 11.012 2.11769C10.2137 1.92429 9.40683 1.74753 8.63208 1.59473C9.37239 1.94253 10.1476 2.32866 10.9164 2.73508C11.0759 2.74753 11.2191 2.63746 11.248 2.4801Z" fill="#010101" fill-opacity="0.65"/>
<path d="M1.87493 2.80556C2.4178 2.50274 3.08807 2.54787 3.58545 2.92073C3.87343 3.14786 4.11627 3.42698 4.30136 3.74361C4.53901 4.13658 4.79878 4.54323 5.07315 4.95238C5.12743 5.03244 5.18057 5.10884 5.23006 5.18045L5.31103 5.29723C5.35167 5.35364 5.41256 5.39213 5.48094 5.40465C5.49362 5.19013 5.56711 4.98366 5.69282 4.80938C5.48528 4.34937 5.32038 3.82868 5.48619 3.33354C5.53782 3.16555 5.66115 3.02903 5.82305 2.96065C6.1761 2.81172 6.64821 2.99098 6.8984 3.1114C7.35681 3.31081 7.67079 3.7434 7.71831 4.24103C7.69835 4.50004 7.64766 4.75575 7.56733 5.00279L7.54224 5.08444C7.53302 5.11008 7.52786 5.13702 7.52696 5.16426C7.52667 5.24248 7.56826 5.31487 7.63598 5.35402C7.64296 5.35808 7.64974 5.36249 7.65628 5.36724C7.66653 5.37212 7.67704 5.37646 7.68775 5.38024C7.80018 5.41706 7.92209 5.3618 7.9685 5.25298C8.11808 4.89075 8.20061 4.50436 8.21208 4.11263C8.14245 3.6489 7.92674 3.21947 7.59629 2.88675C7.51964 2.80652 7.5101 2.6834 7.57349 2.59231C7.63568 2.50247 7.75344 2.47034 7.85264 2.51614L10.9453 3.98035C11.101 4.05096 11.2847 3.98642 11.362 3.83393C11.435 3.68213 11.3761 3.49969 11.2281 3.4193C9.84552 2.67009 8.40389 1.96535 7.17026 1.43509C5.27271 0.623612 3.858 0.212401 2.96487 0.212401C2.02321 0.201069 1.08966 0.387546 0.224609 0.75977L0.22803 3.70416L1.87493 2.80556ZM0.684171 1.2248C0.684106 1.12771 0.745518 1.04122 0.837206 1.00928C1.15054 0.901024 1.47231 0.818942 1.79921 0.763875C1.87955 0.750227 1.96107 0.780477 2.01306 0.84323C2.06505 0.905983 2.07961 0.991706 2.05126 1.06811C2.02291 1.14451 1.95595 1.19998 1.87561 1.21363C1.62683 1.25562 1.38117 1.31437 1.14031 1.38947V2.281C1.14031 2.40696 1.0382 2.50907 0.912241 2.50907C0.786281 2.50907 0.684171 2.40696 0.684171 2.281V1.2248Z" fill="#010101" fill-opacity="0.65"/>
<path d="M12.6579 12.3159H3.19294C3.06698 12.3159 2.96487 12.2138 2.96487 12.0878C2.96487 11.9619 3.06698 11.8597 3.19294 11.8597H12.3112C12.2213 9.59677 10.8003 7.60166 8.69097 6.77711C6.58165 5.95256 4.18427 6.45501 2.58354 8.05713C1.56551 9.06721 0.969668 10.4266 0.916799 11.8597H2.05259C2.17855 11.8597 2.28066 11.9619 2.28066 12.0878C2.28066 12.2138 2.17855 12.3159 2.05259 12.3159H0.570133C0.381193 12.3159 0.228027 12.469 0.228027 12.658C0.228027 12.8469 0.381193 13.0001 0.570133 13.0001H12.6579C12.8468 13.0001 13 12.8469 13 12.658C13 12.469 12.8468 12.3159 12.6579 12.3159ZM4.56136 7.29834C4.68732 7.29834 4.78943 7.40045 4.78943 7.52641C4.78943 7.65237 4.68732 7.75448 4.56136 7.75448C4.4354 7.75448 4.33329 7.65237 4.33329 7.52641C4.33329 7.40045 4.4354 7.29834 4.56136 7.29834ZM1.90297 11.2166C1.8803 11.3405 1.76145 11.4226 1.6375 11.4C1.51356 11.3773 1.43146 11.2584 1.45413 11.1345C1.64543 10.0891 2.15236 9.12733 2.90671 8.3787C3.15023 8.13478 3.41688 7.9151 3.7029 7.72278C3.80751 7.65255 3.94924 7.68043 4.01947 7.78504C4.08969 7.88965 4.06181 8.03138 3.9572 8.1016C3.69563 8.27724 3.45187 8.47806 3.22943 8.7012C2.54046 9.38429 2.0775 10.2622 1.90297 11.2166Z" fill="#010101" fill-opacity="0.65"/>
</svg>
