<svg width="18" height="18" viewBox="0 0 18 18" fill="none" xmlns="http://www.w3.org/2000/svg">
<g clip-path="url(#clip0)">
<path d="M16.3085 4.02333L15.9111 2.832C15.7598 2.37827 15.3366 2.07339 14.8585 2.07339H11.5182V0.985886C11.5182 0.442337 11.0763 0 10.5329 0H7.474C6.93073 0 6.48867 0.442337 6.48867 0.985886V2.07339H3.14855C2.67023 2.07339 2.24712 2.37827 2.09578 2.832L1.69835 4.02333C1.60785 4.29456 1.65372 4.59489 1.82085 4.82684C1.98798 5.05879 2.25838 5.19736 2.5443 5.19736H2.95972L3.87406 16.5038C3.94204 17.3427 4.65395 18 5.49509 18H12.6973C13.5383 18 14.2504 17.3427 14.3182 16.5037L15.2325 5.19736H15.4626C15.7485 5.19736 16.0189 5.05879 16.186 4.82698C16.3532 4.59503 16.399 4.29456 16.3085 4.02333V4.02333ZM7.54335 1.05469H10.4635V2.07339H7.54335V1.05469ZM13.267 16.4187C13.2431 16.7141 12.9928 16.9453 12.6973 16.9453H5.49509C5.19956 16.9453 4.94934 16.7141 4.92545 16.4187L4.01784 5.19736H14.1744L13.267 16.4187ZM2.77048 4.14267L3.09636 3.16571C3.10378 3.14319 3.12479 3.12808 3.14855 3.12808H14.8585C14.8822 3.12808 14.9031 3.14319 14.9106 3.16571L15.2365 4.14267H2.77048Z" fill="white"/>
<path d="M11.5845 16.3813C11.5938 16.3818 11.603 16.3819 11.6124 16.3819C11.891 16.3819 12.1239 16.1636 12.1385 15.8821L12.6337 6.37587C12.6488 6.085 12.4252 5.83685 12.1345 5.82174C11.8429 5.80623 11.5956 6.03007 11.5804 6.32094L11.0853 15.8271C11.0702 16.118 11.2936 16.3661 11.5845 16.3813V16.3813Z" fill="white"/>
<path d="M5.891 15.8833C5.90638 16.1644 6.13902 16.382 6.41711 16.382C6.42672 16.382 6.43661 16.3817 6.44636 16.3811C6.73708 16.3654 6.95997 16.1168 6.94417 15.8259L6.42548 6.31973C6.40969 6.02886 6.16113 5.80598 5.87026 5.82191C5.57954 5.8377 5.35666 6.08627 5.37245 6.37713L5.891 15.8833Z" fill="white"/>
<path d="M9.00893 16.382C9.3002 16.382 9.53627 16.1459 9.53627 15.8546V6.34845C9.53627 6.05717 9.3002 5.82111 9.00893 5.82111C8.71765 5.82111 8.48158 6.05717 8.48158 6.34845V15.8546C8.48158 16.1459 8.71765 16.382 9.00893 16.382Z" fill="white"/>
</g>
<defs>
<clipPath id="clip0">
<rect width="18" height="18" fill="white"/>
</clipPath>
</defs>
</svg>
