<svg width="13" height="13" viewBox="0 0 13 13" fill="none" xmlns="http://www.w3.org/2000/svg">
<g opacity="0.85">
<path d="M11.375 5.41602C11.375 9.20768 6.5 12.4577 6.5 12.4577C6.5 12.4577 1.625 9.20768 1.625 5.41602C1.625 4.12309 2.13861 2.88311 3.05285 1.96887C3.96709 1.05463 5.20707 0.541016 6.5 0.541016C7.79293 0.541016 9.03291 1.05463 9.94715 1.96887C10.8614 2.88311 11.375 4.12309 11.375 5.41602Z" stroke="#161616" stroke-linecap="round" stroke-linejoin="round"/>
<path d="M6.5 7.04102C7.39746 7.04102 8.125 6.31348 8.125 5.41602C8.125 4.51855 7.39746 3.79102 6.5 3.79102C5.60254 3.79102 4.875 4.51855 4.875 5.41602C4.875 6.31348 5.60254 7.04102 6.5 7.04102Z" stroke="#161616" stroke-linecap="round" stroke-linejoin="round"/>
</g>
</svg>
