<svg width="18" height="18" viewBox="0 0 18 18" fill="none" xmlns="http://www.w3.org/2000/svg">
<g opacity="0.7">
<path d="M15.8555 4.74609L12.1641 3.69141L11.1094 0H3.72656C2.85282 0 2.14453 0.708293 2.14453 1.58203V16.418C2.14453 17.2917 2.85282 18 3.72656 18H14.2734C15.1472 18 15.8555 17.2917 15.8555 16.418V4.74609Z" fill="#FB746A"/>
<path d="M15.8555 4.74609V16.418C15.8555 17.2917 15.1472 18 14.2734 18H9V0H11.1094L12.1641 3.69141L15.8555 4.74609Z" fill="#EF3340"/>
<path d="M15.8555 4.74609H12.1641C11.584 4.74609 11.1094 4.27148 11.1094 3.69141V0C11.2465 0 11.3836 0.0527344 11.4785 0.158238L15.6972 4.37699C15.8027 4.47188 15.8555 4.60898 15.8555 4.74609Z" fill="#FFAFA9"/>
<path d="M12.1641 8.47266H5.83594C5.54446 8.47266 5.30859 8.23679 5.30859 7.94531C5.30859 7.65383 5.54446 7.41797 5.83594 7.41797H12.1641C12.4555 7.41797 12.6914 7.65383 12.6914 7.94531C12.6914 8.23679 12.4555 8.47266 12.1641 8.47266Z" fill="white"/>
<path d="M12.1641 10.582H5.83594C5.54446 10.582 5.30859 10.3462 5.30859 10.0547C5.30859 9.76321 5.54446 9.52734 5.83594 9.52734H12.1641C12.4555 9.52734 12.6914 9.76321 12.6914 10.0547C12.6914 10.3462 12.4555 10.582 12.1641 10.582Z" fill="white"/>
<path d="M12.1641 12.6914H5.83594C5.54446 12.6914 5.30859 12.4555 5.30859 12.1641C5.30859 11.8726 5.54446 11.6367 5.83594 11.6367H12.1641C12.4555 11.6367 12.6914 11.8726 12.6914 12.1641C12.6914 12.4555 12.4555 12.6914 12.1641 12.6914Z" fill="white"/>
<path d="M10.0547 14.8008H5.83594C5.54446 14.8008 5.30859 14.5649 5.30859 14.2734C5.30859 13.982 5.54446 13.7461 5.83594 13.7461H10.0547C10.3462 13.7461 10.582 13.982 10.582 14.2734C10.582 14.5649 10.3462 14.8008 10.0547 14.8008Z" fill="white"/>
<path d="M9 14.8008H10.0547C10.3462 14.8008 10.582 14.5649 10.582 14.2734C10.582 13.982 10.3462 13.7461 10.0547 13.7461H9V14.8008Z" fill="white"/>
<path d="M9 12.6914H12.1641C12.4555 12.6914 12.6914 12.4555 12.6914 12.1641C12.6914 11.8726 12.4555 11.6367 12.1641 11.6367H9V12.6914Z" fill="white"/>
<path d="M9 10.582H12.1641C12.4555 10.582 12.6914 10.3462 12.6914 10.0547C12.6914 9.76321 12.4555 9.52734 12.1641 9.52734H9V10.582Z" fill="white"/>
<path d="M9 8.47266H12.1641C12.4555 8.47266 12.6914 8.23679 12.6914 7.94531C12.6914 7.65383 12.4555 7.41797 12.1641 7.41797H9V8.47266Z" fill="white"/>
</g>
</svg>
