<svg width="187" height="238" viewBox="0 0 187 238" fill="none" xmlns="http://www.w3.org/2000/svg">
<path d="M144.296 39.1435L139.128 42.9929L136.427 39.3329L143.474 34.0836C144.364 33.4206 144.648 32.2101 144.142 31.2212C134.684 12.6904 115.416 0 93.1836 0C61.6006 0 36 25.6025 36 57.1836C36 59.5402 36.322 62.1867 36.9131 65.0623C37.2332 66.6233 39.0291 67.3754 40.3703 66.5134L46.6312 62.4879L49.0901 66.3126L40.4309 71.8821C39.5557 72.4466 39.1769 73.5283 39.5046 74.5172C47.7887 99.4926 65.6811 132.019 93.1836 172.098C131.306 116.544 150.367 78.2396 150.367 57.1836C150.367 51.3092 149.481 45.6412 147.833 40.3066C147.369 38.8006 145.559 38.2001 144.296 39.1435Z" fill="#EF3340"/>
<path d="M86.956 162.418C89.6373 166.588 91.8228 169.814 93.5106 172.092C131.165 117.822 149.992 80.155 149.992 59.0875C149.992 57.429 149.908 55.7914 149.771 54.167C147.541 62.9465 144.39 71.493 140.522 79.6508C129.831 102.195 114.02 116.638 97.1817 134.927C94.5303 137.808 91.8453 140.524 89.1059 143.193C83.9248 148.24 83.0342 156.318 86.956 162.418Z" fill="#E53042"/>
<path d="M132.607 36.4437C115.103 48.0524 105.467 55.2075 103.697 57.9089C102.57 59.0474 102.006 60.722 102.004 62.929C101.578 65.2098 100.32 66.9053 98.2302 68.0154L86.8829 75.2519C86.4832 75.1894 86.343 75.017 86.4662 74.7385L95.6084 67.0871C95.938 66.8181 95.957 66.5037 95.6634 66.1437C95.2239 65.6019 95.0382 66.0661 94.9246 66.2006C94.8507 66.2934 91.6568 68.6917 85.339 73.3992C84.8919 73.3727 84.7461 73.206 84.8995 72.9029L93.7538 65.1265C94.1592 64.8575 94.199 64.524 93.877 64.1262C93.6269 63.9406 93.3276 64.0334 92.9809 64.4066C92.6342 64.776 89.6184 67.2197 83.9315 71.734C83.5735 71.7321 83.4124 71.5806 83.4522 71.2794L92.1076 63.0635C92.4581 62.8039 92.496 62.5046 92.2194 62.1655C91.8064 61.656 91.4654 62.1352 91.2305 62.2925C91.0733 62.4004 88.1162 64.9029 82.361 69.7999C82.0257 69.779 81.878 69.6313 81.914 69.3547L89.1088 61.476C91.5753 58.9053 93.7008 57.4485 95.4891 57.1C95.9115 57.0223 97.5123 57.0185 97.8514 57.0905C99.8594 57.5243 101.382 56.8139 102.153 56.1869C102.752 55.7019 111.5 47.3913 128.396 31.2588" fill="white"/>
<path d="M53.4699 74.3318C56.9347 71.1454 67.6095 62.6605 70.6348 60.2698C73.6564 57.8829 77.0094 54.2021 79.9855 55.2213C82.9653 56.2386 88.1086 56.6781 93.7349 51.1692C99.3612 45.6642 100.077 40.8979 100.346 39.2062C100.57 37.7949 99.9711 36.9349 99.7685 36.6886C99.5847 36.4215 98.9273 35.6088 97.5085 35.4289C95.8073 35.2148 91.0335 34.5783 84.1796 38.4504C77.3239 42.3225 76.3104 47.3824 76.46 50.527C76.6078 53.6698 72.1427 55.8673 69.0057 58.1026C65.8705 60.3456 54.7486 68.2376 50.7268 70.6794" fill="white"/>
<path d="M137.635 38.4424L133.384 41.6193C135.023 46.1373 135.921 51.0078 135.921 56.0847C135.921 79.5371 116.841 98.6172 93.3884 98.6172C74.5337 98.6172 58.5148 86.2792 52.9548 69.2582L48.5618 72.2248C55.1902 90.5775 72.7795 103.732 93.3884 103.732C119.662 103.732 141.036 82.3559 141.036 56.0847C141.036 49.8522 139.82 43.9039 137.635 38.4424Z" fill="white"/>
<path d="M51.7177 64.6247C51.1532 61.8646 50.8558 59.0079 50.8558 56.0848C50.8558 32.6325 69.9359 13.5523 93.3883 13.5523C110.061 13.5523 124.515 23.2004 131.484 37.2017L135.72 34.2559C127.788 18.938 111.796 8.4375 93.3883 8.4375C67.1152 8.4375 45.741 29.8117 45.741 56.0848C45.741 60.0403 46.2335 63.8821 47.1466 67.5591L51.7177 64.6247Z" fill="white"/>
<path d="M11.184 197.88V204.696H22.176V211.032H11.184V218.424H23.616V225H2.976V191.304H23.616V197.88H11.184ZM27.3128 211.56C27.3128 208.808 27.8248 206.392 28.8488 204.312C29.9048 202.232 31.3288 200.632 33.1208 199.512C34.9128 198.392 36.9128 197.832 39.1208 197.832C41.0088 197.832 42.6568 198.216 44.0648 198.984C45.5048 199.752 46.6088 200.76 47.3768 202.008V198.216H55.5848V225H47.3768V221.208C46.5768 222.456 45.4568 223.464 44.0168 224.232C42.6088 225 40.9608 225.384 39.0728 225.384C36.8968 225.384 34.9128 224.824 33.1208 223.704C31.3288 222.552 29.9048 220.936 28.8488 218.856C27.8248 216.744 27.3128 214.312 27.3128 211.56ZM47.3768 211.608C47.3768 209.56 46.8008 207.944 45.6488 206.76C44.5288 205.576 43.1528 204.984 41.5208 204.984C39.8888 204.984 38.4968 205.576 37.3448 206.76C36.2248 207.912 35.6648 209.512 35.6648 211.56C35.6648 213.608 36.2248 215.24 37.3448 216.456C38.4968 217.64 39.8888 218.232 41.5208 218.232C43.1528 218.232 44.5288 217.64 45.6488 216.456C46.8008 215.272 47.3768 213.656 47.3768 211.608ZM76.4509 218.04V225H72.2749C69.2989 225 66.9789 224.28 65.3149 222.84C63.6509 221.368 62.8189 218.984 62.8189 215.688V205.032H59.5549V198.216H62.8189V191.688H71.0269V198.216H76.4029V205.032H71.0269V215.784C71.0269 216.584 71.2189 217.16 71.6029 217.512C71.9869 217.864 72.6269 218.04 73.5229 218.04H76.4509ZM91.9189 225.384C89.5829 225.384 87.5029 224.984 85.6789 224.184C83.8549 223.384 82.4149 222.296 81.3589 220.92C80.3029 219.512 79.7109 217.944 79.5829 216.216H87.6949C87.7909 217.144 88.2229 217.896 88.9909 218.472C89.7589 219.048 90.7029 219.336 91.8229 219.336C92.8469 219.336 93.6309 219.144 94.1749 218.76C94.7509 218.344 95.0389 217.816 95.0389 217.176C95.0389 216.408 94.6389 215.848 93.8389 215.496C93.0389 215.112 91.7429 214.696 89.9509 214.248C88.0309 213.8 86.4309 213.336 85.1509 212.856C83.8709 212.344 82.7669 211.56 81.8389 210.504C80.9109 209.416 80.4469 207.96 80.4469 206.136C80.4469 204.6 80.8629 203.208 81.6949 201.96C82.5589 200.68 83.8069 199.672 85.4389 198.936C87.1029 198.2 89.0709 197.832 91.3429 197.832C94.7029 197.832 97.3429 198.664 99.2629 200.328C101.215 201.992 102.335 204.2 102.623 206.952H95.0389C94.9109 206.024 94.4949 205.288 93.7909 204.744C93.1189 204.2 92.2229 203.928 91.1029 203.928C90.1429 203.928 89.4069 204.12 88.8949 204.504C88.3829 204.856 88.1269 205.352 88.1269 205.992C88.1269 206.76 88.5269 207.336 89.3269 207.72C90.1589 208.104 91.4389 208.488 93.1669 208.872C95.1509 209.384 96.7669 209.896 98.0149 210.408C99.2629 210.888 100.351 211.688 101.279 212.808C102.239 213.896 102.735 215.368 102.767 217.224C102.767 218.792 102.319 220.2 101.423 221.448C100.559 222.664 99.2949 223.624 97.6309 224.328C95.9989 225.032 94.0949 225.384 91.9189 225.384ZM115.997 197.88V204.696H126.989V211.032H115.997V218.424H128.429V225H107.789V191.304H128.429V197.88H115.997ZM141.437 218.232H153.053V225H132.269V218.472L143.405 204.984H132.365V198.216H152.813V204.744L141.437 218.232ZM184.93 198.216L168.13 237.72H159.298L165.442 224.088L154.546 198.216H163.714L169.906 214.968L176.05 198.216H184.93Z" fill="#EF3340"/>
</svg>
