<svg width="20" height="20" viewBox="0 0 20 20" fill="none" xmlns="http://www.w3.org/2000/svg">
<g opacity="0.6">
<path d="M12.5 11.875H11.25V8.125H12.5V11.875ZM12.5 15V18.125C12.5 18.2908 12.4342 18.4497 12.3169 18.5669C12.1997 18.6842 12.0408 18.75 11.875 18.75H8.125C7.95924 18.75 7.80027 18.6842 7.68306 18.5669C7.56585 18.4497 7.5 18.2908 7.5 18.125V15H8.75V17.5H11.25V15H12.5ZM7.5 11.875V8.125H8.75V11.875H7.5ZM12.5 5H11.25V2.5H8.75V5H7.5V1.875C7.5 1.70924 7.56585 1.55027 7.68306 1.43306C7.80027 1.31585 7.95924 1.25 8.125 1.25H11.875C12.0408 1.25 12.1997 1.31585 12.3169 1.43306C12.4342 1.55027 12.5 1.70924 12.5 1.875V5Z" fill="#161616"/>
<path d="M4.31235 5L2.9211 6.5625L4.3111 8.125H14.9999V5H4.31235ZM4.0311 3.75H15.6249C15.7906 3.75 15.9496 3.81585 16.0668 3.93306C16.184 4.05027 16.2499 4.20924 16.2499 4.375V8.75C16.2499 8.91576 16.184 9.07473 16.0668 9.19194C15.9496 9.30915 15.7906 9.375 15.6249 9.375H4.0311C3.94276 9.37502 3.85542 9.35632 3.77484 9.32012C3.69426 9.28392 3.62226 9.23105 3.5636 9.165L1.6186 6.9775C1.51703 6.86312 1.46094 6.71547 1.46094 6.5625C1.46094 6.40953 1.51703 6.26188 1.6186 6.1475L3.5636 3.96C3.62226 3.89395 3.69426 3.84108 3.77484 3.80488C3.85542 3.76868 3.94276 3.74998 4.0311 3.75ZM17.2886 13.4375L15.8999 15H5.2111V11.875H15.8986L17.2886 13.4375ZM16.1799 10.625H4.58735C4.42159 10.625 4.26262 10.6908 4.14541 10.8081C4.0282 10.9253 3.96235 11.0842 3.96235 11.25V15.625C3.96235 15.7908 4.0282 15.9497 4.14541 16.0669C4.26262 16.1842 4.42159 16.25 4.58735 16.25H16.1811C16.2694 16.25 16.3568 16.2313 16.4374 16.1951C16.518 16.1589 16.5899 16.1061 16.6486 16.04L18.5936 13.8525C18.6952 13.7381 18.7513 13.5905 18.7513 13.4375C18.7513 13.2845 18.6952 13.1369 18.5936 13.0225L16.6486 10.835C16.5899 10.7689 16.518 10.7161 16.4374 10.6799C16.3568 10.6437 16.2694 10.625 16.1811 10.625H16.1799Z" fill="#161616"/>
<path d="M12.5 11.875H11.25V8.125H12.5V11.875ZM12.5 15V18.125C12.5 18.2908 12.4342 18.4497 12.3169 18.5669C12.1997 18.6842 12.0408 18.75 11.875 18.75H8.125C7.95924 18.75 7.80027 18.6842 7.68306 18.5669C7.56585 18.4497 7.5 18.2908 7.5 18.125V15H8.75V17.5H11.25V15H12.5ZM7.5 11.875V8.125H8.75V11.875H7.5ZM12.5 5H11.25V2.5H8.75V5H7.5V1.875C7.5 1.70924 7.56585 1.55027 7.68306 1.43306C7.80027 1.31585 7.95924 1.25 8.125 1.25H11.875C12.0408 1.25 12.1997 1.31585 12.3169 1.43306C12.4342 1.55027 12.5 1.70924 12.5 1.875V5Z" fill="#161616"/>
<path d="M4.31235 5L2.9211 6.5625L4.3111 8.125H14.9999V5H4.31235ZM4.0311 3.75H15.6249C15.7906 3.75 15.9496 3.81585 16.0668 3.93306C16.184 4.05027 16.2499 4.20924 16.2499 4.375V8.75C16.2499 8.91576 16.184 9.07473 16.0668 9.19194C15.9496 9.30915 15.7906 9.375 15.6249 9.375H4.0311C3.94276 9.37502 3.85542 9.35632 3.77484 9.32012C3.69426 9.28392 3.62226 9.23105 3.5636 9.165L1.6186 6.9775C1.51703 6.86312 1.46094 6.71547 1.46094 6.5625C1.46094 6.40953 1.51703 6.26188 1.6186 6.1475L3.5636 3.96C3.62226 3.89395 3.69426 3.84108 3.77484 3.80488C3.85542 3.76868 3.94276 3.74998 4.0311 3.75ZM17.2886 13.4375L15.8999 15H5.2111V11.875H15.8986L17.2886 13.4375ZM16.1799 10.625H4.58735C4.42159 10.625 4.26262 10.6908 4.14541 10.8081C4.0282 10.9253 3.96235 11.0842 3.96235 11.25V15.625C3.96235 15.7908 4.0282 15.9497 4.14541 16.0669C4.26262 16.1842 4.42159 16.25 4.58735 16.25H16.1811C16.2694 16.25 16.3568 16.2313 16.4374 16.1951C16.518 16.1589 16.5899 16.1061 16.6486 16.04L18.5936 13.8525C18.6952 13.7381 18.7513 13.5905 18.7513 13.4375C18.7513 13.2845 18.6952 13.1369 18.5936 13.0225L16.6486 10.835C16.5899 10.7689 16.518 10.7161 16.4374 10.6799C16.3568 10.6437 16.2694 10.625 16.1811 10.625H16.1799Z" fill="#161616"/>
</g>
</svg>
