<svg width="18" height="18" viewBox="0 0 18 18" fill="none" xmlns="http://www.w3.org/2000/svg">
<path d="M17.1925 0.606635L17.1708 0.586875C16.7565 0.208437 16.2195 0 15.6586 0C15.0299 0 14.4262 0.26617 14.0023 0.730201L5.98718 9.50511C5.91412 9.58508 5.85871 9.67944 5.82445 9.78216L4.88199 12.6075C4.77303 12.9342 4.82772 13.2954 5.02826 13.5738C5.2304 13.8544 5.55606 14.0219 5.89947 14.0219H5.89952C6.04806 14.0219 6.19324 13.9914 6.33094 13.9311L9.05972 12.7373C9.15894 12.6939 9.24793 12.6302 9.32094 12.5503L17.3361 3.7754C18.1701 2.86235 18.1058 1.44095 17.1925 0.606635ZM6.68771 12.0856L7.24074 10.4277L7.28738 10.3766L8.33556 11.334L8.28892 11.3851L6.68771 12.0856ZM16.1933 2.73151L9.37945 10.1912L8.33127 9.23388L15.1451 1.77409C15.2784 1.62818 15.4608 1.5478 15.6587 1.5478C15.8323 1.5478 15.9986 1.6124 16.1273 1.72993L16.1489 1.74969C16.4318 2.00812 16.4517 2.44857 16.1933 2.73151Z" fill="#EF3340"/>
<path d="M15.6376 7.13926C15.2102 7.13926 14.8637 7.48576 14.8637 7.91316V14.4834C14.8637 15.5686 13.9808 16.4516 12.8956 16.4516H3.51594C2.43067 16.4516 1.5478 15.5686 1.5478 14.4834V5.18C1.5478 4.09478 2.43072 3.21186 3.51594 3.21186H10.305C10.7324 3.21186 11.0789 2.86536 11.0789 2.43796C11.0789 2.01056 10.7324 1.66406 10.305 1.66406H3.51594C1.57721 1.66406 0 3.24132 0 5.18V14.4834C0 16.422 1.57726 17.9993 3.51594 17.9993H12.8955C14.8342 17.9993 16.4115 16.422 16.4115 14.4834V7.91316C16.4115 7.48576 16.065 7.13926 15.6376 7.13926Z" fill="#EF3340"/>
</svg>
