<svg width="18" height="18" viewBox="0 0 18 18" fill="none" xmlns="http://www.w3.org/2000/svg">
<path d="M17.1925 0.606635L17.1708 0.586875C16.7565 0.208437 16.2195 0 15.6586 0C15.0299 0 14.4262 0.26617 14.0023 0.730201L5.98718 9.50511C5.91412 9.58508 5.85871 9.67944 5.82445 9.78216L4.88199 12.6075C4.77303 12.9342 4.82772 13.2954 5.02826 13.5738C5.2304 13.8544 5.55606 14.0219 5.89947 14.0219H5.89952C6.04806 14.0219 6.19324 13.9914 6.33094 13.9311L9.05972 12.7373C9.15894 12.6939 9.24793 12.6302 9.32094 12.5503L17.3361 3.7754C18.1701 2.86235 18.1058 1.44095 17.1925 0.606635ZM6.68771 12.0856L7.24074 10.4277L7.28738 10.3766L8.33556 11.334L8.28892 11.3851L6.68771 12.0856ZM16.1933 2.73151L9.37945 10.1912L8.33127 9.23388L15.1451 1.77409C15.2784 1.62818 15.4608 1.5478 15.6587 1.5478C15.8323 1.5478 15.9986 1.6124 16.1273 1.72993L16.1489 1.74969C16.4318 2.00812 16.4517 2.44857 16.1933 2.73151Z" fill="#EF3340"/>
<path d="M15.6376 7.14023C15.2102 7.14023 14.8637 7.48674 14.8637 7.91414V14.4844C14.8637 15.5696 13.9808 16.4525 12.8956 16.4525H3.51594C2.43067 16.4525 1.5478 15.5696 1.5478 14.4844V5.18097C1.5478 4.09576 2.43072 3.21284 3.51594 3.21284H10.305C10.7324 3.21284 11.0789 2.86634 11.0789 2.43894C11.0789 2.01154 10.7324 1.66504 10.305 1.66504H3.51594C1.57721 1.66504 0 3.2423 0 5.18097V14.4844C0 16.423 1.57726 18.0003 3.51594 18.0003H12.8955C14.8342 18.0003 16.4115 16.423 16.4115 14.4844V7.91414C16.4115 7.48674 16.065 7.14023 15.6376 7.14023Z" fill="#EF3340"/>
</svg>
