<svg width="26" height="28" viewBox="0 0 26 28" fill="none" xmlns="http://www.w3.org/2000/svg">
<path d="M13 27.1665C20.1797 27.1665 26 21.1681 26 13.7688C26 6.36945 20.1797 0.371094 13 0.371094C5.8203 0.371094 0 6.36945 0 13.7688C0 21.1681 5.8203 27.1665 13 27.1665Z" fill="#FFD93B"/>
<path d="M25.9986 13.7692C25.9986 21.1715 20.177 27.167 12.9986 27.167C8.91171 27.167 5.26359 25.2243 2.87891 22.1805C5.10922 24.0394 7.9489 25.1489 11.0405 25.1489C18.2189 25.1489 24.0404 19.1534 24.0404 11.7512C24.0404 8.56499 22.9639 5.6384 21.1601 3.33984C24.1095 5.7975 25.9986 9.55726 25.9986 13.7692Z" fill="#F4C534"/>
<path d="M16.5871 20.8324C16.5871 20.8324 17.0794 18.0925 15.8843 18.0406C15.2554 18.013 14.8134 19.5679 14.4323 21.7183C13.9968 24.1776 15.1969 25.5676 16.2426 26.3556C17.7749 27.5103 19.391 27.3018 20.9307 26.5448C22.8401 25.6062 24.4212 21.9812 24.4456 21.0911C24.4821 19.7136 23.4007 19.6868 21.9366 22.9283C21.9366 22.9283 21.744 23.5395 21.9366 22.9283C22.1291 22.317 23.6201 19.5671 23.9272 18.9232C24.2481 18.2491 23.3438 17.3598 22.7182 18.2089C22.0926 19.058 20.2701 21.7183 20.1344 22.3698C20.1344 22.3698 20.0126 22.8747 20.1344 22.3698C20.2563 21.8657 22.7775 17.709 22.8937 17.0031C23.0318 16.1599 21.8829 15.9472 21.4954 16.5467C21.2126 16.9838 18.5411 21.55 18.5411 21.55C18.5411 21.55 20.7373 17.7819 20.6276 17.0483C20.5366 16.4404 19.7826 16.3265 19.4227 16.7117C19.0229 17.1379 16.5871 20.8324 16.5871 20.8324Z" fill="white"/>
<path d="M14.7661 24.6286C15.1423 25.3989 15.7119 25.955 16.2424 26.3552C17.7748 27.5099 19.3909 27.3014 20.9305 26.5445C22.8399 25.6058 24.4218 21.9808 24.4454 21.0898C24.4454 21.0898 21.1361 29.5322 14.7661 24.6286Z" fill="#DEE4E9"/>
<path d="M9.41017 20.8324C9.41017 20.8324 8.91779 18.0925 10.113 18.0406C10.7419 18.013 11.1839 19.5679 11.5649 21.7183C12.0004 24.1776 10.8004 25.5676 9.75467 26.3556C8.2223 27.5103 6.60624 27.3018 5.06655 26.5448C3.15718 25.6062 1.57606 21.9812 1.55168 21.0911C1.51512 19.7136 2.59655 19.6868 4.06068 22.9283C4.06068 22.9283 4.25324 23.5395 4.06068 22.9283C3.86811 22.317 2.37718 19.5671 2.07006 18.9232C1.74831 18.2491 2.65262 17.3598 3.27905 18.2089C3.90549 19.058 5.72711 21.7183 5.8628 22.3698C5.8628 22.3698 5.98467 22.8747 5.8628 22.3698C5.74092 21.8657 3.21974 17.709 3.10355 17.0031C2.96543 16.1599 4.1143 15.9472 4.50186 16.5467C4.78461 16.9838 7.45611 21.55 7.45611 21.55C7.45611 21.55 5.25993 17.7819 5.36961 17.0483C5.46061 16.4404 6.21461 16.3265 6.57455 16.7117C6.9743 17.1379 9.41017 20.8324 9.41017 20.8324Z" fill="white"/>
<path d="M11.2308 24.6286C10.8546 25.3989 10.2851 25.955 9.7545 26.3552C8.22213 27.5099 6.60607 27.3014 5.06638 26.5445C3.15701 25.6058 1.57589 21.9808 1.55151 21.0898C1.55233 21.0898 4.86163 29.5322 11.2308 24.6286Z" fill="#DEE4E9"/>
<path d="M17.8444 12.1824C18.4277 12.3172 17.3536 16.7099 12.9994 16.7133C8.64445 16.7099 7.57033 12.3172 8.15452 12.1824C8.58108 11.9471 10.224 14.058 12.9994 14.058C15.8278 14.058 17.4178 11.9471 17.8444 12.1824Z" fill="#3E4347"/>
<path d="M10.8797 10.12C10.5686 10.12 10.3029 9.87552 10.2736 9.54978C10.1802 8.50388 9.40669 7.71507 8.47475 7.71507C7.54282 7.71507 6.76932 8.50388 6.67588 9.54978C6.645 9.89478 6.34601 10.1519 6.01369 10.1175C5.67813 10.0857 5.43194 9.78006 5.46282 9.43506C5.61476 7.73851 6.90907 6.45898 8.47556 6.45898C10.0413 6.45898 11.3364 7.73851 11.4875 9.43506C11.5184 9.78006 11.2714 10.0865 10.9366 10.1175C10.9171 10.1192 10.8984 10.12 10.8797 10.12Z" fill="#3E4347"/>
<path d="M19.9279 10.12C19.6167 10.12 19.351 9.87552 19.3217 9.54978C19.2283 8.50388 18.4548 7.71507 17.5229 7.71507C16.5909 7.71507 15.8174 8.50388 15.724 9.54978C15.6939 9.89478 15.3974 10.1519 15.0618 10.1175C14.7262 10.0857 14.48 9.78006 14.5109 9.43506C14.662 7.73851 15.9572 6.45898 17.5229 6.45898C19.0885 6.45898 20.3837 7.73851 20.5348 9.43506C20.5657 9.78006 20.3187 10.0865 19.9839 10.1175C19.9652 10.1192 19.9465 10.12 19.9279 10.12Z" fill="#3E4347"/>
</svg>
