<svg width="26" height="28" viewBox="0 0 26 28" fill="none" xmlns="http://www.w3.org/2000/svg">
<path d="M13 27.2505C20.1797 27.2505 26 21.2522 26 13.8528C26 6.45345 20.1797 0.455078 13 0.455078C5.8203 0.455078 0 6.45345 0 13.8528C0 21.2522 5.8203 27.2505 13 27.2505Z" fill="#FFD93B"/>
<path d="M25.9998 13.8532C25.9998 21.2555 20.1782 27.251 12.9998 27.251C8.91293 27.251 5.26481 25.3083 2.88013 22.2645C5.11044 24.1234 7.95012 25.2329 11.0417 25.2329C18.2201 25.2329 24.0417 19.2374 24.0417 11.8351C24.0417 8.64897 22.9651 5.72239 21.1613 3.42383C24.1107 5.88149 25.9998 9.64124 25.9998 13.8532Z" fill="#F4C534"/>
<path d="M17.7824 14.3654C18.9091 14.3654 19.8226 13.424 19.8226 12.2628C19.8226 11.1015 18.9091 10.1602 17.7824 10.1602C16.6556 10.1602 15.7422 11.1015 15.7422 12.2628C15.7422 13.424 16.6556 14.3654 17.7824 14.3654Z" fill="#3E4347"/>
<path d="M18.5229 10.9527C18.211 10.8102 17.8856 10.8634 17.796 11.0717C17.7064 11.2799 17.8865 11.5643 18.1984 11.7068C18.5102 11.8493 18.8356 11.796 18.9252 11.5878C19.0148 11.3796 18.8347 11.0952 18.5229 10.9527Z" fill="#5A5F63"/>
<path d="M8.21768 14.3654C9.34445 14.3654 10.2579 13.424 10.2579 12.2628C10.2579 11.1015 9.34445 10.1602 8.21768 10.1602C7.09092 10.1602 6.17749 11.1015 6.17749 12.2628C6.17749 13.424 7.09092 14.3654 8.21768 14.3654Z" fill="#3E4347"/>
<path d="M8.95742 10.9537C8.64568 10.8112 8.3204 10.8643 8.2309 11.0723C8.1414 11.2803 8.32156 11.5644 8.6333 11.7069C8.94504 11.8493 9.27031 11.7962 9.35981 11.5883C9.44931 11.3803 9.26916 11.0962 8.95742 10.9537Z" fill="#5A5F63"/>
<path d="M7.67522 19.1416C7.42985 18.9038 7.41847 18.5061 7.64922 18.254C7.87997 18.002 8.2651 17.9894 8.51047 18.2272C11.0284 20.6698 14.9723 20.6698 17.4902 18.2272C17.7356 17.9894 18.1207 18.002 18.3515 18.254C18.5822 18.5069 18.5708 18.9038 18.3255 19.1416C15.3395 22.0389 10.6612 22.0389 7.67522 19.1416Z" fill="#3E4347"/>
</svg>
