<svg width="20" height="20" viewBox="0 0 20 20" fill="none" xmlns="http://www.w3.org/2000/svg">
<g opacity="0.6" clip-path="url(#clip0_1111_1268)">
<path d="M12.1484 8.67188C10.253 8.67188 8.71094 10.2139 8.71094 12.1094C8.71094 14.0048 10.253 15.5469 12.1484 15.5469C14.0439 15.5469 15.5859 14.0048 15.5859 12.1094C15.5859 10.2139 14.0439 8.67188 12.1484 8.67188ZM12.1484 14.7656C10.6837 14.7656 9.49219 13.5741 9.49219 12.1094C9.49219 10.6447 10.6837 9.45312 12.1484 9.45312C13.6131 9.45312 14.8047 10.6447 14.8047 12.1094C14.8047 13.5741 13.6131 14.7656 12.1484 14.7656Z" fill="#161616"/>
<path d="M19.651 17.7388L16.5509 14.6385C16.9806 13.8934 17.2267 13.0296 17.2267 12.1094C17.2267 10.7512 16.6907 9.51599 15.8192 8.60382V4.21829C15.8189 4.21829 15.8186 4.21829 15.8183 4.21829C15.8183 4.11667 15.7796 4.01688 15.705 3.94211L11.8773 0.114441C11.8025 0.0396729 11.7026 0.00106812 11.601 0.00106812C11.601 0.000610352 11.601 0.000457766 11.6011 0H1.21094C0.564728 0 0.0390625 0.525665 0.0390625 1.17188V18.8281C0.0390625 19.4743 0.564728 20 1.21094 20H14.6475C15.2936 20 15.8194 19.4743 15.8194 18.8281V17.6535L17.7779 19.6121C18.036 19.8703 18.3752 19.9994 18.7146 19.9994C19.0538 19.9994 19.393 19.8703 19.6512 19.6121C20.1675 19.0956 20.1675 18.2553 19.651 17.7388ZM12.1486 16.4062C9.77936 16.4062 7.85172 14.4786 7.85172 12.1094C7.85172 9.74014 9.77936 7.8125 12.1486 7.8125C14.5178 7.8125 16.4455 9.74014 16.4455 12.1094C16.4455 14.4786 14.5178 16.4062 12.1486 16.4062ZM11.9917 1.33377L14.4856 3.82782H12.3824C12.1669 3.82782 11.9917 3.6525 11.9917 3.43719V1.33377ZM15.0381 18.8281C15.0381 19.0436 14.8628 19.2188 14.6475 19.2188H1.21094C0.995483 19.2188 0.820312 19.0436 0.820312 18.8281V1.17188C0.820312 0.956421 0.995483 0.78125 1.21094 0.78125H11.2105V3.43704C11.2105 4.08325 11.7361 4.60892 12.3824 4.60892H15.038V7.93594C14.2174 7.36588 13.2214 7.03125 12.1486 7.03125C9.34845 7.03125 7.07047 9.30923 7.07047 12.1094C7.07047 12.6561 7.15775 13.183 7.31842 13.6769H2.54501C2.32941 13.6769 2.15439 13.8518 2.15439 14.0675C2.15439 14.2831 2.32941 14.4582 2.54501 14.4582H7.53311C7.56989 14.4582 7.60559 14.4527 7.63931 14.4431C8.48587 16.0721 10.1894 17.1875 12.1486 17.1875C13.0687 17.1875 13.9325 16.9414 14.6776 16.5117L15.0381 16.8723V18.8281ZM19.0987 19.0596C18.8869 19.2715 18.5422 19.2715 18.3304 19.0596L15.3328 16.062C15.6154 15.8339 15.873 15.5763 16.1011 15.2937L19.0987 18.2912C19.3106 18.5031 19.3106 18.8478 19.0987 19.0596Z" fill="#161616"/>
<path d="M6.06235 10.9683H2.54688C2.33127 10.9683 2.15625 11.1431 2.15625 11.3589C2.15625 11.5746 2.33127 11.7495 2.54688 11.7495H6.06235C6.27811 11.7495 6.45297 11.5746 6.45297 11.3589C6.45297 11.1431 6.27811 10.9683 6.06235 10.9683Z" fill="#161616"/>
<path d="M6.29382 8.26025H2.54688C2.33127 8.26025 2.15625 8.43512 2.15625 8.65088C2.15625 8.86649 2.33127 9.0415 2.54688 9.0415H6.29382C6.50958 9.0415 6.68445 8.86649 6.68445 8.65088C6.68445 8.43512 6.50958 8.26025 6.29382 8.26025Z" fill="#161616"/>
<path d="M7.46094 16.3853C7.35809 16.3853 7.25739 16.4269 7.18475 16.4997C7.11212 16.5723 7.07031 16.673 7.07031 16.7759C7.07031 16.8786 7.11212 16.9794 7.18475 17.0519C7.25739 17.1247 7.35809 17.1665 7.46094 17.1665C7.56363 17.1665 7.66449 17.1247 7.73743 17.0519C7.81006 16.9794 7.85156 16.8786 7.85156 16.7759C7.85156 16.673 7.81006 16.5723 7.73743 16.4997C7.66449 16.4269 7.56363 16.3853 7.46094 16.3853Z" fill="#161616"/>
<path d="M5.85849 16.3853H2.54688C2.33127 16.3853 2.15625 16.5601 2.15625 16.7759C2.15625 16.9915 2.33127 17.1665 2.54688 17.1665H5.85849C6.0741 17.1665 6.24911 16.9915 6.24911 16.7759C6.24911 16.5601 6.07425 16.3853 5.85849 16.3853Z" fill="#161616"/>
<path d="M2.54297 6.33301C2.64612 6.33301 2.74652 6.2912 2.81915 6.21857C2.89224 6.14548 2.93359 6.04523 2.93359 5.94238C2.93359 5.83969 2.89224 5.73898 2.81915 5.66589C2.74652 5.59326 2.64566 5.55176 2.54297 5.55176C2.44028 5.55176 2.33987 5.59326 2.26678 5.66589C2.19415 5.73853 2.15234 5.83923 2.15234 5.94238C2.15234 6.04523 2.19415 6.14594 2.26678 6.21857C2.33957 6.2912 2.44028 6.33301 2.54297 6.33301Z" fill="#161616"/>
<path d="M10.0375 5.55176H4.19922C3.98361 5.55176 3.80859 5.72662 3.80859 5.94238C3.80859 6.15799 3.98361 6.33301 4.19922 6.33301H10.0375C10.2533 6.33301 10.4282 6.15799 10.4282 5.94238C10.4282 5.72662 10.2533 5.55176 10.0375 5.55176Z" fill="#161616"/>
<path d="M2.54688 3.62451H10.0409C10.2567 3.62451 10.4315 3.44965 10.4315 3.23389C10.4315 3.01813 10.2567 2.84326 10.0409 2.84326H2.54688C2.33127 2.84326 2.15625 3.01813 2.15625 3.23389C2.15625 3.44965 2.33127 3.62451 2.54688 3.62451Z" fill="#161616"/>
</g>
<defs>
<clipPath id="clip0_1111_1268">
<rect width="20" height="20" fill="white"/>
</clipPath>
</defs>
</svg>
