<svg width="18" height="18" viewBox="0 0 14 14" fill="none" xmlns="http://www.w3.org/2000/svg">
<g opacity="0.2">
<path d="M8.23659 8.23672C8.07637 8.40866 7.88317 8.54656 7.66851 8.64221C7.45384 8.73786 7.22211 8.78929 6.98714 8.79344C6.75217 8.79758 6.51876 8.75436 6.30086 8.66634C6.08295 8.57833 5.88501 8.44732 5.71883 8.28114C5.55265 8.11497 5.42165 7.91702 5.33363 7.69912C5.24562 7.48121 5.20239 7.24781 5.20654 7.01284C5.21068 6.77786 5.26212 6.54613 5.35776 6.33147C5.45341 6.1168 5.59132 5.9236 5.76325 5.76339M10.4649 10.4651C9.46776 11.2251 8.25357 11.6462 6.99992 11.6667C2.91659 11.6667 0.583252 7.00005 0.583252 7.00005C1.30885 5.64783 2.31525 4.46641 3.53492 3.53506L10.4649 10.4651ZM5.77492 2.47339C6.17645 2.3794 6.58754 2.33242 6.99992 2.33339C11.0833 2.33339 13.4166 7.00005 13.4166 7.00005C13.0625 7.66249 12.6402 8.28615 12.1566 8.86089L5.77492 2.47339Z" stroke="#202228" stroke-linecap="round" stroke-linejoin="round"/>
<path d="M0.583252 0.583374L13.4166 13.4167" stroke="#202228" stroke-linecap="round" stroke-linejoin="round"/>
</g>
</svg>
