<svg width="20" height="20" viewBox="0 0 20 20" fill="none" xmlns="http://www.w3.org/2000/svg">
<g opacity="0.6" clip-path="url(#clip0)">
<path d="M12.1487 8.67188C10.2532 8.67188 8.71118 10.2139 8.71118 12.1094C8.71118 14.0048 10.2532 15.5469 12.1487 15.5469C14.0441 15.5469 15.5862 14.0048 15.5862 12.1094C15.5862 10.2139 14.0441 8.67188 12.1487 8.67188ZM12.1487 14.7656C10.684 14.7656 9.49243 13.5741 9.49243 12.1094C9.49243 10.6447 10.684 9.45312 12.1487 9.45312C13.6134 9.45312 14.8049 10.6447 14.8049 12.1094C14.8049 13.5741 13.6134 14.7656 12.1487 14.7656Z" fill="#161616"/>
<path d="M19.651 17.7388L16.5509 14.6385C16.9806 13.8934 17.2267 13.0296 17.2267 12.1094C17.2267 10.7512 16.6907 9.51599 15.8192 8.60382V4.21829C15.8189 4.21829 15.8186 4.21829 15.8183 4.21829C15.8183 4.11667 15.7796 4.01688 15.705 3.94211L11.8773 0.114441C11.8025 0.0396729 11.7026 0.00106812 11.601 0.00106812C11.601 0.000610352 11.601 0.000457766 11.6011 0H1.21094C0.564728 0 0.0390625 0.525665 0.0390625 1.17188V18.8281C0.0390625 19.4743 0.564728 20 1.21094 20H14.6475C15.2936 20 15.8194 19.4743 15.8194 18.8281V17.6535L17.7779 19.6121C18.036 19.8703 18.3752 19.9994 18.7146 19.9994C19.0538 19.9994 19.393 19.8703 19.6512 19.6121C20.1675 19.0956 20.1675 18.2553 19.651 17.7388ZM12.1486 16.4062C9.77936 16.4062 7.85172 14.4786 7.85172 12.1094C7.85172 9.74014 9.77936 7.8125 12.1486 7.8125C14.5178 7.8125 16.4455 9.74014 16.4455 12.1094C16.4455 14.4786 14.5178 16.4062 12.1486 16.4062ZM11.9917 1.33377L14.4856 3.82782H12.3824C12.1669 3.82782 11.9917 3.6525 11.9917 3.43719V1.33377ZM15.0381 18.8281C15.0381 19.0436 14.8628 19.2188 14.6475 19.2188H1.21094C0.995483 19.2188 0.820312 19.0436 0.820312 18.8281V1.17188C0.820312 0.956421 0.995483 0.78125 1.21094 0.78125H11.2105V3.43704C11.2105 4.08325 11.7361 4.60892 12.3824 4.60892H15.038V7.93594C14.2174 7.36588 13.2214 7.03125 12.1486 7.03125C9.34845 7.03125 7.07047 9.30923 7.07047 12.1094C7.07047 12.6561 7.15775 13.183 7.31842 13.6769H2.54501C2.32941 13.6769 2.15439 13.8518 2.15439 14.0675C2.15439 14.2831 2.32941 14.4582 2.54501 14.4582H7.53311C7.56989 14.4582 7.60559 14.4527 7.63931 14.4431C8.48587 16.0721 10.1894 17.1875 12.1486 17.1875C13.0687 17.1875 13.9325 16.9414 14.6776 16.5117L15.0381 16.8723V18.8281ZM19.0987 19.0596C18.8869 19.2715 18.5422 19.2715 18.3304 19.0596L15.3328 16.062C15.6154 15.8339 15.873 15.5763 16.1011 15.2937L19.0987 18.2912C19.3106 18.5031 19.3106 18.8478 19.0987 19.0596Z" fill="#161616"/>
<path d="M6.06039 10.9688H2.54492C2.32932 10.9688 2.1543 11.1436 2.1543 11.3594C2.1543 11.5751 2.32932 11.75 2.54492 11.75H6.06039C6.27615 11.75 6.45102 11.5751 6.45102 11.3594C6.45102 11.1436 6.27615 10.9688 6.06039 10.9688Z" fill="#161616"/>
<path d="M6.29187 8.25977H2.54492C2.32932 8.25977 2.1543 8.43463 2.1543 8.65039C2.1543 8.866 2.32932 9.04102 2.54492 9.04102H6.29187C6.50763 9.04102 6.6825 8.866 6.6825 8.65039C6.6825 8.43463 6.50763 8.25977 6.29187 8.25977Z" fill="#161616"/>
<path d="M7.46094 16.3848C7.35809 16.3848 7.25739 16.4264 7.18475 16.4992C7.11212 16.5718 7.07031 16.6725 7.07031 16.7754C7.07031 16.8781 7.11212 16.9789 7.18475 17.0514C7.25739 17.1242 7.35809 17.166 7.46094 17.166C7.56363 17.166 7.66449 17.1242 7.73743 17.0514C7.81006 16.9789 7.85156 16.8781 7.85156 16.7754C7.85156 16.6725 7.81006 16.5718 7.73743 16.4992C7.66449 16.4264 7.56363 16.3848 7.46094 16.3848Z" fill="#161616"/>
<path d="M5.85654 16.3848H2.54492C2.32932 16.3848 2.1543 16.5596 2.1543 16.7754C2.1543 16.991 2.32932 17.166 2.54492 17.166H5.85654C6.07214 17.166 6.24716 16.991 6.24716 16.7754C6.24716 16.5596 6.0723 16.3848 5.85654 16.3848Z" fill="#161616"/>
<path d="M2.54492 6.33301C2.64807 6.33301 2.74847 6.2912 2.82111 6.21857C2.8942 6.14548 2.93555 6.04523 2.93555 5.94238C2.93555 5.83969 2.8942 5.73898 2.82111 5.66589C2.74847 5.59326 2.64761 5.55176 2.54492 5.55176C2.44223 5.55176 2.34183 5.59326 2.26874 5.66589C2.19611 5.73853 2.1543 5.83923 2.1543 5.94238C2.1543 6.04523 2.19611 6.14594 2.26874 6.21857C2.34152 6.2912 2.44223 6.33301 2.54492 6.33301Z" fill="#161616"/>
<path d="M10.039 5.55176H4.20068C3.98508 5.55176 3.81006 5.72662 3.81006 5.94238C3.81006 6.15799 3.98508 6.33301 4.20068 6.33301H10.039C10.2548 6.33301 10.4296 6.15799 10.4296 5.94238C10.4296 5.72662 10.2548 5.55176 10.039 5.55176Z" fill="#161616"/>
<path d="M2.54492 3.625H10.039C10.2547 3.625 10.4296 3.45013 10.4296 3.23438C10.4296 3.01862 10.2547 2.84375 10.039 2.84375H2.54492C2.32932 2.84375 2.1543 3.01862 2.1543 3.23438C2.1543 3.45013 2.32932 3.625 2.54492 3.625Z" fill="#161616"/>
</g>
<defs>
<clipPath id="clip0">
<rect width="20" height="20" fill="white"/>
</clipPath>
</defs>
</svg>
