<svg width="20" height="22" viewBox="0 0 20 22" fill="none" xmlns="http://www.w3.org/2000/svg">
<rect width="18.8235" height="21.1765" rx="5" fill="#EF3340"/>
<path d="M5.31124 4.09066L5.31124 12.49C4.6254 12.7209 4.12988 13.3696 4.12988 14.1323C4.12988 14.895 4.6254 15.5438 5.31124 15.7747V17.0857C5.31124 17.3903 5.55816 17.6372 5.86271 17.6372C6.16727 17.6372 6.41419 17.3903 6.41419 17.0857V15.7746C7.10003 15.5437 7.59555 14.895 7.59555 14.1323C7.59555 13.3696 7.10003 12.7208 6.41419 12.4899L6.41419 4.09062C6.41419 3.78607 6.16727 3.53916 5.86271 3.53916C5.55816 3.53916 5.31124 3.78607 5.31124 4.09066ZM6.4926 14.1323C6.4926 14.4796 6.21003 14.7622 5.86271 14.7622C5.5154 14.7622 5.23282 14.4796 5.23282 14.1323C5.23282 13.785 5.5154 13.5024 5.86271 13.5024C6.21003 13.5024 6.4926 13.785 6.4926 14.1323Z" fill="white"/>
<path d="M9.29977 4.09066V5.40176C8.61392 5.63268 8.11841 6.28144 8.11841 7.04412C8.11841 7.8068 8.61392 8.45552 9.29977 8.68643V17.0857C9.29977 17.3903 9.54668 17.6372 9.85124 17.6372C10.1558 17.6372 10.4027 17.3903 10.4027 17.0857V8.68643C11.0886 8.45552 11.5841 7.80677 11.5841 7.04408C11.5841 6.2814 11.0886 5.63265 10.4027 5.40173V4.09062C10.4027 3.78607 10.1558 3.53916 9.85124 3.53916C9.54668 3.53916 9.29977 3.78607 9.29977 4.09066ZM10.4811 7.04408C10.4811 7.3914 10.1986 7.67397 9.85124 7.67397C9.50392 7.67397 9.22135 7.3914 9.22135 7.04408C9.22135 6.69677 9.50392 6.41419 9.85124 6.41419C10.1986 6.41419 10.4811 6.69677 10.4811 7.04408Z" fill="white"/>
<path d="M13.2883 4.09066V10.1272C12.6024 10.3581 12.1069 11.0068 12.1069 11.7696C12.1069 12.5323 12.6024 13.181 13.2883 13.4119V17.0857C13.2883 17.3903 13.5352 17.6372 13.8398 17.6372C14.1443 17.6372 14.3912 17.3903 14.3912 17.0857V13.4119C15.0771 13.181 15.5726 12.5323 15.5726 11.7696C15.5726 11.0068 15.0771 10.3581 14.3912 10.1272V4.09062C14.3912 3.78607 14.1443 3.53916 13.8398 3.53916C13.5352 3.53916 13.2883 3.78607 13.2883 4.09066ZM14.4697 11.7696C14.4697 12.1169 14.1871 12.3994 13.8398 12.3994C13.4925 12.3994 13.2099 12.1169 13.2099 11.7696C13.2099 11.4222 13.4924 11.1397 13.8398 11.1397C14.1871 11.1397 14.4697 11.4222 14.4697 11.7696Z" fill="white"/>
</svg>
