<svg width="16" height="16" viewBox="0 0 16 16" fill="none" xmlns="http://www.w3.org/2000/svg">
<g opacity="0.25">
<path d="M15 4.49014H11.836C12.063 4.33514 12.258 4.18114 12.394 4.04314C13.2 3.23214 13.2 1.91214 12.394 1.10114C11.611 0.313141 10.245 0.312141 9.461 1.10114C9.028 1.53614 7.877 3.30714 8.036 4.49014H7.964C8.122 3.30714 6.972 1.53614 6.539 1.10114C5.755 0.312141 4.389 0.313141 3.606 1.10114C2.8 1.91214 2.8 3.23214 3.605 4.04314C3.742 4.18114 3.937 4.33514 4.164 4.49014H1C0.449 4.49014 0 4.93914 0 5.49014V7.99014C0 8.26614 0.224 8.49014 0.5 8.49014H1V14.4901C1 15.0411 1.449 15.4901 2 15.4901H14C14.551 15.4901 15 15.0411 15 14.4901V8.49014H15.5C15.776 8.49014 16 8.26614 16 7.99014V5.49014C16 4.93914 15.551 4.49014 15 4.49014ZM4.315 1.80614C4.518 1.60214 4.787 1.49014 5.073 1.49014C5.358 1.49014 5.627 1.60214 5.83 1.80614C6.504 2.48414 7.174 4.21614 6.941 4.45714C6.941 4.45714 6.899 4.49014 6.756 4.49014C6.065 4.49014 4.746 3.77214 4.315 3.33814C3.896 2.91614 3.896 2.22814 4.315 1.80614ZM7.5 14.4901H2V8.49014H7.5V14.4901ZM7.5 7.49014H1V5.49014H6.756H7.5V7.49014ZM10.17 1.80614C10.576 1.39914 11.28 1.40014 11.685 1.80614C12.104 2.22814 12.104 2.91614 11.685 3.33814C11.254 3.77214 9.935 4.49014 9.244 4.49014C9.101 4.49014 9.059 4.45814 9.058 4.45714C8.826 4.21614 9.496 2.48414 10.17 1.80614ZM14 14.4901H8.5V8.49014H14V14.4901ZM15 7.49014H8.5V5.49014H9.244H15V7.49014Z" fill="black"/>
</g>
</svg>
