<svg width="25" height="25" viewBox="0 0 25 25" fill="none" xmlns="http://www.w3.org/2000/svg">
<g clip-path="url(#clip0_2724_2700)">
<path d="M9.89584 4.68737H6.86459C6.60576 4.31208 6.4253 3.88844 6.33401 3.44178C6.24273 2.99512 6.2425 2.53464 6.33334 2.08789C8.31251 2.12331 9.89584 3.55091 9.89584 4.68737Z" fill="#8F4CD6"/>
<path d="M18.6667 2.08691C18.7577 2.53382 18.7575 2.9945 18.6662 3.44135C18.5749 3.88819 18.3944 4.31202 18.1354 4.68743H15.1042C15.1042 3.55098 16.6875 2.12337 18.6667 2.08691Z" fill="#8F4CD6"/>
<path d="M9.89581 4.68721C9.89581 3.55179 8.31248 2.12419 6.33331 2.08773C6.41837 1.72682 6.60234 1.39676 6.86456 1.1346C7.8906 0.108562 9.84373 0.400229 11.2344 1.78565C11.9992 2.51239 12.4528 3.50716 12.5 4.56117C12.5 4.60283 12.4948 4.6445 12.4948 4.68617L9.89581 4.68721Z" fill="#D2A0F5"/>
<path d="M18.6667 2.08669C16.6875 2.12315 15.1042 3.55075 15.1042 4.68721H12.5052C12.5052 4.64554 12.5 4.60388 12.5 4.56221C12.5469 3.50783 13.0005 2.51265 13.7656 1.78565C15.1562 0.400229 17.1094 0.108562 18.1354 1.1346C18.3975 1.39648 18.5814 1.72615 18.6667 2.08669Z" fill="#D2A0F5"/>
<path d="M6.86456 1.13356C6.60234 1.39572 6.41837 1.72578 6.33331 2.08668C6.36873 2.08668 6.40258 2.09189 6.43748 2.09345C7.48435 1.17106 9.36248 1.48095 10.713 2.82627C11.2363 3.34371 11.6225 3.98324 11.837 4.6872H12.4948C12.4948 4.64554 12.5 4.60387 12.5 4.5622C12.4531 3.50783 11.9995 2.51264 11.2344 1.78564C9.84373 0.399184 7.8906 0.107518 6.86456 1.13356Z" fill="#EBCCFF"/>
<path d="M18.562 2.09352C18.5974 2.09352 18.6313 2.08779 18.6661 2.08675C18.5811 1.72584 18.3971 1.39579 18.1349 1.13363C17.1094 0.107586 15.1563 0.399252 13.7656 1.78467C13.0005 2.51167 12.5469 3.50686 12.5 4.56123C12.5 4.6029 12.5052 4.64457 12.5052 4.68623H13.163C13.3775 3.98269 13.7635 3.34354 14.2865 2.82634C15.637 1.48102 17.5151 1.17113 18.562 2.09352Z" fill="#EBCCFF"/>
<path d="M12.5052 4.68652H15.1041V8.85319H14.5833H10.4166H9.89581V4.68652H12.4948H12.5052Z" fill="#D2A0F5"/>
<path d="M24.4792 7.8125C24.4784 8.08851 24.3684 8.35299 24.1732 8.54816C23.978 8.74333 23.7135 8.85334 23.4375 8.85417H15.1042V4.6875H23.4375C23.7135 4.68832 23.978 4.79834 24.1732 4.99351C24.3684 5.18868 24.4784 5.45315 24.4792 5.72917V7.8125Z" fill="#BDF052"/>
<path d="M9.89581 4.6875V8.85417H1.56248C1.28647 8.85334 1.02199 8.74333 0.826821 8.54816C0.631649 8.35299 0.521637 8.08851 0.520813 7.8125V5.72917C0.521637 5.45315 0.631649 5.18868 0.826821 4.99351C1.02199 4.79834 1.28647 4.68832 1.56248 4.6875H9.89581Z" fill="#BDF052"/>
<path d="M12.5052 4.68652H15.1041V8.85319H14.5833H10.4166H9.89581V4.68652H12.4948H12.5052Z" fill="#D2A0F5"/>
<path d="M24.4792 7.8125C24.4784 8.08851 24.3684 8.35299 24.1732 8.54816C23.978 8.74333 23.7135 8.85334 23.4375 8.85417H15.1042V4.6875H23.4375C23.7135 4.68832 23.978 4.79834 24.1732 4.99351C24.3684 5.18868 24.4784 5.45315 24.4792 5.72917V7.8125Z" fill="#BDF052"/>
<path d="M9.89581 4.6875V8.85417H1.56248C1.28647 8.85334 1.02199 8.74333 0.826821 8.54816C0.631649 8.35299 0.521637 8.08851 0.520813 7.8125V5.72917C0.521637 5.45315 0.631649 5.18868 0.826821 4.99351C1.02199 4.79834 1.28647 4.68832 1.56248 4.6875H9.89581Z" fill="#BDF052"/>
<path d="M23.4375 7.8125H16.1459V4.6875H15.1042V8.85417H23.4375C23.7135 8.85334 23.978 8.74333 24.1732 8.54816C24.3684 8.35299 24.4784 8.08851 24.4792 7.8125V6.77083C24.4784 7.04685 24.3684 7.31132 24.1732 7.50649C23.978 7.70166 23.7135 7.81168 23.4375 7.8125Z" fill="#A7E340"/>
<path d="M8.85415 7.8125H1.56248C1.28647 7.81168 1.02199 7.70166 0.826821 7.50649C0.631649 7.31132 0.521637 7.04685 0.520813 6.77083V7.8125C0.521637 8.08851 0.631649 8.35299 0.826821 8.54816C1.02199 8.74333 1.28647 8.85334 1.56248 8.85417H9.89581V4.6875H8.85415V7.8125Z" fill="#A7E340"/>
<path d="M12.4948 6.24902H12.5052H15.1041V4.68652H12.5052H12.4948H9.89581V6.24902H12.4948Z" fill="#EBCCFF"/>
<path d="M23.4375 4.6875H15.1042V6.25H23.4375C23.7135 6.25082 23.978 6.36084 24.1732 6.55601C24.3684 6.75118 24.4784 7.01565 24.4792 7.29167V5.72917C24.4784 5.45315 24.3684 5.18868 24.1732 4.99351C23.978 4.79834 23.7135 4.68832 23.4375 4.6875Z" fill="#E2FF9C"/>
<path d="M1.56248 6.25H9.89581V4.6875H1.56248C1.28647 4.68832 1.02199 4.79834 0.826821 4.99351C0.631649 5.18868 0.521637 5.45315 0.520813 5.72917V7.29167C0.521637 7.01565 0.631649 6.75118 0.826821 6.55601C1.02199 6.36084 1.28647 6.25082 1.56248 6.25Z" fill="#E2FF9C"/>
<path d="M16.1459 4.68652H15.1042V6.24902H16.1459V4.68652Z" fill="#BDF052"/>
<path d="M9.89585 4.68652H8.85419V6.24902H9.89585V4.68652Z" fill="#BDF052"/>
<path d="M15.1041 7.81152H9.89581V8.85319H15.1041V7.81152Z" fill="#C78FF5"/>
<path d="M6.33334 2.08691C6.2391 2.476 6.2295 2.88078 6.30522 3.27389C6.31459 3.22546 6.32084 3.17598 6.33334 3.1291C6.9453 3.13468 7.5482 3.2776 8.09754 3.54731C8.64689 3.81702 9.12866 4.20665 9.5073 4.68743H9.89584C9.89584 3.55098 8.31251 2.12337 6.33334 2.08691Z" fill="#7A3EB5"/>
<path d="M18.6667 3.1291C18.6792 3.17598 18.6854 3.22546 18.6948 3.27389C18.7705 2.88078 18.7609 2.476 18.6667 2.08691C16.6875 2.12337 15.1042 3.55098 15.1042 4.68743H15.4927C15.8714 4.20665 16.3531 3.81702 16.9025 3.54731C17.4518 3.2776 18.0547 3.13468 18.6667 3.1291Z" fill="#7A3EB5"/>
<path d="M9.50726 3.64551C9.74126 3.94426 9.87699 4.30815 9.89581 4.68717H11.837C11.726 4.3197 11.5651 3.96921 11.3588 3.64551H9.50726Z" fill="#C78FF5"/>
<path d="M13.163 4.68717H15.1042C15.123 4.30815 15.2587 3.94426 15.4927 3.64551H13.6411C13.4348 3.96921 13.274 4.3197 13.163 4.68717Z" fill="#C78FF5"/>
<path d="M11.3588 3.64551C11.5651 3.96921 11.726 4.3197 11.8369 4.68717H12.4948C12.4948 4.64551 12.5 4.60384 12.5 4.56217C12.4963 4.25142 12.4484 3.94277 12.3578 3.64551H11.3588Z" fill="#D2A0F5"/>
<path d="M12.6422 3.64557C12.5516 3.9425 12.5038 4.25079 12.5 4.5612C12.5 4.60286 12.5052 4.64453 12.5052 4.6862H13.163C13.274 4.31873 13.4348 3.96823 13.6411 3.64453L12.6422 3.64557Z" fill="#D2A0F5"/>
<path d="M14.5834 8.85254H10.4167V24.4786H14.5834V8.85254Z" fill="#8F4CD6"/>
<path d="M10.4166 8.85352V24.4785H3.12498C2.84897 24.4777 2.58449 24.3677 2.38932 24.1725C2.19415 23.9773 2.08414 23.7129 2.08331 23.4368V8.85352H10.4166Z" fill="#FFA1C8"/>
<path d="M15.1041 8.85352H22.9166V23.4368C22.9158 23.7129 22.8058 23.9773 22.6106 24.1725C22.4155 24.3677 22.151 24.4777 21.875 24.4785H14.5833V8.85352H15.1041Z" fill="#FFA1C8"/>
<path d="M10.4166 8.85254H2.08331V10.415H10.4166V8.85254Z" fill="#FF5F96"/>
<path d="M22.9166 8.85254H14.5833V10.415H22.9166V8.85254Z" fill="#FF5F96"/>
<path d="M14.5834 8.85254H10.4167V10.415H14.5834V8.85254Z" fill="#7A3EB5"/>
<path d="M15.625 8.85254H14.5833V10.415H15.625V8.85254Z" fill="#D72878"/>
<path d="M15.625 10.415H14.5833V24.4786H15.625V10.415Z" fill="#FF8FB8"/>
<path d="M10.4167 8.85254H9.375V10.415H10.4167V8.85254Z" fill="#D72878"/>
<path d="M10.4167 10.415H9.375V24.4786H10.4167V10.415Z" fill="#FF8FB8"/>
<path d="M14.5834 22.916H10.4167V24.4785H14.5834V22.916Z" fill="#7A3EB5"/>
<path d="M3.12498 22.9167C2.84897 22.9158 2.58449 22.8058 2.38932 22.6107C2.19415 22.4155 2.08414 22.151 2.08331 21.875V23.4375C2.08414 23.7135 2.19415 23.978 2.38932 24.1732C2.58449 24.3683 2.84897 24.4783 3.12498 24.4792H10.4166V22.9167H3.12498Z" fill="#FF73A5"/>
<path d="M21.875 22.9167H14.5833V24.4792H21.875C22.151 24.4783 22.4155 24.3683 22.6106 24.1732C22.8058 23.978 22.9158 23.7135 22.9166 23.4375V21.875C22.9158 22.151 22.8058 22.4155 22.6106 22.6107C22.4155 22.8058 22.151 22.9158 21.875 22.9167Z" fill="#FF73A5"/>
<path d="M10.4167 18.0811C11.7026 19.012 13.103 19.7735 14.5834 20.3467V10.416H10.4167V18.0811Z" fill="#A260E5"/>
<path d="M5.33905 10.416C5.84152 13.0955 7.27014 15.5131 9.37499 17.2457V10.416H5.33905Z" fill="#FFB9D5"/>
<path d="M15.625 20.7212C17.9783 21.493 20.4401 21.8823 22.9167 21.8743V10.416H15.625V20.7212Z" fill="#FFB9D5"/>
<path d="M14.5833 20.3467C14.9234 20.4801 15.2719 20.604 15.625 20.7212V10.416H14.5833V20.3467Z" fill="#FFA1C8"/>
<path d="M10.4167 10.416H9.375V17.2457C9.70625 17.5348 10.0521 17.8145 10.4167 18.079V10.416Z" fill="#FFA1C8"/>
<path d="M21.0938 5.20801H18.4896C18.3458 5.20801 18.2292 5.3246 18.2292 5.46842C18.2292 5.61225 18.3458 5.72884 18.4896 5.72884H21.0938C21.2376 5.72884 21.3542 5.61225 21.3542 5.46842C21.3542 5.3246 21.2376 5.20801 21.0938 5.20801Z" fill="#BDF052"/>
<path d="M21.6146 5.46842C21.6146 5.53749 21.642 5.60373 21.6908 5.65257C21.7397 5.7014 21.8059 5.72884 21.875 5.72884H22.3958C22.4649 5.72884 22.5311 5.7014 22.58 5.65257C22.6288 5.60373 22.6562 5.53749 22.6562 5.46842C22.6562 5.39936 22.6288 5.33312 22.58 5.28428C22.5311 5.23544 22.4649 5.20801 22.3958 5.20801H21.875C21.8059 5.20801 21.7397 5.23544 21.6908 5.28428C21.642 5.33312 21.6146 5.39936 21.6146 5.46842Z" fill="#BDF052"/>
<path d="M12.7604 23.4375H11.1979C11.0541 23.4375 10.9375 23.5541 10.9375 23.6979C10.9375 23.8417 11.0541 23.9583 11.1979 23.9583H12.7604C12.9042 23.9583 13.0208 23.8417 13.0208 23.6979C13.0208 23.5541 12.9042 23.4375 12.7604 23.4375Z" fill="#8F4CD6"/>
<path d="M13.2812 23.6979C13.2812 23.767 13.3087 23.8332 13.3575 23.8821C13.4064 23.9309 13.4726 23.9583 13.5417 23.9583H14.0625C14.1316 23.9583 14.1978 23.9309 14.2466 23.8821C14.2955 23.8332 14.3229 23.767 14.3229 23.6979C14.3229 23.6289 14.2955 23.5626 14.2466 23.5138C14.1978 23.4649 14.1316 23.4375 14.0625 23.4375H13.5417C13.4726 23.4375 13.4064 23.4649 13.3575 23.5138C13.3087 23.5626 13.2812 23.6289 13.2812 23.6979Z" fill="#8F4CD6"/>
<path d="M13.2813 5.20801H10.6771C10.5333 5.20801 10.4167 5.3246 10.4167 5.46842C10.4167 5.61225 10.5333 5.72884 10.6771 5.72884H13.2813C13.4251 5.72884 13.5417 5.61225 13.5417 5.46842C13.5417 5.3246 13.4251 5.20801 13.2813 5.20801Z" fill="#F5E1FF"/>
<path d="M13.8021 5.46842C13.8021 5.53749 13.8295 5.60373 13.8783 5.65257C13.9272 5.7014 13.9934 5.72884 14.0625 5.72884H14.5833C14.6524 5.72884 14.7186 5.7014 14.7675 5.65257C14.8163 5.60373 14.8437 5.53749 14.8437 5.46842C14.8437 5.39936 14.8163 5.33312 14.7675 5.28428C14.7186 5.23544 14.6524 5.20801 14.5833 5.20801H14.0625C13.9934 5.20801 13.9272 5.23544 13.8783 5.28428C13.8295 5.33312 13.8021 5.39936 13.8021 5.46842Z" fill="#F5E1FF"/>
<path d="M14.8438 23.6979C14.8438 23.8417 14.9312 23.9583 15.0391 23.9583H20.8984C21.0062 23.9583 21.0938 23.8417 21.0938 23.6979C21.0938 23.5542 21.0062 23.4375 20.8984 23.4375H15.0391C14.9312 23.4375 14.8438 23.5542 14.8438 23.6979Z" fill="#FF468C"/>
<path d="M21.6146 23.6979C21.6146 23.767 21.642 23.8332 21.6908 23.8821C21.7397 23.9309 21.8059 23.9583 21.875 23.9583H22.3958C22.4649 23.9583 22.5311 23.9309 22.58 23.8821C22.6288 23.8332 22.6562 23.767 22.6562 23.6979C22.6562 23.6289 22.6288 23.5626 22.58 23.5138C22.5311 23.4649 22.4649 23.4375 22.3958 23.4375H21.875C21.8059 23.4375 21.7397 23.4649 21.6908 23.5138C21.642 23.5626 21.6146 23.6289 21.6146 23.6979Z" fill="#FF468C"/>
<path d="M21.6774 15.9386C22.0113 15.6045 21.9048 14.9569 21.4397 14.4921C20.9746 14.0273 20.3269 13.9213 19.993 14.2554C19.6591 14.5895 19.7656 15.2372 20.2307 15.702C20.6958 16.1668 21.3435 16.2727 21.6774 15.9386Z" fill="#F6FAFD"/>
<path d="M21.2562 12.9222C21.424 12.7543 21.3706 12.429 21.137 12.1956C20.9034 11.9622 20.5781 11.9091 20.4104 12.0769C20.2426 12.2448 20.296 12.5701 20.5296 12.8035C20.7632 13.0369 21.0885 13.0901 21.2562 12.9222Z" fill="#F6FAFD"/>
<path d="M16.5686 1.9847C16.7364 1.81684 16.683 1.49154 16.4494 1.25812C16.2158 1.0247 15.8905 0.971556 15.7227 1.13942C15.555 1.30728 15.6084 1.63258 15.8419 1.866C16.0755 2.09942 16.4009 2.15257 16.5686 1.9847Z" fill="#F6FAFD"/>
<path d="M17.2663 1.51268C17.3502 1.42864 17.3236 1.26591 17.2069 1.1492C17.0901 1.03249 16.9273 1.006 16.8433 1.09003C16.7594 1.17407 16.786 1.3368 16.9028 1.45351C17.0195 1.57022 17.1823 1.59671 17.2663 1.51268Z" fill="#F6FAFD"/>
<path d="M23.5163 5.67967C23.6003 5.59564 23.5737 5.4329 23.4569 5.31619C23.3401 5.19948 23.1774 5.17299 23.0934 5.25703C23.0094 5.34106 23.036 5.50379 23.1528 5.6205C23.2696 5.73721 23.4324 5.7637 23.5163 5.67967Z" fill="#F6FAFD"/>
<path d="M23.4375 4.16633H22.3958V5.20799H23.4375C23.5756 5.20799 23.7081 5.26287 23.8058 5.36054C23.9035 5.45822 23.9583 5.59069 23.9583 5.72883V7.81216C23.9583 7.95029 23.9035 8.08277 23.8058 8.18044C23.7081 8.27812 23.5756 8.33299 23.4375 8.33299H15.625V5.20799H21.3542V4.16633H18.975C19.4833 2.88664 19.3312 1.58976 18.5063 0.764762C17.2786 -0.463363 14.9875 -0.169092 13.4021 1.41945C13.0435 1.77601 12.7396 2.18352 12.5 2.62882C12.2609 2.18401 11.9581 1.77656 11.601 1.41945C10.013 -0.169613 7.72135 -0.463363 6.49375 0.764762C5.66875 1.58976 5.51667 2.88664 6.025 4.16633H1.5625C1.1481 4.16633 0.750671 4.33095 0.457646 4.62397C0.16462 4.917 0 5.31442 0 5.72883L0 7.81216C0 8.22656 0.16462 8.62399 0.457646 8.91701C0.750671 9.21004 1.1481 9.37466 1.5625 9.37466V10.4163H2.60417V9.37466H9.89583V23.958H3.125C2.98687 23.958 2.85439 23.9031 2.75672 23.8054C2.65904 23.7078 2.60417 23.5753 2.60417 23.4372V11.458H1.5625V23.4372C1.5625 23.8516 1.72712 24.249 2.02015 24.542C2.31317 24.835 2.7106 24.9997 3.125 24.9997H21.875C22.2894 24.9997 22.6868 24.835 22.9799 24.542C23.2729 24.249 23.4375 23.8516 23.4375 23.4372V22.3955H22.3958V23.4372C22.3958 23.5753 22.341 23.7078 22.2433 23.8054C22.1456 23.9031 22.0131 23.958 21.875 23.958H15.1042V22.9163H14.0625V23.958H10.9375V9.37466H14.0625V19.7913H15.1042V9.37466H22.3958V21.3538H23.4375V9.37466C23.8519 9.37466 24.2493 9.21004 24.5424 8.91701C24.8354 8.62399 25 8.22656 25 7.81216V5.72883C25 5.31442 24.8354 4.917 24.5424 4.62397C24.2493 4.33095 23.8519 4.16633 23.4375 4.16633ZM17.838 4.16633H15.775C16.0449 3.74716 16.4044 3.39315 16.8278 3.12987C17.2511 2.8666 17.7276 2.70062 18.2229 2.64393C18.2304 3.17638 18.0977 3.70143 17.838 4.16633ZM9.375 8.33299H1.5625C1.42437 8.33299 1.29189 8.27812 1.19422 8.18044C1.09654 8.08277 1.04167 7.95029 1.04167 7.81216V5.72883C1.04167 5.59069 1.09654 5.45822 1.19422 5.36054C1.29189 5.26287 1.42437 5.20799 1.5625 5.20799H9.375V8.33299ZM6.77656 2.64393C7.27194 2.70054 7.74857 2.86649 8.17199 3.12977C8.59542 3.39305 8.95509 3.74709 9.225 4.16633H7.16198C6.90239 3.70137 6.76948 3.17639 6.77656 2.64393ZM7.11875 1.6408C7.15284 1.59191 7.19008 1.54529 7.23021 1.50122C8.05208 0.680387 9.68177 0.973616 10.8646 2.15591C11.4264 2.69674 11.8052 3.39964 11.9479 4.16633H10.3401C10.0286 3.05487 8.77083 1.94028 7.11875 1.6408ZM14.5833 8.33299H10.4167V5.20799H14.5833V8.33299ZM14.6599 4.16633H13.0521C13.1948 3.39964 13.5736 2.69674 14.1354 2.15591C15.3182 0.973616 16.9479 0.680387 17.7693 1.50122C17.8097 1.54515 17.8471 1.59178 17.8813 1.6408C16.2292 1.94028 14.9714 3.05539 14.6599 4.16633Z" fill="black"/>
<path d="M15.1042 20.833H14.0625V21.8747H15.1042V20.833Z" fill="black"/>
</g>
<defs>
<clipPath id="clip0_2724_2700">
<rect width="25" height="25" fill="white"/>
</clipPath>
</defs>
</svg>
