<svg width="10" height="12" viewBox="0 0 10 12" fill="none" xmlns="http://www.w3.org/2000/svg">
<path d="M4.99999 5.90213C6.36732 5.90213 7.47474 4.69301 7.47474 3.21268C7.47474 1.75495 6.36732 0.59668 4.99999 0.59668C3.63831 0.59668 2.51959 1.7719 2.52524 3.22398C2.53089 4.69866 3.63266 5.90213 4.99999 5.90213ZM4.99999 4.91336C4.22028 4.91336 3.55921 4.1732 3.55921 3.22398C3.55356 2.29736 4.21463 1.58545 4.99999 1.58545C5.79101 1.58545 6.44077 2.28606 6.44077 3.21268C6.44077 4.1619 5.78536 4.91336 4.99999 4.91336ZM1.47432 11.1567H8.52001C9.49748 11.1567 9.96644 10.846 9.96644 10.1793C9.96644 8.62549 8.02845 6.55755 4.99999 6.55755C1.97153 6.55755 0.0278931 8.62549 0.0278931 10.1793C0.0278931 10.846 0.496852 11.1567 1.47432 11.1567ZM1.29917 10.168C1.16357 10.168 1.11271 10.1228 1.11271 10.0211C1.11271 9.1566 2.50829 7.54632 4.99999 7.54632C7.48604 7.54632 8.88162 9.1566 8.88162 10.0211C8.88162 10.1228 8.83077 10.168 8.69516 10.168H1.29917Z" fill="#393939"/>
</svg>
