<svg width="15" height="12" viewBox="0 0 20 18" fill="none" xmlns="http://www.w3.org/2000/svg">
<path d="M17.3666 2.84124C16.941 2.41541 16.4356 2.07761 15.8794 1.84714C15.3232 1.61667 14.727 1.49805 14.1249 1.49805C13.5229 1.49805 12.9267 1.61667 12.3705 1.84714C11.8143 2.07761 11.3089 2.41541 10.8833 2.84124L9.99994 3.72457L9.1166 2.84124C8.25686 1.98149 7.0908 1.49849 5.87494 1.49849C4.65908 1.49849 3.49301 1.98149 2.63327 2.84124C1.77353 3.70098 1.29053 4.86704 1.29053 6.0829C1.29053 7.29876 1.77353 8.46483 2.63327 9.32457L3.5166 10.2079L9.99994 16.6912L16.4833 10.2079L17.3666 9.32457C17.7924 8.89894 18.1302 8.39358 18.3607 7.83736C18.5912 7.28115 18.7098 6.68497 18.7098 6.0829C18.7098 5.48083 18.5912 4.88465 18.3607 4.32844C18.1302 3.77222 17.7924 3.26686 17.3666 2.84124V2.84124Z" stroke="#161616" stroke-width="2" stroke-linecap="round" stroke-linejoin="round"/>
</svg>
