<svg width="21" height="21" viewBox="0 0 21 21" fill="none" xmlns="http://www.w3.org/2000/svg">
<circle cx="10.5" cy="10.5" r="10" fill="#EF3340" stroke="white"/>
<path d="M6.93359 13H8.11328V7.36328H6.9375L5.48047 8.36719V9.46484L6.86328 8.51172H6.93359V13ZM9.45328 9.05078V9.07031H10.547V9.04688C10.547 8.52734 10.922 8.16797 11.4689 8.16797C11.9845 8.16797 12.3517 8.48828 12.3517 8.94141C12.3517 9.30859 12.1525 9.60156 11.3595 10.375L9.51969 12.1758V13H13.5861V12.0195H11.1173V11.9492L12.1955 10.9219C13.172 10.0039 13.5041 9.47656 13.5041 8.86328C13.5041 7.89453 12.6837 7.21875 11.508 7.21875C10.2892 7.21875 9.45328 7.96094 9.45328 9.05078Z" fill="white"/>
</svg>
