<svg width="13" height="13" viewBox="0 0 13 13" fill="none" xmlns="http://www.w3.org/2000/svg">
<g opacity="0.85">
<path d="M5.41675 7.04148C5.64937 7.35247 5.94615 7.60979 6.28696 7.79599C6.62778 7.98219 7.00465 8.09292 7.39202 8.12066C7.77939 8.14841 8.16819 8.09252 8.53206 7.95678C8.89593 7.82105 9.22635 7.60865 9.50092 7.33398L11.1259 5.70898C11.6193 5.19819 11.8922 4.51406 11.8861 3.80394C11.8799 3.09382 11.5951 2.41454 11.0929 1.91239C10.5908 1.41025 9.91149 1.12541 9.20138 1.11924C8.49126 1.11307 7.80713 1.38606 7.29633 1.8794L6.36466 2.80565" stroke="#161616" stroke-linecap="round" stroke-linejoin="round"/>
<path d="M7.58344 5.95817C7.35082 5.64718 7.05404 5.38986 6.71323 5.20366C6.37241 5.01746 5.99554 4.90673 5.60817 4.87899C5.2208 4.85125 4.832 4.90714 4.46813 5.04287C4.10426 5.17861 3.77384 5.39101 3.49927 5.66567L1.87427 7.29067C1.38093 7.80147 1.10795 8.4856 1.11412 9.19572C1.12029 9.90583 1.40512 10.5851 1.90727 11.0873C2.40941 11.5894 3.0887 11.8742 3.79881 11.8804C4.50893 11.8866 5.19306 11.6136 5.70386 11.1203L6.63011 10.194" stroke="#161616" stroke-linecap="round" stroke-linejoin="round"/>
</g>
</svg>
