<svg width="18" height="18" viewBox="0 0 18 18" fill="none" xmlns="http://www.w3.org/2000/svg">
<path d="M15.2526 6.45614L16.6521 7.85568C17.3004 8.50399 17.3004 9.55851 16.6521 10.2068L15.2526 11.6064C15.111 11.7479 14.9254 11.8187 14.7399 11.8187C14.5545 11.8187 14.3688 11.7479 14.2273 11.6064M15.2526 6.45614L14.298 11.5356M15.2526 6.45614C14.9694 6.17297 14.5104 6.17294 14.2273 6.45613M15.2526 6.45614L14.2273 6.45613M14.2273 11.6064L14.298 11.5356M14.2273 11.6064C14.2273 11.6064 14.2273 11.6064 14.2273 11.6064L14.298 11.5356M14.2273 11.6064C13.9441 11.3233 13.9441 10.8642 14.2273 10.5811L14.298 10.6519C14.0538 10.8959 14.0538 11.2916 14.298 11.5356M15.0521 9.75625L14.2273 10.5811L15.1935 9.75625H15.0521ZM15.0521 9.75625H7.78906C7.38862 9.75625 7.06406 9.43169 7.06406 9.03125C7.06406 8.63081 7.38862 8.30625 7.78906 8.30625H15.0521M15.0521 9.75625L15.152 9.65625H7.78906C7.44385 9.65625 7.16406 9.37646 7.16406 9.03125C7.16406 8.68603 7.44385 8.40625 7.78906 8.40625L15.0521 8.30625M15.0521 8.30625L14.2273 7.48137C14.2273 7.48137 14.2273 7.48136 14.2273 7.48135C13.9441 7.19829 13.9441 6.73923 14.2272 6.45616C14.2273 6.45615 14.2273 6.45614 14.2273 6.45613M15.0521 8.30625L14.298 6.52685L14.2273 6.45613M12.4203 14.5V13.25C12.4203 12.8496 12.0958 12.525 11.6953 12.525C11.2949 12.525 10.9703 12.8496 10.9703 13.25V14.5C10.9703 15.134 10.4543 15.65 9.82031 15.65H3.53906C2.90508 15.65 2.38906 15.134 2.38906 14.5V3.5C2.38906 2.86602 2.90508 2.35 3.53906 2.35H9.82031C10.4543 2.35 10.9703 2.86602 10.9703 3.5V4.75C10.9703 5.15044 11.2949 5.475 11.6953 5.475C12.0958 5.475 12.4203 5.15044 12.4203 4.75V3.5C12.4203 2.06623 11.2541 0.9 9.82031 0.9H3.53906C2.10529 0.9 0.939062 2.06623 0.939062 3.5V14.5C0.939062 15.9338 2.10529 17.1 3.53906 17.1H9.82031C11.2541 17.1 12.4203 15.9338 12.4203 14.5Z" fill="#EF3340" stroke="#000000" stroke-width="0.2"/>
</svg>
