<svg width="20" height="20" viewBox="0 0 20 20" fill="none" xmlns="http://www.w3.org/2000/svg">
<rect width="20" height="20" fill="white"/>
<path d="M16.2526 7.45614L17.6521 8.85568C18.3004 9.50399 18.3004 10.5585 17.6521 11.2068L16.2526 12.6064C16.111 12.7479 15.9254 12.8187 15.7399 12.8187C15.5545 12.8187 15.3688 12.7479 15.2273 12.6064M16.2526 7.45614L15.298 12.5356M16.2526 7.45614C15.9694 7.17297 15.5104 7.17294 15.2273 7.45613M16.2526 7.45614L15.2273 7.45613M15.2273 12.6064L15.298 12.5356M15.2273 12.6064C15.2273 12.6064 15.2273 12.6064 15.2273 12.6064L15.298 12.5356M15.2273 12.6064C14.9441 12.3233 14.9441 11.8642 15.2273 11.5811L15.298 11.6519C15.0538 11.8959 15.0538 12.2916 15.298 12.5356M16.0521 10.7562L15.2273 11.5811L16.1935 10.7562H16.0521ZM16.0521 10.7562H8.78906C8.38862 10.7562 8.06406 10.4317 8.06406 10.0312C8.06406 9.63081 8.38862 9.30625 8.78906 9.30625H16.0521M16.0521 10.7562L16.152 10.6562H8.78906C8.44385 10.6562 8.16406 10.3765 8.16406 10.0312C8.16406 9.68603 8.44385 9.40625 8.78906 9.40625L16.0521 9.30625M16.0521 9.30625L15.2273 8.48137C15.2273 8.48137 15.2273 8.48136 15.2273 8.48135C14.9441 8.19829 14.9441 7.73923 15.2272 7.45616C15.2273 7.45615 15.2273 7.45614 15.2273 7.45613M16.0521 9.30625L15.298 7.52685L15.2273 7.45613M13.4203 15.5V14.25C13.4203 13.8496 13.0958 13.525 12.6953 13.525C12.2949 13.525 11.9703 13.8496 11.9703 14.25V15.5C11.9703 16.134 11.4543 16.65 10.8203 16.65H4.53906C3.90508 16.65 3.38906 16.134 3.38906 15.5V4.5C3.38906 3.86602 3.90508 3.35 4.53906 3.35H10.8203C11.4543 3.35 11.9703 3.86602 11.9703 4.5V5.75C11.9703 6.15044 12.2949 6.475 12.6953 6.475C13.0958 6.475 13.4203 6.15044 13.4203 5.75V4.5C13.4203 3.06623 12.2541 1.9 10.8203 1.9H4.53906C3.10529 1.9 1.93906 3.06623 1.93906 4.5V15.5C1.93906 16.9338 3.10529 18.1 4.53906 18.1H10.8203C12.2541 18.1 13.4203 16.9338 13.4203 15.5Z" fill="#EF3340" stroke="#EF3340" stroke-width="0.2"/>
</svg>
