<svg width="36" height="36" viewBox="0 0 36 36" fill="none" xmlns="http://www.w3.org/2000/svg">
<circle cx="18" cy="18" r="18" fill="#EF3340"/>
<path d="M26.0999 16.2006C26.0999 22.5006 17.9999 27.9006 17.9999 27.9006C17.9999 27.9006 9.8999 22.5006 9.8999 16.2006C9.8999 14.0523 10.7533 11.9921 12.2723 10.473C13.7914 8.95398 15.8516 8.10059 17.9999 8.10059C20.1482 8.10059 22.2084 8.95398 23.7275 10.473C25.2465 11.9921 26.0999 14.0523 26.0999 16.2006Z" fill="#FDCFCF"/>
<path d="M18.0001 18.9C19.4912 18.9 20.7001 17.6912 20.7001 16.2C20.7001 14.7088 19.4912 13.5 18.0001 13.5C16.5089 13.5 15.3 14.7088 15.3 16.2C15.3 17.6912 16.5089 18.9 18.0001 18.9Z" stroke="#EF3340" stroke-width="2" stroke-linecap="round" stroke-linejoin="round"/>
</svg>
