<svg width="30" height="30" viewBox="0 0 30 30" fill="none" xmlns="http://www.w3.org/2000/svg">
<circle cx="15" cy="15" r="15" fill="#DDDDDD"/>
<path d="M21.75 12.5C21.75 17.75 15 22.25 15 22.25C15 22.25 8.25 17.75 8.25 12.5C8.25 10.7098 8.96116 8.9929 10.227 7.72703C11.4929 6.46116 13.2098 5.75 15 5.75C16.7902 5.75 18.5071 6.46116 19.773 7.72703C21.0388 8.9929 21.75 10.7098 21.75 12.5Z" fill="#010101"/>
<path d="M15 14.75C16.2426 14.75 17.25 13.7426 17.25 12.5C17.25 11.2574 16.2426 10.25 15 10.25C13.7574 10.25 12.75 11.2574 12.75 12.5C12.75 13.7426 13.7574 14.75 15 14.75Z" stroke="#DDDDDD" stroke-width="2" stroke-linecap="round" stroke-linejoin="round"/>
</svg>
