<svg width="20" height="20" viewBox="0 0 20 20" fill="none" xmlns="http://www.w3.org/2000/svg">
<g opacity="0.6">
<path fill-rule="evenodd" clip-rule="evenodd" d="M4.9987 14.1665C5.21971 14.1665 5.43167 14.0787 5.58795 13.9224C5.74423 13.7661 5.83203 13.5542 5.83203 13.3332C5.83203 13.1122 5.74423 12.9002 5.58795 12.7439C5.43167 12.5876 5.21971 12.4998 4.9987 12.4998C4.77768 12.4998 4.56572 12.5876 4.40944 12.7439C4.25316 12.9002 4.16536 13.1122 4.16536 13.3332C4.16536 13.5542 4.25316 13.7661 4.40944 13.9224C4.56572 14.0787 4.77768 14.1665 4.9987 14.1665ZM4.9987 14.9998C5.44073 14.9998 5.86465 14.8242 6.17721 14.5117C6.48977 14.1991 6.66536 13.7752 6.66536 13.3332C6.66536 12.8911 6.48977 12.4672 6.17721 12.1547C5.86465 11.8421 5.44073 11.6665 4.9987 11.6665C4.55667 11.6665 4.13275 11.8421 3.82019 12.1547C3.50763 12.4672 3.33203 12.8911 3.33203 13.3332C3.33203 13.7752 3.50763 14.1991 3.82019 14.5117C4.13275 14.8242 4.55667 14.9998 4.9987 14.9998Z" fill="#161616"/>
<path fill-rule="evenodd" clip-rule="evenodd" d="M9.9987 9.16667C9.77953 9.16667 9.58203 9.33167 9.58203 9.55083V17.0833C9.58203 17.1938 9.62593 17.2998 9.70407 17.378C9.78221 17.4561 9.88819 17.5 9.9987 17.5C10.1092 17.5 10.2152 17.4561 10.2933 17.378C10.3715 17.2998 10.4154 17.1938 10.4154 17.0833V9.55083C10.4154 9.33167 10.2179 9.16667 9.9987 9.16667ZM10.4154 5.41667C10.4154 5.52717 10.3715 5.63315 10.2933 5.71129C10.2152 5.78943 10.1092 5.83333 9.9987 5.83333C9.88819 5.83333 9.78221 5.78943 9.70407 5.71129C9.62593 5.63315 9.58203 5.52717 9.58203 5.41667V2.91667C9.58203 2.80616 9.62593 2.70018 9.70407 2.62204C9.78221 2.5439 9.88819 2.5 9.9987 2.5C10.1092 2.5 10.2152 2.5439 10.2933 2.62204C10.3715 2.70018 10.4154 2.80616 10.4154 2.91667V5.41667Z" fill="#161616"/>
<path fill-rule="evenodd" clip-rule="evenodd" d="M14.9987 17.5C14.8882 17.5 14.7822 17.4561 14.7041 17.378C14.6259 17.2998 14.582 17.1938 14.582 17.0833V14.1342C14.582 13.915 14.7795 13.75 14.9987 13.75C15.2179 13.75 15.4154 13.915 15.4154 14.1342V17.0833C15.4154 17.1938 15.3715 17.2998 15.2933 17.378C15.2152 17.4561 15.1092 17.5 14.9987 17.5ZM14.582 10C14.582 10.1105 14.6259 10.2165 14.7041 10.2946C14.7822 10.3728 14.8882 10.4167 14.9987 10.4167C15.1092 10.4167 15.2152 10.3728 15.2933 10.2946C15.3715 10.2165 15.4154 10.1105 15.4154 10V2.91667C15.4154 2.80616 15.3715 2.70018 15.2933 2.62204C15.2152 2.5439 15.1092 2.5 14.9987 2.5C14.8882 2.5 14.7822 2.5439 14.7041 2.62204C14.6259 2.70018 14.582 2.80616 14.582 2.91667V10Z" fill="#161616"/>
<path fill-rule="evenodd" clip-rule="evenodd" d="M4.9987 17.5C4.88819 17.5 4.78221 17.4561 4.70407 17.378C4.62593 17.2998 4.58203 17.1938 4.58203 17.0833V16.2175C4.58203 15.9983 4.77953 15.8333 4.9987 15.8333C5.21786 15.8333 5.41536 15.9983 5.41536 16.2175V17.0833C5.41536 17.1938 5.37147 17.2998 5.29333 17.378C5.21519 17.4561 5.1092 17.5 4.9987 17.5ZM4.58203 11.6667C4.58203 11.7772 4.62593 11.8832 4.70407 11.9613C4.78221 12.0394 4.88819 12.0833 4.9987 12.0833C5.1092 12.0833 5.21519 12.0394 5.29333 11.9613C5.37147 11.8832 5.41536 11.7772 5.41536 11.6667V2.91667C5.41536 2.80616 5.37147 2.70018 5.29333 2.62204C5.21519 2.5439 5.1092 2.5 4.9987 2.5C4.88819 2.5 4.78221 2.5439 4.70407 2.62204C4.62593 2.70018 4.58203 2.80616 4.58203 2.91667V11.6667Z" fill="#161616"/>
<path fill-rule="evenodd" clip-rule="evenodd" d="M9.9987 7.5C10.2197 7.5 10.4317 7.4122 10.588 7.25592C10.7442 7.09964 10.832 6.88768 10.832 6.66667C10.832 6.44565 10.7442 6.23369 10.588 6.07741C10.4317 5.92113 10.2197 5.83333 9.9987 5.83333C9.77768 5.83333 9.56572 5.92113 9.40944 6.07741C9.25316 6.23369 9.16536 6.44565 9.16536 6.66667C9.16536 6.88768 9.25316 7.09964 9.40944 7.25592C9.56572 7.4122 9.77768 7.5 9.9987 7.5ZM9.9987 8.33333C10.4407 8.33333 10.8646 8.15774 11.1772 7.84518C11.4898 7.53262 11.6654 7.10869 11.6654 6.66667C11.6654 6.22464 11.4898 5.80072 11.1772 5.48816C10.8646 5.17559 10.4407 5 9.9987 5C9.55667 5 9.13275 5.17559 8.82019 5.48816C8.50763 5.80072 8.33203 6.22464 8.33203 6.66667C8.33203 7.10869 8.50763 7.53262 8.82019 7.84518C9.13275 8.15774 9.55667 8.33333 9.9987 8.33333Z" fill="#161616"/>
<path fill-rule="evenodd" clip-rule="evenodd" d="M14.9987 12.0835C15.2197 12.0835 15.4317 11.9957 15.588 11.8394C15.7442 11.6831 15.832 11.4712 15.832 11.2502C15.832 11.0291 15.7442 10.8172 15.588 10.6609C15.4317 10.5046 15.2197 10.4168 14.9987 10.4168C14.7777 10.4168 14.5657 10.5046 14.4094 10.6609C14.2532 10.8172 14.1654 11.0291 14.1654 11.2502C14.1654 11.4712 14.2532 11.6831 14.4094 11.8394C14.5657 11.9957 14.7777 12.0835 14.9987 12.0835ZM14.9987 12.9168C15.4407 12.9168 15.8646 12.7412 16.1772 12.4287C16.4898 12.1161 16.6654 11.6922 16.6654 11.2502C16.6654 10.8081 16.4898 10.3842 16.1772 10.0717C15.8646 9.75909 15.4407 9.5835 14.9987 9.5835C14.5567 9.5835 14.1327 9.75909 13.8202 10.0717C13.5076 10.3842 13.332 10.8081 13.332 11.2502C13.332 11.6922 13.5076 12.1161 13.8202 12.4287C14.1327 12.7412 14.5567 12.9168 14.9987 12.9168Z" fill="#161616"/>
</g>
</svg>
