<svg width="150" height="150" viewBox="0 0 150 150" fill="none" xmlns="http://www.w3.org/2000/svg">
<g clip-path="url(#clip0)">
<path d="M74.9988 149.998C116.42 149.998 149.998 116.42 149.998 74.9988C149.998 33.5781 116.42 0 74.9988 0C33.5781 0 0 33.5781 0 74.9988C0 116.42 33.5781 149.998 74.9988 149.998Z" fill="#FFDF47"/>
<path d="M150 75.0006C150 67.2062 148.81 59.6898 146.604 52.6225L115.218 21.2362C111.966 17.9851 106.647 17.9851 103.396 21.2362L38.2144 86.4173L24.7162 125.284L41.5935 142.162C51.6535 147.176 62.9967 150 75.0005 150C116.422 150 150 116.422 150 75.0006Z" fill="#FEC000"/>
<path d="M117.423 57.946L92.0544 32.5773L103.395 21.2362C106.647 17.9851 111.967 17.9851 115.218 21.2362L128.764 34.7824C132.015 38.0335 132.015 43.3535 128.764 46.6046L117.423 57.946Z" fill="#EF3340"/>
<path d="M128.663 46.7062C131.97 43.3994 131.97 37.9886 128.663 34.6818L121.991 28.0098L104.739 45.2621L117.423 57.9465L128.663 46.7062Z" fill="#C2001B"/>
<path d="M86.3941 38.2371L111.763 63.6055L118.7 56.6682L93.3314 31.2998L86.3941 38.2371Z" fill="white"/>
<path d="M99.0787 50.9231L111.763 63.6074L118.7 56.6701L106.016 43.9858L99.0787 50.9231Z" fill="#C8C6CC"/>
<path d="M87.1209 37.5107L38.2144 86.4169L24.7162 125.284L63.5832 111.786L112.489 62.8789L87.1209 37.5107Z" fill="#EF3340"/>
<path d="M112.489 62.8791L99.8049 50.1953L24.7162 125.284L63.5832 111.786L112.489 62.8791Z" fill="#9A4C00"/>
<path d="M24.7162 125.284L63.5832 111.786L38.2144 86.417L24.7162 125.284Z" fill="#FFC473"/>
<path d="M50.8988 99.1016L24.7162 125.284L63.5832 111.786L50.8988 99.1016Z" fill="#FFAA20"/>
<path d="M41.7652 119.363L30.6371 108.235L24.7162 125.284L41.7652 119.363Z" fill="#57555C"/>
<path d="M36.2011 113.799L24.7162 125.284L41.7652 119.363L36.2011 113.799Z" fill="#171719"/>
</g>
<defs>
<clipPath id="clip0">
<rect width="150" height="150" fill="white"/>
</clipPath>
</defs>
</svg>
