<svg width="28" height="28" viewBox="0 0 28 28" fill="none" xmlns="http://www.w3.org/2000/svg">
<path d="M23.2047 24.337C25.7869 21.8947 27.3984 18.4365 27.3984 14.6016C27.3984 7.20185 21.3997 1.20312 13.9999 1.20312C6.60017 1.20312 0.60144 7.20185 0.60144 14.6016C0.60144 22.0014 6.60017 28.0001 13.9999 28.0001C14.5798 28.0001 15.151 27.9632 15.7115 27.8918L23.2047 24.337Z" fill="#FF4155"/>
<path d="M21.7019 19.9919C21.5843 19.5598 21.5428 19.1106 21.5794 18.6643L21.7982 16.6034C21.905 15.3103 21.7079 14.0147 21.1355 12.8504C19.6564 9.84187 19.9958 9.62355 19.9498 6.63767C19.9498 6.02774 19.4553 5.5332 18.8453 5.5332C18.2353 5.5332 17.7408 6.02769 17.7408 6.63767C17.7408 18.78 17.7634 17.889 17.6886 18.245V19.835C17.6886 21.1746 16.5987 22.2646 15.2591 22.2646C14.3694 22.2646 11.3011 22.2646 9.21326 22.2646C10.1421 23.5563 11.4127 24.5677 12.8873 25.1801C12.8965 25.1839 12.9056 25.1877 12.9147 25.1916C14.054 25.6728 15.3261 26.633 15.5387 27.8244L15.5592 27.9095C18.5595 27.5617 21.2573 26.2232 23.3172 24.2292L21.7019 19.9919Z" fill="#F9BA8F"/>
<path d="M5.11116 5.57157L4.77477 5.25991C4.25617 4.77943 3.43875 4.8106 2.95827 5.32914C2.47778 5.84775 2.50896 6.66516 3.02756 7.14565L5.11121 9.07628V5.57157H5.11116Z" fill="#F9BA8F"/>
<path d="M3.71115 6.17928C3.39304 5.88452 3.25922 5.46309 3.31352 5.06152C3.18375 5.12797 3.06278 5.21623 2.95827 5.32895C2.47778 5.84755 2.50896 6.66496 3.02756 7.14545L5.11121 9.07608V7.47652L3.71115 6.17928Z" fill="#FCAD6D"/>
<path d="M21.8024 20.2554C21.3462 23.4013 18.6386 25.8181 15.3662 25.8181C14.8013 25.8181 14.2532 25.746 13.7306 25.6106C14.597 26.1404 15.3764 26.9147 15.5386 27.8239L15.5592 27.909C18.5594 27.5612 21.2571 26.2228 23.3171 24.2287L21.8024 20.2554Z" fill="#FD995B"/>
<path d="M15.8381 22.3166H6.96592C5.91679 22.3166 5.06323 21.463 5.06323 20.4139V1.90274C5.06323 0.853562 5.91674 0 6.96592 0H15.8381C16.8873 0 17.7408 0.853562 17.7408 1.90274V20.4139C17.7408 21.463 16.8873 22.3166 15.8381 22.3166Z" fill="#2A428C"/>
<path d="M6.96592 0C5.91679 0 5.06323 0.853562 5.06323 1.90269V20.4139C5.06323 21.463 5.91679 22.3166 6.96592 22.3166H10.286C9.72824 21.7588 10.286 21.1328 10.286 21.1328C8.90552 19.1384 10.3632 17.1717 10.3632 17.1717L10.9743 5.04952C9.33427 4.47185 9.90537 2.16005 9.90537 2.16005C9.49697 1.75164 9.81038 1.36352 9.81038 1.36352V0.705852C9.47356 0.499625 9.62876 0.0828516 9.66387 0L6.96592 0Z" fill="#142766"/>
<path d="M10.0004 1.36373H9.8104C9.62879 1.36373 9.48157 1.21651 9.48157 1.03489C9.48157 0.853273 9.62879 0.706055 9.8104 0.706055H10.0004C10.182 0.706055 10.3292 0.853273 10.3292 1.03489C10.3292 1.21651 10.182 1.36373 10.0004 1.36373Z" fill="#3C58A0"/>
<path d="M12.9484 1.36373H11.1228C10.9412 1.36373 10.7939 1.21651 10.7939 1.03489C10.7939 0.853273 10.9412 0.706055 11.1228 0.706055H12.9484C13.13 0.706055 13.2772 0.853273 13.2772 1.03489C13.2772 1.21651 13.13 1.36373 12.9484 1.36373Z" fill="#3C58A0"/>
<path d="M15.8381 1.18359H14.5047C14.256 1.18359 14.0546 1.38512 14.0546 1.63367C14.0546 1.92302 13.8178 2.15982 13.5284 2.15982H9.27554C8.98619 2.15982 8.74939 1.92308 8.74939 1.63367C8.74939 1.38512 8.54787 1.18359 8.29932 1.18359H6.96587C6.56884 1.18359 6.24695 1.50548 6.24695 1.90252V20.4137C6.24695 20.8107 6.56878 21.1326 6.96587 21.1326H15.8381C16.2351 21.1326 16.557 20.8107 16.557 20.4137C16.557 18.5095 16.557 2.41073 16.557 1.90252C16.557 1.50548 16.2351 1.18359 15.8381 1.18359Z" fill="#E9EFFF"/>
<path d="M9.27555 2.15982C8.98619 2.15982 8.7494 1.92308 8.7494 1.63367C8.7494 1.38506 8.54787 1.18359 8.29932 1.18359H6.96587C6.56884 1.18359 6.24695 1.50543 6.24695 1.90252V20.4137C6.24695 20.8107 6.56878 21.1326 6.96587 21.1326H10.286C8.90548 19.1382 10.3632 17.1714 10.3632 17.1714L10.9743 5.04929C9.33423 4.47162 9.90533 2.15982 9.90533 2.15982H9.27555Z" fill="#BEC8F7"/>
<path d="M13.509 17.5358C16.1775 17.5358 18.5131 15.7165 18.5131 15.7165C19.5766 14.5285 20.2236 12.9599 20.2236 11.24C20.2236 7.53162 17.2174 4.52539 13.509 4.52539C9.80066 4.52539 6.79443 7.53162 6.79443 11.24C6.79443 12.9599 7.44139 14.5285 8.50478 15.7164C8.50478 15.7164 10.8405 17.5358 13.509 17.5358Z" fill="#73C3F9"/>
<path d="M15.6009 12.035C15.6009 12.035 14.6188 6.39992 13.8517 5.84019C13.115 5.30261 13.6799 4.5868 13.7259 4.5308C13.654 4.52856 13.5824 4.52539 13.51 4.52539C9.80158 4.52539 6.79541 7.53162 6.79541 11.24C6.79541 12.9599 7.44236 14.5285 8.50576 15.7164C8.50576 15.7164 10.8415 17.5358 13.51 17.5358C16.1785 17.5358 18.5141 15.7166 18.5141 15.7166C19.1559 14.9995 19.6446 14.1433 19.9324 13.1994C17.5915 14.2316 15.6009 12.035 15.6009 12.035Z" fill="#4FABF7"/>
<path d="M11.7138 15.4598C12.226 15.8576 12.8581 16.0736 13.5091 16.0736C14.1601 16.0736 14.7922 15.8576 15.3044 15.4598C15.5422 15.2752 15.7898 15.0478 16.029 14.7803C15.891 14.7359 15.7506 14.695 15.6068 14.659C15.5197 14.6372 15.4432 14.5848 15.3938 14.5151C15.1661 14.1938 15.103 13.6971 15.0906 13.3369C14.9309 13.523 14.7632 13.6786 14.603 13.803C13.9605 14.3019 13.0568 14.3013 12.4152 13.803C12.255 13.6786 12.0874 13.523 11.9276 13.3369C11.9149 13.7051 11.8494 14.216 11.6091 14.5363C11.5681 14.5909 11.5049 14.6356 11.4292 14.6543C11.2796 14.6914 11.1332 14.7337 10.9891 14.7802C11.2283 15.0478 11.476 15.2751 11.7138 15.4598Z" fill="#FCAD6D"/>
<path d="M13.5004 14.1766C13.1168 14.1748 12.7337 14.0504 12.4152 13.803C12.255 13.6786 12.0874 13.523 11.9277 13.3369C11.9149 13.7051 11.8494 14.216 11.6091 14.5363C11.5681 14.591 11.5049 14.6356 11.4292 14.6544C11.2796 14.6914 11.1332 14.7337 10.9891 14.7802C11.2283 15.0478 11.476 15.2752 11.7138 15.4599C12.0023 15.6839 12.3297 15.848 12.6763 15.9506C13.2279 15.3954 13.4287 14.6691 13.5004 14.1766Z" fill="#FD995B"/>
<path d="M17.9247 15.6053C17.7207 15.5886 17.6121 15.5095 17.3716 15.3738C16.9117 15.1145 16.4366 14.9036 15.9247 14.748C15.6895 15.0153 15.4446 15.2402 15.21 15.4223C14.7247 15.7992 14.1259 16.0038 13.5092 16.0038C12.8925 16.0038 12.2937 15.7992 11.8085 15.4223C11.574 15.2402 11.329 15.0153 11.0939 14.7481C10.5833 14.9035 10.1054 15.1153 9.64688 15.3738C9.40636 15.5095 9.29781 15.5886 9.09371 15.6053C8.87901 15.6229 8.6834 15.6612 8.505 15.7166C9.73449 17.0901 11.5208 17.9547 13.5092 17.9547C15.4977 17.9547 17.284 17.09 18.5135 15.7166C18.3351 15.6612 18.1395 15.6229 17.9247 15.6053Z" fill="#3C58A0"/>
<path d="M12.9811 5.85426C11.3928 6.07066 11.2419 6.9712 11.2412 7.30162C11.241 7.37091 11.2026 7.43512 11.1403 7.46541C10.3141 7.86731 10.7596 9.8044 10.7596 9.8044C10.8425 9.80992 10.967 9.88112 11.0318 9.91251C11.0476 9.8138 11.0735 9.71662 11.1101 9.62273C11.1379 9.55114 11.1727 9.47884 11.2163 9.41054C11.2919 9.29203 11.3263 9.15214 11.316 9.01236C11.2863 8.60827 11.263 7.84954 11.7965 7.60957C12.2483 7.40624 12.8027 7.52398 13.1562 7.64151C13.3858 7.71785 13.6344 7.71785 13.864 7.64151C14.2175 7.52393 14.7718 7.40619 15.2238 7.60957C15.7557 7.84888 15.7338 8.60373 15.7045 9.00891C15.6942 9.14979 15.7278 9.29105 15.8039 9.41054C15.8488 9.48103 15.8845 9.55584 15.9128 9.62967C15.948 9.72144 15.973 9.81626 15.9885 9.91257C16.0702 9.87303 16.2244 9.79231 16.3243 9.80642C16.3366 9.38287 16.3756 8.92623 16.3756 8.92623C16.8462 6.62093 14.6913 5.62124 12.9811 5.85426Z" fill="#2A428C"/>
<path d="M12.9802 5.85413C11.3918 6.07053 11.2409 6.97106 11.2402 7.30149C11.24 7.37077 11.2016 7.43498 11.1393 7.46527C10.3131 7.86717 10.7586 9.80426 10.7586 9.80426C10.8416 9.80978 10.966 9.88098 11.0308 9.91237C11.0466 9.81366 11.0725 9.71648 11.1091 9.62253C11.1369 9.55094 11.1718 9.47865 11.2153 9.41034C11.2909 9.29183 11.3253 9.152 11.315 9.01216C11.2853 8.60802 11.2621 7.84934 11.7955 7.60938C12.2474 7.40605 12.8017 7.52379 13.1552 7.64131C13.2519 7.67347 13.352 7.69124 13.4527 7.69633C13.4372 7.66986 13.4208 7.64361 13.4024 7.61774C12.7209 6.66 13.6681 5.96214 13.8509 5.84018C13.5578 5.81098 13.2629 5.81563 12.9802 5.85413Z" fill="#1C2E7A"/>
<path d="M16.4641 9.8616C16.3404 9.74823 16.094 9.80571 15.9875 9.87511C16.0108 10.0205 16.0121 10.1692 15.992 10.316L15.8662 11.2317C15.8662 11.3056 15.8639 11.378 15.8596 11.4491C16.1662 11.5416 16.3185 11.2664 16.3441 11.0775C16.3552 10.9961 16.3732 10.916 16.3983 10.8378C16.4799 10.5831 16.7741 10.1456 16.4641 9.8616Z" fill="#FCAD6D"/>
<path d="M10.554 9.8616C10.6777 9.74823 10.9241 9.80571 11.0306 9.87511C11.0073 10.0205 11.006 10.1692 11.0261 10.316L11.1519 11.2317C11.1519 11.3056 11.1542 11.378 11.1585 11.4491C10.8519 11.5416 10.6996 11.2664 10.674 11.0775C10.6629 10.9961 10.6449 10.916 10.6198 10.8378C10.5382 10.5831 10.2441 10.1456 10.554 9.8616Z" fill="#FD995B"/>
<path d="M15.9494 9.59202C15.9211 9.51819 15.8854 9.44343 15.8404 9.37288C15.7643 9.25344 15.7308 9.11213 15.741 8.97126C15.7704 8.56608 15.7546 7.77366 15.2227 7.53429C14.7709 7.33096 14.2165 7.4487 13.863 7.56623C13.6335 7.64257 13.3847 7.64257 13.1551 7.56623C12.8016 7.4487 12.2473 7.33096 11.7954 7.53429C11.262 7.77431 11.2477 8.57062 11.2774 8.9747C11.2877 9.11448 11.2533 9.25432 11.1777 9.37288C11.1341 9.44119 11.0993 9.51354 11.0714 9.58507C10.981 9.81722 10.9547 10.0691 10.9886 10.3156L11.1143 11.2315C11.1143 12.5484 11.8172 13.4434 12.4151 13.9077C12.7272 14.1501 13.1123 14.2817 13.5091 14.2817C13.9057 14.2817 14.2909 14.1501 14.603 13.9077C15.2009 13.4434 15.9038 12.5484 15.9038 11.2315L16.0295 10.3158C16.0631 10.0717 16.0376 9.82236 15.9494 9.59202Z" fill="#F9BA8F"/>
<path d="M14.1614 13.9077C13.5635 13.4434 12.8606 12.5484 12.8606 11.2315L12.7348 10.3156C12.701 10.0691 12.7273 9.81722 12.8177 9.58507C12.8455 9.51348 12.8804 9.44119 12.9239 9.37288C12.9995 9.25432 13.0339 9.11448 13.0236 8.9747C12.9968 8.60934 13.006 7.92339 13.4023 7.61785C13.3187 7.60987 13.2357 7.59302 13.1551 7.56623C12.8016 7.4487 12.2473 7.33096 11.7954 7.53429C11.262 7.77431 11.2477 8.57062 11.2774 8.9747C11.2877 9.11448 11.2533 9.25432 11.1777 9.37288C11.1341 9.44119 11.0993 9.51354 11.0714 9.58507C10.981 9.81722 10.9547 10.0691 10.9886 10.3156L11.1143 11.2315C11.1143 12.5484 11.8172 13.4434 12.4151 13.9077C12.7272 14.1501 13.1123 14.2817 13.509 14.2817C13.8166 14.2817 14.1171 14.2022 14.3822 14.0536C14.3055 14.0106 14.2315 13.9621 14.1614 13.9077Z" fill="#FCAD6D"/>
<path d="M11.8083 15.4223C11.5738 15.2402 11.3288 15.0153 11.0936 14.748C10.5831 14.9035 10.1052 15.1152 9.64664 15.3738C9.40612 15.5094 9.29757 15.5885 9.09347 15.6052C8.87877 15.6228 8.68321 15.6611 8.50476 15.7165C9.03124 16.3046 9.66042 16.7985 10.3632 17.1721C10.6258 16.9559 10.9932 16.7595 11.5081 16.6181C12.047 16.47 12.4429 16.2048 12.7341 15.8914C12.4006 15.7946 12.0856 15.6376 11.8083 15.4223Z" fill="#2A428C"/>
<path d="M21.4151 4.97989V4.46572C21.4151 3.44208 20.5853 2.6123 19.5617 2.6123C18.5381 2.6123 17.7083 3.44213 17.7083 4.46572V4.97989C17.7083 5.89011 17.4003 6.77359 16.8345 7.48655H22.2889C21.7231 6.77353 21.4151 5.89011 21.4151 4.97989Z" fill="#FFDD40"/>
<path d="M19.4687 4.05939C19.4687 3.30071 20.032 2.97795 20.4563 2.84238C20.191 2.69587 19.8861 2.6123 19.5617 2.6123C18.538 2.6123 17.7083 3.44213 17.7083 4.46572V4.97989C17.7083 5.89011 17.4003 6.77353 16.8345 7.48649H22.2889C22.0665 7.20622 21.8845 6.89926 21.7449 6.57502H20.1596C19.778 6.57502 19.4687 6.2657 19.4687 5.88415V4.05939H19.4687Z" fill="#FFB332"/>
<path d="M20.3067 9.53496C20.0692 9.94638 19.5432 10.0873 19.1318 9.8498C18.7203 9.61229 18.5794 9.08625 18.8169 8.67484C19.0544 8.26343 19.5805 8.1225 19.9919 8.36001C20.4033 8.59751 20.5442 9.12355 20.3067 9.53496Z" fill="#FFDD40"/>
<path d="M22.2889 8.37682H16.8344C16.5634 8.37682 16.3438 8.15714 16.3438 7.88616C16.3438 7.61519 16.5634 7.39551 16.8344 7.39551H22.2889C22.5599 7.39551 22.7795 7.61519 22.7795 7.88616C22.7795 8.15714 22.5599 8.37682 22.2889 8.37682Z" fill="#FCF2C8"/>
<path d="M18.8412 7.88616C18.8412 7.61519 19.0608 7.39551 19.3318 7.39551H16.8344C16.5634 7.39551 16.3438 7.61519 16.3438 7.88616C16.3438 8.15714 16.5634 8.37682 16.8344 8.37682H19.3318C19.0608 8.37682 18.8412 8.15714 18.8412 7.88616Z" fill="#FFE98D"/>
<path d="M6.98191 12.3507C6.55912 12.807 5.84654 12.8342 5.39028 12.4114L3.50373 10.6634C3.04748 10.2406 3.0203 9.52799 3.44308 9.07173C3.86587 8.61547 4.57845 8.58829 5.03471 9.01108L6.92126 10.7591C7.37752 11.1819 7.40464 11.8945 6.98191 12.3507Z" fill="#F9BA8F"/>
<path d="M6.16642 11.6166L4.27986 9.86858C3.96431 9.57622 3.85434 9.14529 3.95611 8.75635C3.76591 8.81125 3.58746 8.91576 3.44309 9.07157C3.0203 9.52782 3.04748 10.2405 3.50373 10.6632L5.39029 12.4112C5.84655 12.834 6.55913 12.8068 6.98192 12.3506C7.1123 12.2099 7.19963 12.0447 7.24502 11.8712C6.87818 11.977 6.46687 11.895 6.16642 11.6166Z" fill="#FCAD6D"/>
<path d="M6.98191 18.4948C6.55912 18.9511 5.84654 18.9782 5.39028 18.5554L3.50373 16.8074C3.04748 16.3847 3.0203 15.672 3.44308 15.2158C3.86587 14.7595 4.57845 14.7323 5.03471 15.1551L6.92126 16.9032C7.37752 17.3259 7.40464 18.0385 6.98191 18.4948Z" fill="#F9BA8F"/>
<path d="M6.16642 17.7611L4.27986 16.0131C3.96431 15.7208 3.85434 15.2898 3.95611 14.9009C3.76591 14.9558 3.58746 15.0603 3.44309 15.2161C3.0203 15.6724 3.04748 16.385 3.50373 16.8077L5.39029 18.5557C5.84655 18.9785 6.55913 18.9514 6.98192 18.4951C7.1123 18.3544 7.19963 18.1892 7.24502 18.0157C6.87818 18.1216 6.46687 18.0396 6.16642 17.7611Z" fill="#FCAD6D"/>
<path d="M6.98191 15.4225C6.55912 15.8788 5.84654 15.906 5.39028 15.4832L3.50373 13.7351C3.04748 13.3124 3.0203 12.5998 3.44308 12.1435C3.86587 11.6872 4.57845 11.6601 5.03471 12.0829L6.92126 13.8309C7.37752 14.2536 7.40464 14.9662 6.98191 15.4225Z" fill="#F9BA8F"/>
<path d="M6.16642 14.6889L4.27986 12.9408C3.96431 12.6485 3.85434 12.2176 3.95611 11.8286C3.76591 11.8835 3.58741 11.988 3.44309 12.1438C3.0203 12.6001 3.04748 13.3127 3.50373 13.7355L5.39029 15.4835C5.84655 15.9063 6.55913 15.8791 6.98192 15.4228C7.1123 15.2821 7.19963 15.1169 7.24502 14.9434C6.87818 15.0493 6.46687 14.9673 6.16642 14.6889Z" fill="#FCAD6D"/>
<path d="M21.5376 2.12338C21.3328 2.02669 21.2451 1.78218 21.3419 1.57743L21.577 1.07939C21.6737 0.874534 21.9182 0.78687 22.123 0.883612C22.3279 0.980299 22.4155 1.22481 22.3187 1.42956L22.0836 1.9276C21.9868 2.13251 21.7423 2.22012 21.5376 2.12338Z" fill="#FFDD40"/>
<path d="M23.0752 5.2575L22.5771 5.02234C22.3723 4.9256 22.2847 4.68115 22.3814 4.47634C22.4782 4.27149 22.7226 4.18382 22.9274 4.28062L23.4255 4.51577C23.6303 4.61252 23.7179 4.85697 23.6212 5.06183C23.5244 5.26663 23.28 5.35424 23.0752 5.2575Z" fill="#FFDD40"/>
<path d="M23.4899 3.18697L22.9715 3.37285C22.7583 3.44925 22.5235 3.3384 22.447 3.12517C22.3706 2.912 22.4815 2.67761 22.6947 2.60066L23.2131 2.41478C23.4263 2.33838 23.6611 2.44923 23.7376 2.66246C23.8134 2.87415 23.705 3.10947 23.4899 3.18697Z" fill="#FFDD40"/>
<path d="M19.8667 9.28359C20.035 9.28359 20.1715 9.14709 20.1715 8.97871C20.1715 8.81033 20.035 8.67383 19.8667 8.67383C19.6983 8.67383 19.5618 8.81033 19.5618 8.97871C19.5618 9.14709 19.6983 9.28359 19.8667 9.28359Z" fill="#FFE98D"/>
</svg>
