<svg width="16" height="16" viewBox="0 0 16 16" fill="none" xmlns="http://www.w3.org/2000/svg">
<path d="M14.6667 11.2807V13.2807C14.6675 13.4664 14.6294 13.6502 14.555 13.8203C14.4807 13.9904 14.3716 14.1431 14.2348 14.2686C14.0979 14.3941 13.9364 14.4897 13.7605 14.5492C13.5847 14.6087 13.3983 14.6308 13.2134 14.614C11.1619 14.3911 9.19137 13.6901 7.46004 12.5674C5.84926 11.5438 4.48359 10.1782 3.46004 8.56738C2.33336 6.82818 1.6322 4.84804 1.41337 2.78738C1.39671 2.60303 1.41862 2.41722 1.4777 2.2418C1.53679 2.06637 1.63175 1.90518 1.75655 1.76846C1.88134 1.63175 2.03324 1.52252 2.20256 1.44773C2.37189 1.37294 2.55493 1.33422 2.74004 1.33405H4.74004C5.06357 1.33086 5.37723 1.44543 5.62254 1.6564C5.86786 1.86737 6.02809 2.16035 6.07337 2.48072C6.15779 3.12076 6.31434 3.7492 6.54004 4.35405C6.62973 4.59266 6.64915 4.85199 6.59597 5.1013C6.5428 5.35061 6.41928 5.57946 6.24004 5.76072L5.39337 6.60738C6.34241 8.27641 7.72434 9.65834 9.39337 10.6074L10.24 9.76071C10.4213 9.58147 10.6501 9.45795 10.8994 9.40478C11.1488 9.35161 11.4081 9.37102 11.6467 9.46071C12.2516 9.68641 12.88 9.84297 13.52 9.92738C13.8439 9.97307 14.1396 10.1362 14.3511 10.3857C14.5625 10.6352 14.6748 10.9538 14.6667 11.2807Z" stroke="#00000040" stroke-linecap="round" stroke-linejoin="round"/>
</svg>
