<svg width="11" height="13" viewBox="0 0 11 13" fill="none" xmlns="http://www.w3.org/2000/svg">
<path d="M10.375 5.41699C10.375 9.20866 5.5 12.4587 5.5 12.4587C5.5 12.4587 0.625 9.20866 0.625 5.41699C0.625 4.12406 1.13861 2.88409 2.05285 1.96985C2.96709 1.05561 4.20707 0.541992 5.5 0.541992C6.79293 0.541992 8.03291 1.05561 8.94715 1.96985C9.86139 2.88409 10.375 4.12406 10.375 5.41699Z" fill="#010101" fill-opacity="0.65"/>
<path d="M5.5 7.04199C6.39746 7.04199 7.125 6.31446 7.125 5.41699C7.125 4.51953 6.39746 3.79199 5.5 3.79199C4.60254 3.79199 3.875 4.51953 3.875 5.41699C3.875 6.31446 4.60254 7.04199 5.5 7.04199Z" fill="white"/>
</svg>
