<svg width="24" height="24" viewBox="0 0 24 24" fill="none" xmlns="http://www.w3.org/2000/svg">
<g clip-path="url(#clip0)">
<path d="M11.5124 4.97119L8.03813 6.66346C7.72597 6.82012 7.47797 7.08119 7.33692 7.4013L3.00265 18.2668C2.55462 19.2815 3.01159 20.4677 4.02345 20.9159L8.33455 22.8262H11.5362L11.5124 4.97119Z" fill="#FAA515"/>
<path d="M21.1697 19.7661V21.8593C21.1697 23.0246 20.1948 24 19.029 24H10.2282C9.06238 24 8.13501 23.0246 8.13501 21.8593V9.53815C8.13501 9.17061 8.23919 8.82215 8.4732 8.53867L11.1193 5.33261C11.42 4.96821 11.8488 4.7334 12.3213 4.7334H16.9358C17.4084 4.7334 17.8371 4.96821 18.1379 5.33261L20.784 8.53867C21.0179 8.82215 21.1697 9.17066 21.1697 9.53815V18.1011V19.7661H21.1697Z" fill="#FAD207"/>
<path fill-rule="evenodd" clip-rule="evenodd" d="M13.9115 13.0825L13.9115 13.082L13.8993 13.0697C13.8928 13.0631 13.8862 13.0566 13.8796 13.0501L13.3874 12.5576L13.3176 12.6967C13.1547 12.6383 12.9795 12.6062 12.7968 12.6062H12.7492C11.8967 12.6062 11.2032 13.2998 11.2032 14.1523C11.2032 14.3289 11.2333 14.4984 11.2881 14.6566L11.1436 14.7308L11.6532 15.2416C11.6554 15.2437 11.6575 15.2459 11.6597 15.2481L11.6665 15.2549L11.6668 15.2548C11.9458 15.5289 12.328 15.6984 12.7492 15.6984H12.7968C13.6494 15.6984 14.3429 15.0048 14.3429 14.1523C14.3429 13.7374 14.1784 13.3605 13.9115 13.0825ZM12.7968 14.9848H12.7492C12.2902 14.9848 11.9167 14.6113 11.9167 14.1523C11.9167 13.6933 12.2902 13.3198 12.7492 13.3198H12.7968C13.2558 13.3198 13.6293 13.6933 13.6293 14.1523C13.6293 14.6113 13.2558 14.9848 12.7968 14.9848Z" fill="#F8C201"/>
<path fill-rule="evenodd" clip-rule="evenodd" d="M18.3769 12.7584L17.9012 12.2827L11.3074 18.8765L11.7831 19.3522C11.8528 19.4218 11.9441 19.4567 12.0354 19.4567C12.1267 19.4567 12.218 19.4219 12.2877 19.3522L18.3769 13.263C18.5162 13.1237 18.5162 12.8977 18.3769 12.7584Z" fill="#F8C201"/>
<path fill-rule="evenodd" clip-rule="evenodd" d="M18.471 16.743L18.4714 16.7428L18.0778 16.3438L18.1033 16.5055C17.9071 16.4152 17.6889 16.3643 17.4591 16.3643H17.4115C16.559 16.3643 15.8654 17.0579 15.8654 17.9104C15.8654 18.1307 15.912 18.3403 15.9955 18.5301L15.8208 18.5047L16.2942 18.9775C16.3111 18.9952 16.3284 19.0124 16.3462 19.0293L16.357 19.0402L16.3571 19.0398C16.6335 19.298 17.0042 19.4565 17.4115 19.4565H17.4591C18.3116 19.4565 19.0052 18.7629 19.0052 17.9104C19.0052 17.4447 18.7978 17.0267 18.471 16.743ZM17.4591 18.7429H17.4115C16.9525 18.7429 16.579 18.3695 16.579 17.9104C16.579 17.4514 16.9525 17.0779 17.4115 17.0779H17.4591C17.9181 17.0779 18.2916 17.4514 18.2916 17.9104C18.2916 18.3695 17.9181 18.7429 17.4591 18.7429Z" fill="#F8C201"/>
<path d="M11.5597 18.9815C11.4684 18.9815 11.3771 18.9466 11.3074 18.8769C11.168 18.7376 11.168 18.5117 11.3074 18.3724L17.3966 12.2832C17.536 12.1439 17.7618 12.1439 17.9012 12.2832C18.0405 12.4226 18.0405 12.6485 17.9012 12.7878L11.812 18.8769C11.7423 18.9466 11.651 18.9815 11.5597 18.9815Z" fill="#F5F5F5"/>
<path d="M12.321 15.223H12.2734C11.4208 15.223 10.7273 14.5294 10.7273 13.6769C10.7273 12.8245 11.4208 12.1309 12.2734 12.1309H12.321C13.1735 12.1309 13.867 12.8245 13.867 13.6769C13.867 14.5294 13.1735 15.223 12.321 15.223ZM12.2734 12.8444C11.8144 12.8444 11.4409 13.2179 11.4409 13.6769C11.4409 14.136 11.8144 14.5095 12.2734 14.5095H12.321C12.78 14.5095 13.1535 14.136 13.1535 13.6769C13.1535 13.2179 12.78 12.8444 12.321 12.8444H12.2734Z" fill="#F5F5F5"/>
<path d="M16.9828 18.9813H16.9352C16.0827 18.9813 15.3892 18.2877 15.3892 17.4352C15.3892 16.5828 16.0827 15.8892 16.9352 15.8892H16.9828C17.8354 15.8892 18.5289 16.5828 18.5289 17.4352C18.5289 18.2877 17.8354 18.9813 16.9828 18.9813ZM16.9352 16.6027C16.4762 16.6027 16.1027 16.9762 16.1027 17.4352C16.1027 17.8943 16.4762 18.2678 16.9352 18.2678H16.9828C17.4418 18.2678 17.8153 17.8943 17.8153 17.4352C17.8153 16.9762 17.4418 16.6027 16.9828 16.6027H16.9352Z" fill="#F5F5F5"/>
<path d="M15.4038 7.635C15.249 7.635 15.1065 7.53343 15.0613 7.37725C15.0065 7.18796 15.1156 6.99011 15.3049 6.93536C15.3454 6.92366 15.3861 6.91081 15.4259 6.8972C16.5139 6.52581 17.2449 5.5033 17.2449 4.35282V0.356789C17.2449 0.159746 17.4046 0 17.6016 0C17.7987 0 17.9584 0.159746 17.9584 0.356789V4.35282C17.9584 5.80862 17.0334 7.10248 15.6564 7.57249C15.606 7.58971 15.5544 7.60598 15.5031 7.62082C15.47 7.63043 15.4367 7.635 15.4038 7.635Z" fill="#E0A446"/>
<path d="M14.6521 8.51517C14.0357 8.51517 13.5342 8.01367 13.5342 7.39723C13.5342 6.7808 14.0357 6.2793 14.6521 6.2793C15.2686 6.2793 15.7701 6.7808 15.7701 7.39723C15.7701 8.01367 15.2686 8.51517 14.6521 8.51517Z" fill="#F5F5F5"/>
</g>
<defs>
<clipPath id="clip0">
<rect width="24" height="24" fill="white"/>
</clipPath>
</defs>
</svg>
