<svg width="20" height="20" viewBox="0 0 20 20" fill="none" xmlns="http://www.w3.org/2000/svg">
<g opacity="0.6" clip-path="url(#clip0_2495_3963)">
<path fill-rule="evenodd" clip-rule="evenodd" d="M8.01652e-06 9.99986C3.64e-05 7.99164 0.604708 6.02995 1.73529 4.37022C2.86588 2.71048 4.46999 1.4296 6.33877 0.694341C8.20755 -0.0409156 10.2544 -0.196478 12.2129 0.24791C14.1713 0.692297 15.9506 1.71604 17.319 3.18585C18.6874 4.65566 19.5816 6.50344 19.8851 8.48859C20.1887 10.4737 19.8875 12.5043 19.0207 14.3158C18.154 16.1274 16.7619 17.636 15.0258 18.6453C13.2896 19.6546 11.2898 20.1178 9.28668 19.9745L9.35734 18.6439L10.0107 18.6665C12.0115 18.6643 13.95 17.9699 15.4971 16.7011C17.0442 15.4322 18.1047 13.6672 18.4984 11.7054C18.8922 9.74366 18.595 7.7061 17.6574 5.93852C16.7197 4.17095 15.1994 2.78226 13.3543 2.00813C11.5093 1.234 9.45319 1.12213 7.53504 1.6915C5.61688 2.26087 3.95482 3.4764 2.83093 5.1318C1.70704 6.78721 1.19056 8.7805 1.36915 10.7734C1.54773 12.7663 2.41037 14.636 3.81067 16.0652L3.81867 16.0745L4.00001 16.2745V13.3332H5.33334V18.6665H8.01652e-06V17.3332H3.16001L2.84801 16.9892C1.0194 15.1227 -0.0033034 12.6128 8.01652e-06 9.99986V9.99986ZM9.33334 9.99986V3.99986H10.6667V9.72386L14.472 13.5279L13.528 14.4719L9.52801 10.4719C9.46614 10.4098 9.4171 10.3362 9.3837 10.2552C9.3503 10.1742 9.33319 10.0875 9.33334 9.99986V9.99986Z" fill="#161616"/>
</g>
<defs>
<clipPath id="clip0_2495_3963">
<rect width="20" height="20" fill="white"/>
</clipPath>
</defs>
</svg>
