<svg width="25" height="25"  viewBox="0 0 25 25" fill="none" xmlns="http://www.w3.org/2000/svg">
<path fill="#EF3340"  d="M0.5 23.9137C0.5 20.5546 1.83671 17.9825 3.98064 16.2402C6.13607 14.4885 9.14165 13.5498 12.4999 13.5498C15.8582 13.5498 18.8639 14.4885 21.0193 16.2402C23.1633 17.9825 24.5 20.5546 24.5 23.9137C24.5 24.2454 24.2379 24.4996 23.9326 24.4996H1.06736C0.762121 24.4996 0.5 24.2454 0.5 23.9137Z" stroke="#EF3340"/>
<path  fill="#EF3340"  d="M7.78638 5.55988C7.78638 2.76215 10.0221 0.5 12.7512 0.5C15.4803 0.5 17.7161 2.76216 17.7161 5.55988C17.7161 8.35759 15.4803 10.6197 12.7512 10.6197C10.0221 10.6197 7.78638 8.3576 7.78638 5.55988Z" stroke="#EF3340"/>
</svg>
