<svg width="28" height="28" viewBox="0 0 28 28" fill="none" xmlns="http://www.w3.org/2000/svg">
<path d="M23.2047 24.337C25.7869 21.8947 27.3984 18.4365 27.3984 14.6016C27.3984 7.20185 21.3997 1.20312 13.9999 1.20312C6.60017 1.20312 0.60144 7.20185 0.60144 14.6016C0.60144 22.0014 6.60017 28.0001 13.9999 28.0001C14.5798 28.0001 15.151 27.9632 15.7115 27.8918L23.2047 24.337Z" fill="#FF4155"/>
<path d="M21.7019 19.9919C21.5843 19.5598 21.5428 19.1106 21.5794 18.6643L21.7982 16.6034C21.905 15.3103 21.7079 14.0147 21.1355 12.8504C19.6564 9.84187 19.9958 9.62355 19.9498 6.63767C19.9498 6.02774 19.4553 5.5332 18.8453 5.5332C18.2353 5.5332 17.7408 6.02769 17.7408 6.63767C17.7408 18.78 17.7634 17.889 17.6886 18.245V19.835C17.6886 21.1746 16.5987 22.2646 15.2591 22.2646C14.3694 22.2646 11.3011 22.2646 9.21326 22.2646C10.1421 23.5563 11.4127 24.5677 12.8873 25.1801C12.8965 25.1839 12.9056 25.1877 12.9147 25.1916C14.054 25.6728 15.3261 26.633 15.5387 27.8244L15.5592 27.9095C18.5595 27.5617 21.2573 26.2232 23.3172 24.2292L21.7019 19.9919Z" fill="#F9BA8F"/>
<path d="M5.11116 5.5706L4.77477 5.25893C4.25617 4.77845 3.43875 4.80962 2.95827 5.32817C2.47778 5.84677 2.50896 6.66418 3.02756 7.14467L5.11121 9.0753V5.5706H5.11116Z" fill="#F9BA8F"/>
<path d="M3.71115 6.18026C3.39304 5.88549 3.25922 5.46407 3.31352 5.0625C3.18375 5.12895 3.06278 5.21721 2.95827 5.32992C2.47778 5.84852 2.50896 6.66594 3.02756 7.14642L5.11121 9.07705V7.4775L3.71115 6.18026Z" fill="#FCAD6D"/>
<path d="M21.8024 20.2559C21.3462 23.4018 18.6386 25.8186 15.3662 25.8186C14.8013 25.8186 14.2532 25.7465 13.7306 25.6111C14.597 26.1409 15.3764 26.9152 15.5386 27.8244L15.5592 27.9095C18.5594 27.5617 21.2571 26.2233 23.3171 24.2292L21.8024 20.2559Z" fill="#FD995B"/>
<path d="M15.8381 22.3166H6.96592C5.91679 22.3166 5.06323 21.463 5.06323 20.4139V1.90274C5.06323 0.853562 5.91674 0 6.96592 0H15.8381C16.8873 0 17.7408 0.853562 17.7408 1.90274V20.4139C17.7408 21.463 16.8873 22.3166 15.8381 22.3166Z" fill="#2A428C"/>
<path d="M6.96592 0C5.91679 0 5.06323 0.853562 5.06323 1.90269V20.4139C5.06323 21.463 5.91679 22.3166 6.96592 22.3166H10.286C9.72824 21.7588 10.286 21.1328 10.286 21.1328C8.90552 19.1384 10.3632 17.1717 10.3632 17.1717L10.9743 5.04952C9.33427 4.47185 9.90537 2.16005 9.90537 2.16005C9.49697 1.75164 9.81038 1.36352 9.81038 1.36352V0.705852C9.47356 0.499625 9.62876 0.0828516 9.66387 0L6.96592 0Z" fill="#142766"/>
<path d="M10.0004 1.36275H9.8104C9.62879 1.36275 9.48157 1.21553 9.48157 1.03391C9.48157 0.852297 9.62879 0.705078 9.8104 0.705078H10.0004C10.182 0.705078 10.3292 0.852297 10.3292 1.03391C10.3292 1.21553 10.182 1.36275 10.0004 1.36275Z" fill="#3C58A0"/>
<path d="M12.9484 1.36275H11.1228C10.9412 1.36275 10.7939 1.21553 10.7939 1.03391C10.7939 0.852297 10.9412 0.705078 11.1228 0.705078H12.9484C13.13 0.705078 13.2772 0.852297 13.2772 1.03391C13.2772 1.21553 13.13 1.36275 12.9484 1.36275Z" fill="#3C58A0"/>
<path d="M15.8381 1.18359H14.5047C14.256 1.18359 14.0546 1.38512 14.0546 1.63367C14.0546 1.92302 13.8178 2.15982 13.5284 2.15982H9.27554C8.98619 2.15982 8.74939 1.92308 8.74939 1.63367C8.74939 1.38512 8.54787 1.18359 8.29932 1.18359H6.96587C6.56884 1.18359 6.24695 1.50548 6.24695 1.90252V20.4137C6.24695 20.8107 6.56878 21.1326 6.96587 21.1326H15.8381C16.2351 21.1326 16.557 20.8107 16.557 20.4137C16.557 18.5095 16.557 2.41073 16.557 1.90252C16.557 1.50548 16.2351 1.18359 15.8381 1.18359Z" fill="#E9EFFF"/>
<path d="M9.27555 2.15982C8.98619 2.15982 8.7494 1.92308 8.7494 1.63367C8.7494 1.38506 8.54787 1.18359 8.29932 1.18359H6.96587C6.56884 1.18359 6.24695 1.50543 6.24695 1.90252V20.4137C6.24695 20.8107 6.56878 21.1326 6.96587 21.1326H10.286C8.90548 19.1382 10.3632 17.1714 10.3632 17.1714L10.9743 5.04929C9.33423 4.47162 9.90533 2.15982 9.90533 2.15982H9.27555Z" fill="#BEC8F7"/>
<path d="M13.509 17.5358C16.1775 17.5358 18.5131 15.7165 18.5131 15.7165C19.5766 14.5285 20.2236 12.9599 20.2236 11.24C20.2236 7.53162 17.2174 4.52539 13.509 4.52539C9.80066 4.52539 6.79443 7.53162 6.79443 11.24C6.79443 12.9599 7.44139 14.5285 8.50478 15.7164C8.50478 15.7164 10.8405 17.5358 13.509 17.5358Z" fill="#73C3F9"/>
<path d="M15.6009 12.035C15.6009 12.035 14.6188 6.39992 13.8517 5.84019C13.115 5.30261 13.6799 4.5868 13.7259 4.5308C13.654 4.52856 13.5824 4.52539 13.51 4.52539C9.80158 4.52539 6.79541 7.53162 6.79541 11.24C6.79541 12.9599 7.44236 14.5285 8.50576 15.7164C8.50576 15.7164 10.8415 17.5358 13.51 17.5358C16.1785 17.5358 18.5141 15.7166 18.5141 15.7166C19.1559 14.9995 19.6446 14.1433 19.9324 13.1994C17.5915 14.2316 15.6009 12.035 15.6009 12.035Z" fill="#4FABF7"/>
<path d="M11.7138 15.4589C12.226 15.8566 12.8581 16.0727 13.5091 16.0727C14.1601 16.0727 14.7922 15.8566 15.3044 15.4589C15.5422 15.2742 15.7898 15.0468 16.029 14.7794C15.891 14.735 15.7506 14.694 15.6068 14.658C15.5197 14.6362 15.4432 14.5839 15.3938 14.5141C15.1661 14.1928 15.103 13.6962 15.0906 13.3359C14.9309 13.522 14.7632 13.6776 14.603 13.802C13.9605 14.301 13.0568 14.3003 12.4152 13.802C12.255 13.6776 12.0874 13.522 11.9276 13.3359C11.9149 13.7041 11.8494 14.215 11.6091 14.5353C11.5681 14.5899 11.5049 14.6346 11.4292 14.6534C11.2796 14.6904 11.1332 14.7327 10.9891 14.7792C11.2283 15.0468 11.476 15.2742 11.7138 15.4589Z" fill="#FCAD6D"/>
<path d="M13.5004 14.1757C13.1168 14.1738 12.7337 14.0494 12.4152 13.802C12.255 13.6776 12.0874 13.522 11.9277 13.3359C11.9149 13.7041 11.8494 14.215 11.6091 14.5353C11.5681 14.59 11.5049 14.6346 11.4292 14.6534C11.2796 14.6904 11.1332 14.7328 10.9891 14.7793C11.2283 15.0468 11.476 15.2742 11.7138 15.4589C12.0023 15.683 12.3297 15.847 12.6763 15.9496C13.2279 15.3944 13.4287 14.6681 13.5004 14.1757Z" fill="#FD995B"/>
<path d="M17.9247 15.6053C17.7207 15.5886 17.6121 15.5095 17.3716 15.3738C16.9117 15.1145 16.4366 14.9036 15.9247 14.748C15.6895 15.0153 15.4446 15.2402 15.21 15.4223C14.7247 15.7992 14.1259 16.0038 13.5092 16.0038C12.8925 16.0038 12.2937 15.7992 11.8085 15.4223C11.574 15.2402 11.329 15.0153 11.0939 14.7481C10.5833 14.9035 10.1054 15.1153 9.64688 15.3738C9.40636 15.5095 9.29781 15.5886 9.09371 15.6053C8.87901 15.6229 8.6834 15.6612 8.505 15.7166C9.73449 17.0901 11.5208 17.9547 13.5092 17.9547C15.4977 17.9547 17.284 17.09 18.5135 15.7166C18.3351 15.6612 18.1395 15.6229 17.9247 15.6053Z" fill="#3C58A0"/>
<path d="M12.9811 5.85329C11.3928 6.06969 11.2419 6.97023 11.2412 7.30065C11.241 7.36994 11.2026 7.43414 11.1403 7.46444C10.3141 7.86633 10.7596 9.80342 10.7596 9.80342C10.8425 9.80894 10.967 9.88015 11.0318 9.91154C11.0476 9.81283 11.0735 9.71565 11.1101 9.62175C11.1379 9.55016 11.1727 9.47787 11.2163 9.40956C11.2919 9.29105 11.3263 9.15116 11.316 9.01138C11.2863 8.6073 11.263 7.84856 11.7965 7.60859C12.2483 7.40526 12.8027 7.52301 13.1562 7.64053C13.3858 7.71687 13.6344 7.71687 13.864 7.64053C14.2175 7.52295 14.7718 7.40521 15.2238 7.60859C15.7557 7.84791 15.7338 8.60276 15.7045 9.00794C15.6942 9.14881 15.7278 9.29007 15.8039 9.40956C15.8488 9.48005 15.8845 9.55487 15.9128 9.62869C15.948 9.72046 15.973 9.81529 15.9885 9.91159C16.0702 9.87205 16.2244 9.79133 16.3243 9.80544C16.3366 9.38189 16.3756 8.92525 16.3756 8.92525C16.8462 6.61995 14.6913 5.62026 12.9811 5.85329Z" fill="#2A428C"/>
<path d="M12.9802 5.85315C11.3918 6.06955 11.2409 6.97009 11.2402 7.30051C11.24 7.3698 11.2016 7.434 11.1393 7.4643C10.3131 7.8662 10.7586 9.80328 10.7586 9.80328C10.8416 9.8088 10.966 9.88 11.0308 9.9114C11.0466 9.81268 11.0725 9.71551 11.1091 9.62155C11.1369 9.54997 11.1718 9.47767 11.2153 9.40937C11.2909 9.29086 11.3253 9.15102 11.315 9.01119C11.2853 8.60705 11.2621 7.84837 11.7955 7.6084C12.2474 7.40507 12.8017 7.52281 13.1552 7.64034C13.2519 7.67249 13.352 7.69027 13.4527 7.69535C13.4372 7.66888 13.4208 7.64263 13.4024 7.61677C12.7209 6.65903 13.6681 5.96116 13.8509 5.83921C13.5578 5.81 13.2629 5.81465 12.9802 5.85315Z" fill="#1C2E7A"/>
<path d="M16.4641 9.86111C16.3404 9.74775 16.094 9.80522 15.9875 9.87462C16.0108 10.02 16.0121 10.1687 15.992 10.3155L15.8662 11.2313C15.8662 11.3051 15.8639 11.3775 15.8596 11.4486C16.1662 11.5411 16.3185 11.2659 16.3441 11.077C16.3552 10.9957 16.3732 10.9155 16.3983 10.8373C16.4799 10.5827 16.7741 10.1452 16.4641 9.86111Z" fill="#FCAD6D"/>
<path d="M10.554 9.86111C10.6777 9.74775 10.9241 9.80522 11.0306 9.87462C11.0073 10.02 11.006 10.1687 11.0261 10.3155L11.1519 11.2313C11.1519 11.3051 11.1542 11.3775 11.1585 11.4486C10.8519 11.5411 10.6996 11.2659 10.674 11.077C10.6629 10.9957 10.6449 10.9155 10.6198 10.8373C10.5382 10.5827 10.2441 10.1452 10.554 9.86111Z" fill="#FD995B"/>
<path d="M15.9494 9.59006C15.9211 9.51623 15.8854 9.44148 15.8404 9.37093C15.7643 9.25149 15.7308 9.11018 15.741 8.9693C15.7704 8.56412 15.7546 7.7717 15.2227 7.53233C14.7709 7.32901 14.2165 7.44675 13.863 7.56427C13.6335 7.64062 13.3847 7.64062 13.1551 7.56427C12.8016 7.44675 12.2473 7.32901 11.7954 7.53233C11.262 7.77236 11.2477 8.56866 11.2774 8.97275C11.2877 9.11253 11.2533 9.25237 11.1777 9.37093C11.1341 9.43923 11.0993 9.51158 11.0714 9.58312C10.981 9.81526 10.9547 10.0671 10.9886 10.3136L11.1143 11.2296C11.1143 12.5464 11.8172 13.4414 12.4151 13.9057C12.7272 14.1481 13.1123 14.2797 13.5091 14.2797C13.9057 14.2797 14.2909 14.1481 14.603 13.9057C15.2009 13.4414 15.9038 12.5464 15.9038 11.2296L16.0295 10.3139C16.0631 10.0697 16.0376 9.82041 15.9494 9.59006Z" fill="#F9BA8F"/>
<path d="M14.1614 13.9057C13.5635 13.4414 12.8606 12.5464 12.8606 11.2296L12.7348 10.3136C12.701 10.0671 12.7273 9.81526 12.8177 9.58312C12.8455 9.51153 12.8804 9.43923 12.9239 9.37093C12.9995 9.25237 13.0339 9.11253 13.0236 8.97275C12.9968 8.60738 13.006 7.92144 13.4023 7.6159C13.3187 7.60791 13.2357 7.59107 13.1551 7.56427C12.8016 7.44675 12.2473 7.32901 11.7954 7.53233C11.262 7.77236 11.2477 8.56866 11.2774 8.97275C11.2877 9.11253 11.2533 9.25237 11.1777 9.37093C11.1341 9.43923 11.0993 9.51158 11.0714 9.58312C10.981 9.81526 10.9547 10.0671 10.9886 10.3136L11.1143 11.2296C11.1143 12.5464 11.8172 13.4414 12.4151 13.9057C12.7272 14.1481 13.1123 14.2797 13.509 14.2797C13.8166 14.2797 14.1171 14.2003 14.3822 14.0517C14.3055 14.0086 14.2315 13.9601 14.1614 13.9057Z" fill="#FCAD6D"/>
<path d="M11.8083 15.4223C11.5738 15.2402 11.3288 15.0153 11.0936 14.748C10.5831 14.9035 10.1052 15.1152 9.64664 15.3738C9.40612 15.5094 9.29757 15.5885 9.09347 15.6052C8.87877 15.6228 8.68321 15.6611 8.50476 15.7165C9.03124 16.3046 9.66042 16.7985 10.3632 17.1721C10.6258 16.9559 10.9932 16.7595 11.5081 16.6181C12.047 16.47 12.4429 16.2048 12.7341 15.8914C12.4006 15.7946 12.0856 15.6376 11.8083 15.4223Z" fill="#2A428C"/>
<path d="M21.4151 4.98087V4.4667C21.4151 3.44305 20.5853 2.61328 19.5617 2.61328C18.5381 2.61328 17.7083 3.44311 17.7083 4.4667V4.98087C17.7083 5.89109 17.4003 6.77456 16.8345 7.48752H22.2889C21.7231 6.77451 21.4151 5.89109 21.4151 4.98087Z" fill="#FFDD40"/>
<path d="M19.4687 4.06037C19.4687 3.30169 20.032 2.97892 20.4563 2.84335C20.191 2.69684 19.8861 2.61328 19.5617 2.61328C18.538 2.61328 17.7083 3.44311 17.7083 4.4667V4.98087C17.7083 5.89109 17.4003 6.77451 16.8345 7.48747H22.2889C22.0665 7.2072 21.8845 6.90023 21.7449 6.57599H20.1596C19.778 6.57599 19.4687 6.26668 19.4687 5.88512V4.06037H19.4687Z" fill="#FFB332"/>
<path d="M20.3067 9.53448C20.0692 9.94589 19.5432 10.0868 19.1318 9.84931C18.7203 9.6118 18.5794 9.08577 18.8169 8.67435C19.0544 8.26294 19.5805 8.12201 19.9919 8.35952C20.4033 8.59702 20.5442 9.12306 20.3067 9.53448Z" fill="#FFDD40"/>
<path d="M22.2889 8.3778H16.8344C16.5634 8.3778 16.3438 8.15812 16.3438 7.88714C16.3438 7.61616 16.5634 7.39648 16.8344 7.39648H22.2889C22.5599 7.39648 22.7795 7.61616 22.7795 7.88714C22.7795 8.15812 22.5599 8.3778 22.2889 8.3778Z" fill="#FCF2C8"/>
<path d="M18.8412 7.88714C18.8412 7.61616 19.0608 7.39648 19.3318 7.39648H16.8344C16.5634 7.39648 16.3438 7.61616 16.3438 7.88714C16.3438 8.15812 16.5634 8.3778 16.8344 8.3778H19.3318C19.0608 8.3778 18.8412 8.15812 18.8412 7.88714Z" fill="#FFE98D"/>
<path d="M6.98191 12.3507C6.55912 12.807 5.84654 12.8342 5.39028 12.4114L3.50373 10.6634C3.04748 10.2406 3.0203 9.52799 3.44308 9.07173C3.86587 8.61547 4.57845 8.58829 5.03471 9.01108L6.92126 10.7591C7.37752 11.1819 7.40464 11.8945 6.98191 12.3507Z" fill="#F9BA8F"/>
<path d="M6.16642 11.6161L4.27986 9.86809C3.96431 9.57573 3.85434 9.1448 3.95611 8.75586C3.76591 8.81077 3.58746 8.91527 3.44309 9.07108C3.0203 9.52734 3.04748 10.24 3.50373 10.6627L5.39029 12.4107C5.84655 12.8335 6.55913 12.8063 6.98192 12.3501C7.1123 12.2094 7.19963 12.0442 7.24502 11.8707C6.87818 11.9765 6.46687 11.8945 6.16642 11.6161Z" fill="#FCAD6D"/>
<path d="M6.98191 18.4953C6.55912 18.9515 5.84654 18.9787 5.39028 18.5559L3.50373 16.8079C3.04748 16.3852 3.0203 15.6725 3.44308 15.2163C3.86587 14.76 4.57845 14.7328 5.03471 15.1556L6.92126 16.9036C7.37752 17.3264 7.40464 18.039 6.98191 18.4953Z" fill="#F9BA8F"/>
<path d="M6.16642 17.7607L4.27986 16.0126C3.96431 15.7203 3.85434 15.2893 3.95611 14.9004C3.76591 14.9553 3.58746 15.0598 3.44309 15.2156C3.0203 15.6719 3.04748 16.3845 3.50373 16.8072L5.39029 18.5553C5.84655 18.978 6.55913 18.9509 6.98192 18.4946C7.1123 18.3539 7.19963 18.1887 7.24502 18.0152C6.87818 18.1211 6.46687 18.0391 6.16642 17.7607Z" fill="#FCAD6D"/>
<path d="M6.98191 15.423C6.55912 15.8793 5.84654 15.9064 5.39028 15.4837L3.50373 13.7356C3.04748 13.3129 3.0203 12.6003 3.44308 12.144C3.86587 11.6877 4.57845 11.6606 5.03471 12.0833L6.92126 13.8314C7.37752 14.2541 7.40464 14.9667 6.98191 15.423Z" fill="#F9BA8F"/>
<path d="M6.16642 14.6884L4.27986 12.9404C3.96431 12.648 3.85434 12.2171 3.95611 11.8281C3.76591 11.883 3.58741 11.9875 3.44309 12.1433C3.0203 12.5996 3.04748 13.3122 3.50373 13.735L5.39029 15.483C5.84655 15.9058 6.55913 15.8786 6.98192 15.4224C7.1123 15.2816 7.19963 15.1164 7.24502 14.943C6.87818 15.0488 6.46687 14.9668 6.16642 14.6884Z" fill="#FCAD6D"/>
<path d="M21.5376 2.12289C21.3328 2.0262 21.2451 1.78169 21.3419 1.57694L21.577 1.0789C21.6737 0.874046 21.9182 0.786381 22.123 0.883124C22.3279 0.979811 22.4155 1.22432 22.3187 1.42907L22.0836 1.92711C21.9868 2.13202 21.7423 2.21963 21.5376 2.12289Z" fill="#FFDD40"/>
<path d="M23.0752 5.25848L22.5771 5.02332C22.3723 4.92658 22.2847 4.68213 22.3814 4.47732C22.4782 4.27246 22.7226 4.1848 22.9274 4.2816L23.4255 4.51675C23.6303 4.61349 23.7179 4.85795 23.6212 5.0628C23.5244 5.26761 23.28 5.35522 23.0752 5.25848Z" fill="#FFDD40"/>
<path d="M23.4899 3.18697L22.9715 3.37285C22.7583 3.44925 22.5235 3.3384 22.447 3.12517C22.3706 2.912 22.4815 2.67761 22.6947 2.60066L23.2131 2.41478C23.4263 2.33838 23.6611 2.44923 23.7376 2.66246C23.8134 2.87415 23.705 3.10947 23.4899 3.18697Z" fill="#FFDD40"/>
<path d="M19.8667 9.28359C20.035 9.28359 20.1715 9.14709 20.1715 8.97871C20.1715 8.81033 20.035 8.67383 19.8667 8.67383C19.6983 8.67383 19.5618 8.81033 19.5618 8.97871C19.5618 9.14709 19.6983 9.28359 19.8667 9.28359Z" fill="#FFE98D"/>
</svg>
