<svg width="28" height="28" viewBox="0 0 28 28" fill="none" xmlns="http://www.w3.org/2000/svg">
<g clip-path="url(#clip0_2715_495)">
<path d="M23.2048 24.337C25.787 21.8947 27.3985 18.4365 27.3985 14.6016C27.3985 7.20185 21.3998 1.20312 14 1.20312C6.60023 1.20312 0.601501 7.20185 0.601501 14.6016C0.601501 22.0014 6.60023 28.0001 14 28.0001C14.5798 28.0001 15.1511 27.9632 15.7115 27.8918L23.2048 24.337Z" fill="#FF4155"/>
<path d="M21.7019 19.9919C21.5843 19.5598 21.5428 19.1106 21.5794 18.6643L21.7982 16.6034C21.905 15.3103 21.7079 14.0147 21.1355 12.8504C19.6564 9.84187 19.9958 9.62355 19.9498 6.63767C19.9498 6.02774 19.4553 5.5332 18.8453 5.5332C18.2353 5.5332 17.7408 6.02769 17.7408 6.63767C17.7408 18.78 17.7634 17.889 17.6886 18.245V19.835C17.6886 21.1746 16.5987 22.2646 15.2591 22.2646C14.3694 22.2646 11.3011 22.2646 9.21326 22.2646C10.1421 23.5563 11.4127 24.5677 12.8873 25.1801C12.8965 25.1839 12.9056 25.1877 12.9147 25.1916C14.054 25.6728 15.3261 26.633 15.5387 27.8244L15.5592 27.9095C18.5595 27.5617 21.2573 26.2232 23.3172 24.2292L21.7019 19.9919Z" fill="#F9BA8F"/>
<path d="M5.11128 5.57157L4.77489 5.25991C4.25629 4.77943 3.43888 4.8106 2.95839 5.32914C2.47791 5.84775 2.50908 6.66516 3.02768 7.14565L5.11133 9.07628V5.57157H5.11128Z" fill="#F9BA8F"/>
<path d="M3.71128 6.17928C3.39316 5.88452 3.25934 5.46309 3.31364 5.06152C3.18387 5.12797 3.0629 5.21623 2.95839 5.32895C2.47791 5.84755 2.50908 6.66496 3.02768 7.14545L5.11133 9.07608V7.47652L3.71128 6.17928Z" fill="#FCAD6D"/>
<path d="M21.8025 20.2559C21.3463 23.4018 18.6387 25.8186 15.3663 25.8186C14.8013 25.8186 14.2532 25.7465 13.7307 25.6111C14.5971 26.1409 15.3765 26.9152 15.5387 27.8244L15.5592 27.9095C18.5595 27.5617 21.2572 26.2233 23.3172 24.2292L21.8025 20.2559Z" fill="#FD995B"/>
<path d="M15.8382 22.3166H6.96598C5.91686 22.3166 5.06329 21.463 5.06329 20.4139V1.90274C5.06329 0.853562 5.9168 0 6.96598 0H15.8382C16.8873 0 17.7409 0.853562 17.7409 1.90274V20.4139C17.7409 21.463 16.8873 22.3166 15.8382 22.3166Z" fill="#2A428C"/>
<path d="M6.96598 0C5.91686 0 5.06329 0.853562 5.06329 1.90269V20.4139C5.06329 21.463 5.91686 22.3166 6.96598 22.3166H10.2861C9.7283 21.7588 10.2861 21.1328 10.2861 21.1328C8.90558 19.1384 10.3633 17.1717 10.3633 17.1717L10.9744 5.04952C9.33433 4.47185 9.90543 2.16005 9.90543 2.16005C9.49703 1.75164 9.81044 1.36352 9.81044 1.36352V0.705852C9.47362 0.499625 9.62883 0.0828516 9.66393 0L6.96598 0Z" fill="#142766"/>
<path d="M10.0004 1.36373H9.81046C9.62885 1.36373 9.48163 1.21651 9.48163 1.03489C9.48163 0.853273 9.62885 0.706055 9.81046 0.706055H10.0004C10.1821 0.706055 10.3293 0.853273 10.3293 1.03489C10.3293 1.21651 10.1821 1.36373 10.0004 1.36373Z" fill="#3C58A0"/>
<path d="M12.9485 1.36373H11.1229C10.9413 1.36373 10.7941 1.21651 10.7941 1.03489C10.7941 0.853273 10.9413 0.706055 11.1229 0.706055H12.9485C13.1301 0.706055 13.2773 0.853273 13.2773 1.03489C13.2773 1.21651 13.1301 1.36373 12.9485 1.36373Z" fill="#3C58A0"/>
<path d="M15.8382 1.18359H14.5048C14.2562 1.18359 14.0547 1.38512 14.0547 1.63367C14.0547 1.92302 13.818 2.15982 13.5285 2.15982H9.27566C8.98631 2.15982 8.74952 1.92308 8.74952 1.63367C8.74952 1.38512 8.54799 1.18359 8.29944 1.18359H6.96599C6.56896 1.18359 6.24707 1.50548 6.24707 1.90252V20.4137C6.24707 20.8107 6.56891 21.1326 6.96599 21.1326H15.8382C16.2352 21.1326 16.5571 20.8107 16.5571 20.4137C16.5571 18.5095 16.5571 2.41073 16.5571 1.90252C16.5571 1.50548 16.2352 1.18359 15.8382 1.18359Z" fill="#E9EFFF"/>
<path d="M9.27567 2.15982C8.98632 2.15982 8.74952 1.92308 8.74952 1.63367C8.74952 1.38506 8.548 1.18359 8.29944 1.18359H6.96599C6.56896 1.18359 6.24707 1.50543 6.24707 1.90252V20.4137C6.24707 20.8107 6.56891 21.1326 6.96599 21.1326H10.2861C8.9056 19.1382 10.3633 17.1714 10.3633 17.1714L10.9744 5.04929C9.33435 4.47162 9.90545 2.15982 9.90545 2.15982H9.27567Z" fill="#BEC8F7"/>
<path d="M13.5091 17.5358C16.1776 17.5358 18.5131 15.7165 18.5131 15.7165C19.5767 14.5285 20.2237 12.9599 20.2237 11.24C20.2237 7.53162 17.2174 4.52539 13.5091 4.52539C9.80072 4.52539 6.79449 7.53162 6.79449 11.24C6.79449 12.9599 7.44145 14.5285 8.50484 15.7164C8.50484 15.7164 10.8405 17.5358 13.5091 17.5358Z" fill="#73C3F9"/>
<path d="M15.601 12.035C15.601 12.035 14.6189 6.39992 13.8518 5.84019C13.115 5.30261 13.68 4.5868 13.726 4.5308C13.6541 4.52856 13.5825 4.52539 13.5101 4.52539C9.80164 4.52539 6.79547 7.53162 6.79547 11.24C6.79547 12.9599 7.44242 14.5285 8.50582 15.7164C8.50582 15.7164 10.8415 17.5358 13.5101 17.5358C16.1786 17.5358 18.5141 15.7166 18.5141 15.7166C19.156 14.9995 19.6447 14.1433 19.9324 13.1994C17.5916 14.2316 15.601 12.035 15.601 12.035Z" fill="#4FABF7"/>
<path d="M11.7139 15.4598C12.2261 15.8576 12.8582 16.0736 13.5092 16.0736C14.1602 16.0736 14.7923 15.8576 15.3045 15.4598C15.5423 15.2752 15.7899 15.0478 16.029 14.7803C15.891 14.7359 15.7507 14.695 15.6069 14.659C15.5198 14.6372 15.4433 14.5848 15.3939 14.5151C15.1661 14.1938 15.1031 13.6971 15.0907 13.3369C14.9309 13.523 14.7632 13.6786 14.6031 13.803C13.9606 14.3019 13.0569 14.3013 12.4153 13.803C12.2551 13.6786 12.0874 13.523 11.9277 13.3369C11.915 13.7051 11.8494 14.216 11.6091 14.5363C11.5681 14.5909 11.505 14.6356 11.4292 14.6543C11.2796 14.6914 11.1332 14.7337 10.9892 14.7802C11.2283 15.0478 11.4761 15.2751 11.7139 15.4598Z" fill="#FCAD6D"/>
<path d="M13.5004 14.1766C13.1168 14.1748 12.7337 14.0504 12.4152 13.803C12.255 13.6786 12.0874 13.523 11.9277 13.3369C11.9149 13.7051 11.8494 14.216 11.6091 14.5363C11.5681 14.591 11.5049 14.6356 11.4292 14.6544C11.2796 14.6914 11.1332 14.7337 10.9891 14.7802C11.2283 15.0478 11.476 15.2752 11.7138 15.4599C12.0023 15.6839 12.3297 15.848 12.6763 15.9506C13.2279 15.3954 13.4287 14.6691 13.5004 14.1766Z" fill="#FD995B"/>
<path d="M17.9247 15.6053C17.7207 15.5886 17.6121 15.5095 17.3716 15.3738C16.9117 15.1145 16.4366 14.9036 15.9247 14.748C15.6895 15.0153 15.4446 15.2402 15.21 15.4223C14.7247 15.7992 14.1259 16.0038 13.5092 16.0038C12.8925 16.0038 12.2937 15.7992 11.8085 15.4223C11.574 15.2402 11.329 15.0153 11.0939 14.7481C10.5833 14.9035 10.1054 15.1153 9.64688 15.3738C9.40636 15.5095 9.29781 15.5886 9.09371 15.6053C8.87901 15.6229 8.6834 15.6612 8.505 15.7166C9.73449 17.0901 11.5208 17.9547 13.5092 17.9547C15.4977 17.9547 17.284 17.09 18.5135 15.7166C18.3351 15.6612 18.1395 15.6229 17.9247 15.6053Z" fill="#3C58A0"/>
<path d="M12.9811 5.85426C11.3928 6.07066 11.2419 6.9712 11.2412 7.30162C11.241 7.37091 11.2026 7.43512 11.1403 7.46541C10.3141 7.86731 10.7596 9.8044 10.7596 9.8044C10.8425 9.80992 10.967 9.88112 11.0318 9.91251C11.0476 9.8138 11.0735 9.71662 11.1101 9.62273C11.1379 9.55114 11.1727 9.47884 11.2163 9.41054C11.2919 9.29203 11.3263 9.15214 11.316 9.01236C11.2863 8.60827 11.263 7.84954 11.7965 7.60957C12.2483 7.40624 12.8027 7.52398 13.1562 7.64151C13.3858 7.71785 13.6344 7.71785 13.864 7.64151C14.2175 7.52393 14.7718 7.40619 15.2238 7.60957C15.7557 7.84888 15.7338 8.60373 15.7045 9.00891C15.6942 9.14979 15.7278 9.29105 15.8039 9.41054C15.8488 9.48103 15.8845 9.55584 15.9128 9.62967C15.948 9.72144 15.973 9.81626 15.9885 9.91257C16.0702 9.87303 16.2244 9.79231 16.3243 9.80642C16.3366 9.38287 16.3756 8.92623 16.3756 8.92623C16.8462 6.62093 14.6913 5.62124 12.9811 5.85426Z" fill="#2A428C"/>
<path d="M12.9802 5.85413C11.3918 6.07053 11.2409 6.97106 11.2402 7.30149C11.24 7.37077 11.2016 7.43498 11.1393 7.46527C10.3131 7.86717 10.7586 9.80426 10.7586 9.80426C10.8416 9.80978 10.966 9.88098 11.0308 9.91237C11.0466 9.81366 11.0725 9.71648 11.1091 9.62253C11.1369 9.55094 11.1718 9.47865 11.2153 9.41034C11.2909 9.29183 11.3253 9.152 11.315 9.01216C11.2853 8.60802 11.2621 7.84934 11.7955 7.60938C12.2474 7.40605 12.8017 7.52379 13.1552 7.64131C13.2519 7.67347 13.352 7.69124 13.4527 7.69633C13.4372 7.66986 13.4208 7.64361 13.4024 7.61774C12.7209 6.66 13.6681 5.96214 13.8509 5.84018C13.5578 5.81098 13.2629 5.81563 12.9802 5.85413Z" fill="#1C2E7A"/>
<path d="M16.4642 9.86111C16.3405 9.74775 16.0941 9.80522 15.9875 9.87462C16.0109 10.02 16.0122 10.1687 15.992 10.3155L15.8663 11.2313C15.8663 11.3051 15.8639 11.3775 15.8597 11.4486C16.1663 11.5411 16.3186 11.2659 16.3442 11.077C16.3553 10.9957 16.3733 10.9155 16.3983 10.8373C16.4799 10.5827 16.7742 10.1452 16.4642 9.86111Z" fill="#FCAD6D"/>
<path d="M10.554 9.86111C10.6777 9.74775 10.9242 9.80522 11.0307 9.87462C11.0073 10.02 11.006 10.1687 11.0262 10.3155L11.1519 11.2313C11.1519 11.3051 11.1543 11.3775 11.1585 11.4486C10.852 11.5411 10.6997 11.2659 10.674 11.077C10.663 10.9957 10.6449 10.9155 10.6199 10.8373C10.5383 10.5827 10.2441 10.1452 10.554 9.86111Z" fill="#FD995B"/>
<path d="M15.9494 9.59202C15.9211 9.51819 15.8854 9.44343 15.8404 9.37288C15.7643 9.25344 15.7308 9.11213 15.741 8.97126C15.7704 8.56608 15.7546 7.77366 15.2227 7.53429C14.7709 7.33096 14.2165 7.4487 13.863 7.56623C13.6335 7.64257 13.3847 7.64257 13.1551 7.56623C12.8016 7.4487 12.2473 7.33096 11.7954 7.53429C11.262 7.77431 11.2477 8.57062 11.2774 8.9747C11.2877 9.11448 11.2533 9.25432 11.1777 9.37288C11.1341 9.44119 11.0993 9.51354 11.0714 9.58507C10.981 9.81722 10.9547 10.0691 10.9886 10.3156L11.1143 11.2315C11.1143 12.5484 11.8172 13.4434 12.4151 13.9077C12.7272 14.1501 13.1123 14.2817 13.5091 14.2817C13.9057 14.2817 14.2909 14.1501 14.603 13.9077C15.2009 13.4434 15.9038 12.5484 15.9038 11.2315L16.0295 10.3158C16.0631 10.0717 16.0376 9.82236 15.9494 9.59202Z" fill="#F9BA8F"/>
<path d="M14.1614 13.9077C13.5635 13.4434 12.8606 12.5484 12.8606 11.2315L12.7348 10.3156C12.701 10.0691 12.7273 9.81722 12.8177 9.58507C12.8455 9.51348 12.8804 9.44119 12.9239 9.37288C12.9995 9.25432 13.0339 9.11448 13.0236 8.9747C12.9968 8.60934 13.006 7.92339 13.4023 7.61785C13.3187 7.60987 13.2357 7.59302 13.1551 7.56623C12.8016 7.4487 12.2473 7.33096 11.7954 7.53429C11.262 7.77431 11.2477 8.57062 11.2774 8.9747C11.2877 9.11448 11.2533 9.25432 11.1777 9.37288C11.1341 9.44119 11.0993 9.51354 11.0714 9.58507C10.981 9.81722 10.9547 10.0691 10.9886 10.3156L11.1143 11.2315C11.1143 12.5484 11.8172 13.4434 12.4151 13.9077C12.7272 14.1501 13.1123 14.2817 13.509 14.2817C13.8166 14.2817 14.1171 14.2022 14.3822 14.0536C14.3055 14.0106 14.2315 13.9621 14.1614 13.9077Z" fill="#FCAD6D"/>
<path d="M11.8084 15.4223C11.5739 15.2402 11.3289 15.0153 11.0937 14.748C10.5832 14.9035 10.1053 15.1152 9.64676 15.3738C9.40624 15.5094 9.29769 15.5885 9.09359 15.6052C8.87889 15.6228 8.68333 15.6611 8.50488 15.7165C9.03136 16.3046 9.66054 16.7985 10.3633 17.1721C10.6259 16.9559 10.9933 16.7595 11.5082 16.6181C12.0472 16.47 12.443 16.2048 12.7342 15.8914C12.4008 15.7946 12.0857 15.6376 11.8084 15.4223Z" fill="#2A428C"/>
<path d="M21.4152 4.97989V4.46572C21.4152 3.44208 20.5853 2.6123 19.5617 2.6123C18.5382 2.6123 17.7083 3.44213 17.7083 4.46572V4.97989C17.7083 5.89011 17.4004 6.77359 16.8345 7.48655H22.289C21.7232 6.77353 21.4152 5.89011 21.4152 4.97989Z" fill="#FFDD40"/>
<path d="M19.4687 4.05939C19.4687 3.30071 20.0321 2.97795 20.4563 2.84238C20.1911 2.69587 19.8862 2.6123 19.5617 2.6123C18.5381 2.6123 17.7083 3.44213 17.7083 4.46572V4.97989C17.7083 5.89011 17.4004 6.77353 16.8345 7.48649H22.289C22.0665 7.20622 21.8846 6.89926 21.7449 6.57502H20.1596C19.7781 6.57502 19.4688 6.2657 19.4688 5.88415V4.05939H19.4687Z" fill="#FFB332"/>
<path d="M20.3067 9.53545C20.0692 9.94687 19.5432 10.0878 19.1318 9.85029C18.7203 9.61278 18.5794 9.08674 18.8169 8.67533C19.0544 8.26392 19.5805 8.12299 19.9919 8.36049C20.4033 8.598 20.5442 9.12404 20.3067 9.53545Z" fill="#FFDD40"/>
<path d="M22.2889 8.37682H16.8344C16.5634 8.37682 16.3438 8.15714 16.3438 7.88616C16.3438 7.61519 16.5634 7.39551 16.8344 7.39551H22.2889C22.5599 7.39551 22.7795 7.61519 22.7795 7.88616C22.7795 8.15714 22.5599 8.37682 22.2889 8.37682Z" fill="#FCF2C8"/>
<path d="M18.8412 7.88616C18.8412 7.61519 19.0608 7.39551 19.3318 7.39551H16.8344C16.5634 7.39551 16.3438 7.61519 16.3438 7.88616C16.3438 8.15714 16.5634 8.37682 16.8344 8.37682H19.3318C19.0608 8.37682 18.8412 8.15714 18.8412 7.88616Z" fill="#FFE98D"/>
<path d="M6.98191 12.3507C6.55912 12.807 5.84654 12.8342 5.39028 12.4114L3.50373 10.6634C3.04748 10.2406 3.0203 9.52799 3.44308 9.07173C3.86587 8.61547 4.57845 8.58829 5.03471 9.01108L6.92126 10.7591C7.37752 11.1819 7.40464 11.8945 6.98191 12.3507Z" fill="#F9BA8F"/>
<path d="M6.16642 11.6171L4.27986 9.86907C3.96431 9.57671 3.85434 9.14577 3.95611 8.75684C3.76591 8.81174 3.58746 8.91625 3.44309 9.07206C3.0203 9.52831 3.04748 10.2409 3.50373 10.6637L5.39029 12.4117C5.84655 12.8344 6.55913 12.8073 6.98192 12.3511C7.1123 12.2104 7.19963 12.0451 7.24502 11.8717C6.87818 11.9775 6.46687 11.8955 6.16642 11.6171Z" fill="#FCAD6D"/>
<path d="M6.98191 18.4943C6.55912 18.9506 5.84654 18.9777 5.39028 18.555L3.50373 16.8069C3.04748 16.3842 3.0203 15.6715 3.44308 15.2153C3.86587 14.759 4.57845 14.7318 5.03471 15.1546L6.92126 16.9027C7.37752 17.3254 7.40464 18.038 6.98191 18.4943Z" fill="#F9BA8F"/>
<path d="M6.16642 17.7607L4.27986 16.0126C3.96431 15.7203 3.85434 15.2893 3.95611 14.9004C3.76591 14.9553 3.58746 15.0598 3.44309 15.2156C3.0203 15.6719 3.04748 16.3845 3.50373 16.8072L5.39029 18.5553C5.84655 18.978 6.55913 18.9509 6.98192 18.4946C7.1123 18.3539 7.19963 18.1887 7.24502 18.0152C6.87818 18.1211 6.46687 18.0391 6.16642 17.7607Z" fill="#FCAD6D"/>
<path d="M6.98191 15.423C6.55912 15.8793 5.84654 15.9064 5.39028 15.4837L3.50373 13.7356C3.04748 13.3129 3.0203 12.6003 3.44308 12.144C3.86587 11.6877 4.57845 11.6606 5.03471 12.0833L6.92126 13.8314C7.37752 14.2541 7.40464 14.9667 6.98191 15.423Z" fill="#F9BA8F"/>
<path d="M6.16642 14.6894L4.27986 12.9413C3.96431 12.649 3.85434 12.218 3.95611 11.8291C3.76591 11.884 3.58741 11.9885 3.44309 12.1443C3.0203 12.6006 3.04748 13.3132 3.50373 13.7359L5.39029 15.484C5.84655 15.9068 6.55913 15.8796 6.98192 15.4233C7.1123 15.2826 7.19963 15.1174 7.24502 14.9439C6.87818 15.0498 6.46687 14.9678 6.16642 14.6894Z" fill="#FCAD6D"/>
<path d="M21.5377 2.12289C21.3328 2.0262 21.2452 1.78169 21.3419 1.57694L21.5771 1.0789C21.6738 0.874046 21.9182 0.786381 22.1231 0.883124C22.3279 0.979811 22.4156 1.22432 22.3188 1.42907L22.0837 1.92711C21.9869 2.13202 21.7424 2.21963 21.5377 2.12289Z" fill="#FFDD40"/>
<path d="M23.0753 5.2575L22.5773 5.02234C22.3724 4.9256 22.2848 4.68115 22.3815 4.47634C22.4783 4.27149 22.7227 4.18382 22.9275 4.28062L23.4256 4.51577C23.6304 4.61252 23.718 4.85697 23.6213 5.06183C23.5245 5.26663 23.2801 5.35424 23.0753 5.2575Z" fill="#FFDD40"/>
<path d="M23.49 3.18697L22.9716 3.37285C22.7583 3.44925 22.5235 3.3384 22.4471 3.12517C22.3707 2.912 22.4815 2.67761 22.6947 2.60066L23.2131 2.41478C23.4264 2.33838 23.6612 2.44923 23.7376 2.66246C23.8135 2.87415 23.7051 3.10947 23.49 3.18697Z" fill="#FFDD40"/>
<path d="M19.8667 9.28359C20.0351 9.28359 20.1716 9.14709 20.1716 8.97871C20.1716 8.81033 20.0351 8.67383 19.8667 8.67383C19.6983 8.67383 19.5618 8.81033 19.5618 8.97871C19.5618 9.14709 19.6983 9.28359 19.8667 9.28359Z" fill="#FFE98D"/>
</g>
<defs>
<clipPath id="clip0_2715_495">
<rect width="28" height="28" fill="white"/>
</clipPath>
</defs>
</svg>
