<svg width="12" height="12" viewBox="0 0 12 12" fill="none" xmlns="http://www.w3.org/2000/svg">
<rect width="12" height="12" rx="2" fill="#C6C6C6"/>
<path d="M8.98435 5.26733C8.94507 5.14055 8.83731 5.05051 8.70982 5.03852L6.97806 4.87443L6.29327 3.20192C6.24278 3.07934 6.12779 3 6.00002 3C5.87226 3 5.75727 3.07934 5.70677 3.2022L5.02199 4.87443L3.28995 5.03852C3.16269 5.05079 3.05521 5.14055 3.0157 5.26733C2.97619 5.39411 3.01268 5.53316 3.10895 5.62081L4.41796 6.81875L4.03196 8.59301C4.00372 8.72347 4.05224 8.85832 4.15597 8.93656C4.21173 8.9786 4.27696 9 4.34274 9C4.39946 9 4.45572 8.98405 4.50621 8.95252L6.00002 8.02089L7.49328 8.95252C7.60256 9.02111 7.7403 9.01486 7.8438 8.93656C7.94758 8.85808 7.99606 8.72318 7.96781 8.59301L7.58182 6.81875L8.89082 5.62105C8.98709 5.53316 9.02385 5.39434 8.98435 5.26733V5.26733Z" fill="white"/>
</svg>
