<svg width="15" height="15" viewBox="0 0 15 15" fill="none" xmlns="http://www.w3.org/2000/svg">
<g opacity="0.3">
<path d="M14.7071 9.41514C14.7071 7.097 12.8278 5.21777 10.5097 5.21777C8.19154 5.21777 6.31226 7.097 6.31226 9.41514C6.31226 11.7333 8.19148 13.6125 10.5096 13.6125C10.9672 13.6125 11.4075 13.539 11.8198 13.4037L13.1221 14.7061V12.7003C14.0879 11.9313 14.7071 10.7456 14.7071 9.41514Z" fill="#000000"/>
<path d="M4.62812 0.293945C2.23389 0.293945 0.292969 2.23487 0.292969 4.6291C0.292969 5.97776 0.908878 7.18256 1.87471 7.97765V9.79418L3.01498 8.65391C3.51364 8.85398 4.05795 8.96423 4.62812 8.96423C7.02236 8.96423 8.96328 7.0233 8.96328 4.62907C8.96328 2.23484 7.02236 0.293945 4.62812 0.293945Z" fill="#000000"/>
<path d="M10.5097 4.92507C10.0721 4.92507 9.64405 4.98735 9.23132 5.10999C9.24766 4.9522 9.2561 4.79209 9.2561 4.63005C9.2561 3.88857 9.08592 3.18008 8.75035 2.52433C8.67655 2.38031 8.50009 2.32332 8.35613 2.39701C8.21213 2.47075 8.15512 2.6472 8.2288 2.79123C8.52172 3.36354 8.67022 3.98221 8.67022 4.63002C8.67022 6.85893 6.85689 8.67223 4.62801 8.67223C4.1084 8.67223 3.60232 8.57494 3.12393 8.38296C3.01509 8.33939 2.89067 8.36479 2.80773 8.4477L2.16756 9.08793V7.9786C2.16756 7.89106 2.12839 7.80809 2.0608 7.75243C1.12345 6.98078 0.585821 5.84271 0.585821 4.63002C0.585821 2.40111 2.39915 0.587804 4.62804 0.587804C5.16602 0.587804 5.68832 0.691691 6.18048 0.896594C6.33927 0.962687 6.49551 1.03988 6.64484 1.12605C6.78493 1.20685 6.96406 1.15883 7.04492 1.0187C7.12575 0.878605 7.0777 0.699454 6.93757 0.618624C6.76654 0.519982 6.58756 0.431505 6.40566 0.355772C5.84181 0.121016 5.24374 0.00195312 4.62807 0.00195312C2.07616 0.00195312 0 2.07811 0 4.63002C0 5.97176 0.574659 7.23361 1.58174 8.11413V9.79507C1.58174 9.91354 1.65314 10.0204 1.76256 10.0657C1.7988 10.0807 1.83689 10.088 1.87459 10.088C1.95085 10.088 2.02574 10.0582 2.08178 10.0022L3.08845 8.99553C3.58205 9.16981 4.09899 9.25806 4.62807 9.25806C5.11861 9.25806 5.59144 9.18106 6.03543 9.039C6.02497 9.16416 6.01941 9.28978 6.01941 9.41532C6.01941 10.101 6.17002 10.7593 6.46706 11.372C6.51772 11.4764 6.6221 11.5372 6.73082 11.5372C6.77371 11.5372 6.81725 11.5278 6.85841 11.5078C7.00396 11.4372 7.06475 11.262 6.99417 11.1164C6.73607 10.5841 6.6052 10.0118 6.6052 9.41535C6.6052 9.20585 6.62228 8.99605 6.65553 8.78966C7.86312 8.19865 8.7771 7.09711 9.11436 5.76791C9.55906 5.59746 10.0277 5.51089 10.5097 5.51089C12.6626 5.51089 14.4141 7.26244 14.4141 9.41535C14.4141 10.6113 13.8767 11.7252 12.9397 12.4714C12.8698 12.527 12.8292 12.6113 12.8292 12.7006V13.9992L12.0269 13.1968C11.9487 13.1187 11.8333 13.0912 11.7284 13.1256C11.3359 13.2545 10.9258 13.3198 10.5097 13.3198C9.91434 13.3198 9.34291 13.1894 8.81132 12.9322C8.66577 12.8617 8.49054 12.9226 8.42005 13.0682C8.3496 13.2138 8.41053 13.389 8.55614 13.4595C9.16795 13.7555 9.82522 13.9056 10.5097 13.9056C10.9268 13.9056 11.3389 13.8484 11.7371 13.7354L12.915 14.9134C12.9711 14.9694 13.046 14.9992 13.1222 14.9992C13.1599 14.9992 13.198 14.9919 13.2342 14.9769C13.3437 14.9315 13.4151 14.8247 13.4151 14.7063V12.8389C14.4242 11.9827 15 10.7431 15 9.41532C15 6.93941 12.9857 4.92507 10.5097 4.92507Z" fill="#000000"/>
<path d="M7.76374 12.1903C7.6489 12.0765 7.46339 12.0773 7.34951 12.1922C7.23563 12.307 7.23648 12.4925 7.35136 12.6064C7.3617 12.6167 7.37207 12.6268 7.3825 12.6369C7.43942 12.6922 7.51299 12.7196 7.58649 12.7196C7.66293 12.7196 7.73931 12.6899 7.79673 12.6308C7.9094 12.5146 7.90662 12.3292 7.79055 12.2166C7.78152 12.2079 7.77262 12.1991 7.76374 12.1903Z" fill="#EFEFEF"/>
<path d="M7.59817 1.88729C7.66139 1.95382 7.7383 1.98233 7.81259 1.98233C7.88888 1.98233 7.9623 1.95224 8.01521 1.90237C8.11957 1.80388 8.15153 1.62089 8.02433 1.48519C7.89715 1.34946 7.71249 1.3695 7.60743 1.46735C7.50239 1.56511 7.46923 1.74789 7.59553 1.88445C7.59638 1.88538 7.59729 1.88635 7.59817 1.88729Z" fill="#EFEFEF"/>
<path d="M3.35401 3.61904C3.29952 3.56455 3.22423 3.5332 3.14691 3.5332C3.06986 3.5332 2.99431 3.56455 2.93981 3.61904C2.88535 3.67351 2.854 3.74906 2.854 3.82611C2.854 3.90316 2.88535 3.97872 2.93981 4.03321C2.99431 4.08771 3.06986 4.11902 3.14691 4.11902C3.22397 4.11902 3.29952 4.08771 3.35401 4.03321C3.4088 3.97872 3.43983 3.90316 3.43983 3.82611C3.43983 3.74906 3.40877 3.67348 3.35401 3.61904Z" fill="#EFEFEF"/>
<path d="M6.31642 4.03321C6.37091 3.97872 6.40223 3.90316 6.40223 3.82611C6.40223 3.74906 6.37091 3.6735 6.31642 3.61904C6.26195 3.56455 6.1864 3.5332 6.10932 3.5332C6.03197 3.5332 5.95642 3.56455 5.90195 3.61904C5.84746 3.6735 5.81641 3.74906 5.81641 3.82611C5.81641 3.90316 5.84749 3.97872 5.90195 4.03321C5.95671 4.0877 6.03227 4.11902 6.10932 4.11902C6.18637 4.11902 6.26163 4.08773 6.31642 4.03321Z" fill="#EFEFEF"/>
<path d="M4.62799 6.72865C5.24982 6.72865 5.79629 6.30877 5.95693 5.70751C5.99871 5.55121 5.90584 5.39069 5.74954 5.34891C5.59315 5.30705 5.43269 5.40004 5.39094 5.55631C5.29872 5.90163 4.98498 6.1428 4.62799 6.1428C4.27101 6.1428 3.9573 5.90163 3.86504 5.55631C3.8233 5.40001 3.66278 5.30702 3.50645 5.34891C3.35015 5.39069 3.25731 5.55121 3.29906 5.70751C3.45969 6.30877 4.00617 6.72865 4.62799 6.72865Z" fill="#EFEFEF"/>
<path d="M9.07782 8.33789C9.00077 8.33789 8.92521 8.36921 8.87072 8.4237C8.81623 8.47822 8.78491 8.55375 8.78491 8.6308C8.78491 8.70812 8.81623 8.78341 8.87072 8.83787C8.92521 8.89237 9.00077 8.92371 9.07782 8.92371C9.15517 8.92371 9.23043 8.89237 9.28489 8.83787C9.33968 8.78341 9.37073 8.70785 9.37073 8.6308C9.37073 8.55375 9.33965 8.47819 9.28489 8.4237C9.23043 8.36924 9.15514 8.33789 9.07782 8.33789Z" fill="#EFEFEF"/>
<path d="M12.1487 8.83885C12.2032 8.78439 12.2345 8.70883 12.2345 8.63178C12.2345 8.55473 12.2032 8.47917 12.1487 8.42468C12.0942 8.37019 12.0189 8.33887 11.9416 8.33887C11.8645 8.33887 11.789 8.37019 11.7345 8.42468C11.68 8.47917 11.6487 8.55473 11.6487 8.63178C11.6487 8.70912 11.68 8.78439 11.7345 8.83885C11.789 8.89334 11.8645 8.92469 11.9416 8.92469C12.0189 8.92466 12.0942 8.89331 12.1487 8.83885Z" fill="#EFEFEF"/>
<path d="M10.5097 10.085C9.90417 10.085 9.37199 10.4939 9.21557 11.0793C9.17379 11.2356 9.26667 11.3961 9.42296 11.4379C9.57938 11.4798 9.73978 11.3868 9.78156 11.2305C9.8696 10.901 10.1691 10.6708 10.5097 10.6708C10.8504 10.6708 11.1498 10.901 11.2378 11.2305C11.2728 11.3615 11.3912 11.4479 11.5206 11.4479C11.5456 11.4479 11.5711 11.4447 11.5964 11.4379C11.7527 11.3961 11.8456 11.2356 11.8038 11.0793C11.6474 10.4939 11.1153 10.085 10.5097 10.085Z" fill="#EFEFEF"/>
</g>
</svg>
