<svg width="12" height="12" viewBox="0 0 12 12" fill="none" xmlns="http://www.w3.org/2000/svg">
<path d="M5.98435 2.26733C5.94507 2.14055 5.83731 2.05051 5.70982 2.03852L3.97806 1.87443L3.29327 0.201917C3.24278 0.0793434 3.12779 0 3.00002 0C2.87226 0 2.75727 0.0793433 2.70677 0.202204L2.02199 1.87443L0.289954 2.03852C0.162692 2.05079 0.0552068 2.14055 0.0157009 2.26733C-0.023805 2.39411 0.0126796 2.53316 0.10895 2.62081L1.41796 3.81875L1.03196 5.59301C1.00372 5.72347 1.05224 5.85832 1.15597 5.93656C1.21173 5.9786 1.27696 6 1.34274 6C1.39946 6 1.45572 5.98405 1.50621 5.95252L3.00002 5.02089L4.49328 5.95252C4.60256 6.02111 4.7403 6.01486 4.8438 5.93656C4.94758 5.85808 4.99606 5.72318 4.96781 5.59301L4.58182 3.81875L5.89082 2.62105C5.98709 2.53316 6.02385 2.39434 5.98435 2.26733Z" fill="white"/>
</svg>
