<svg width="20" height="20" viewBox="0 0 16 16" fill="none" xmlns="http://www.w3.org/2000/svg">
<g clip-path="url(#clip0)">
<path d="M12.3589 9.37498H10.2211V7.03123C10.2211 6.25458 9.59155 5.62498 8.8149 5.62498H7.8774C7.61852 5.62498 7.40865 5.83486 7.40865 6.09373V7.5842C7.40865 8.42236 6.94996 9.0962 6.72658 9.37498H5.53365C5.01587 9.37498 4.59615 9.79473 4.59615 10.3125V14.5937C4.59615 14.8526 4.80602 15.0625 5.0649 15.0625H6.75312C7.42146 15.6603 8.30218 16 9.1994 16H11.7958C12.4669 16 13.0474 15.5253 13.1783 14.851L13.7395 11.0472C13.8164 10.6329 13.7075 10.2099 13.4392 9.88536C13.1719 9.56083 12.7782 9.37498 12.3589 9.37498ZM15.7317 3.49455C15.6768 3.32564 15.5312 3.20205 15.3554 3.17548L14.3685 3.02717L13.9217 2.13408C13.7624 1.81639 13.2424 1.81639 13.0831 2.13408L12.6363 3.02717L11.6494 3.17548C11.4736 3.20205 11.328 3.32564 11.2731 3.49455C11.2181 3.66345 11.2639 3.84886 11.3903 3.97336L12.1016 4.67373L11.9378 5.65883C11.9085 5.8337 11.9808 6.01039 12.1246 6.11477C12.2683 6.21958 12.4596 6.23286 12.6162 6.15186L13.5024 5.69183L14.3886 6.15189C14.5445 6.23298 14.736 6.2202 14.8802 6.1148C15.024 6.01042 15.0963 5.83373 15.067 5.65886L14.9031 4.67377L15.6145 3.97339C15.7409 3.84886 15.7866 3.66345 15.7317 3.49455ZM6.47665 2.77792L6.31277 3.76302C6.28346 3.93789 6.3558 4.11458 6.49955 4.21895C6.6433 4.32333 6.83371 4.33752 6.99118 4.25605L7.8774 3.79598L8.76362 4.25605C8.91949 4.33714 9.11096 4.32436 9.25524 4.21895C9.39899 4.11458 9.4713 3.93789 9.44202 3.76302L9.27815 2.77792L9.98952 2.07755C10.1159 1.95305 10.1616 1.76764 10.1067 1.59873C10.0518 1.42983 9.90621 1.30623 9.73043 1.27967L8.74349 1.13136L8.29671 0.238266C8.1374 -0.0794219 7.6174 -0.0794219 7.45808 0.238266L7.0113 1.13136L6.02437 1.27967C5.84858 1.30623 5.70302 1.42983 5.64808 1.59873C5.59315 1.76764 5.63893 1.95305 5.76527 2.07755L6.47665 2.77792ZM4.10543 3.17548L3.11849 3.02717L2.67171 2.13408C2.5124 1.81639 1.9924 1.81639 1.83308 2.13408L1.3863 3.02717L0.399365 3.17548C0.223584 3.20205 0.0780216 3.32564 0.0230841 3.49455C-0.0318534 3.66345 0.0139279 3.84886 0.140272 3.97336L0.851647 4.67373L0.687772 5.65883C0.658459 5.8337 0.730803 6.01039 0.874553 6.11477C1.01737 6.21958 1.20871 6.23286 1.36618 6.15186L2.2524 5.69183L3.13862 6.15189C3.29449 6.23298 3.48596 6.2202 3.63024 6.1148C3.77399 6.01042 3.8463 5.83373 3.81702 5.65886L3.65315 4.67377L4.36452 3.97339C4.49087 3.84889 4.53665 3.66348 4.48171 3.49458C4.42677 3.32567 4.28121 3.20205 4.10543 3.17548Z" fill="url(#paint0_linear)"/>
<path d="M2.375 9.375C2.11612 9.375 1.90625 9.58487 1.90625 9.84375V15.5312C1.90625 15.7901 2.11612 16 2.375 16H5.1875C5.44637 16 5.65625 15.7901 5.65625 15.5312V9.375H2.375Z" fill="url(#paint1_linear)"/>
</g>
<defs>
<linearGradient id="paint0_linear" x1="7.8774" y1="16" x2="7.8774" y2="-1.52588e-05" gradientUnits="userSpaceOnUse">
<stop stop-color="#F4756B"/>
<stop offset="1" stop-color="#FFDE00"/>
</linearGradient>
<linearGradient id="paint1_linear" x1="3.78125" y1="16" x2="3.78125" y2="9.375" gradientUnits="userSpaceOnUse">
<stop stop-color="#FFE59A"/>
<stop offset="1" stop-color="#FFFFD5"/>
</linearGradient>
<clipPath id="clip0">
<rect width="16" height="16" fill="white"/>
</clipPath>
</defs>
</svg>
