<svg width="37" height="55" viewBox="0 0 37 55" fill="none" xmlns="http://www.w3.org/2000/svg">
<path d="M18 37V39.6154V54" stroke="#979797" stroke-linecap="round"/>
<circle cx="18.5" cy="18.5" r="15.5" fill="#979797"/>
<circle cx="18.5" cy="18.5" r="18" stroke="#979797"/>
<path opacity="0.75" d="M8.99553 23.7251V23.043C10.6767 22.9033 11.6274 22.0547 11.6274 20.6851C11.6274 19.5249 10.9506 18.8105 9.57023 18.5151L8.99553 18.397V16.4849C9.55949 16.5654 9.96232 16.9683 9.97844 17.457H11.477C11.4555 16.2163 10.4887 15.3408 8.99553 15.2012V14.4707H8.24357V15.2012C6.64299 15.3301 5.69768 16.1787 5.69768 17.5C5.69768 18.6226 6.39055 19.3638 7.67961 19.6646L8.24357 19.7988V21.7969C7.57219 21.7271 7.11564 21.3296 7.07805 20.7979H5.54191C5.54729 22.1084 6.56242 22.957 8.24357 23.0537V23.7251H8.99553ZM10.102 20.8677C10.102 21.4102 9.69377 21.7593 8.99553 21.8022V19.9331C9.74748 20.0728 10.102 20.3735 10.102 20.8677ZM7.25529 17.3496C7.25529 16.8716 7.6635 16.5117 8.24357 16.4795V18.2412C7.59367 18.1123 7.25529 17.8008 7.25529 17.3496ZM14.8287 23H16.4508V15.2495H14.8341L12.8307 16.6299V18.1392L14.7321 16.8286H14.8287V23ZM21.3119 23.1987C23.0897 23.1987 24.2767 22.0762 24.2767 20.4326C24.2767 18.9126 23.2347 17.833 21.763 17.833C20.995 17.833 20.4471 18.1177 20.1195 18.5903H20.0228L20.1947 16.5977H23.8094V15.2495H18.9379L18.5511 19.7451H20.0013C20.2699 19.3101 20.7264 19.0469 21.328 19.0469C22.1498 19.0469 22.7298 19.6162 22.7298 20.4702C22.7298 21.3135 22.1551 21.8721 21.3226 21.8721C20.5868 21.8721 20.0174 21.4424 19.9261 20.7979H18.4276C18.4759 22.1836 19.6254 23.1987 21.3119 23.1987ZM28.4503 23.1987C30.3678 23.1987 31.5279 21.6787 31.5279 19.1167C31.5279 16.5439 30.3516 15.0508 28.4503 15.0508C26.5435 15.0508 25.3726 16.5439 25.3726 19.1113C25.3726 21.6841 26.5328 23.1987 28.4503 23.1987ZM28.4503 21.8774C27.564 21.8774 27.0162 20.9214 27.0162 19.1113C27.0162 17.312 27.5694 16.3774 28.4503 16.3774C29.3365 16.3774 29.8844 17.3066 29.8844 19.1113C29.8844 20.9268 29.3419 21.8774 28.4503 21.8774Z" fill="white"/>
</svg>
