<svg width="37" height="55" viewBox="0 0 37 55" fill="none" xmlns="http://www.w3.org/2000/svg">
<path d="M18 37V39.6154V54" stroke="#979797" stroke-linecap="round"/>
<circle cx="18.5" cy="18.5" r="15.5" fill="#979797"/>
<circle cx="18.5" cy="18.5" r="18" stroke="#979797"/>
<path opacity="0.75" d="M8.38273 23.7251V23.043C10.0639 22.9033 11.0146 22.0547 11.0146 20.6851C11.0146 19.5249 10.3378 18.8105 8.95744 18.5151L8.38273 18.397V16.4849C8.9467 16.5654 9.34953 16.9683 9.36564 17.457H10.8642C10.8427 16.2163 9.8759 15.3408 8.38273 15.2012V14.4707H7.63078V15.2012C6.0302 15.3301 5.08488 16.1787 5.08488 17.5C5.08488 18.6226 5.77775 19.3638 7.06682 19.6646L7.63078 19.7988V21.7969C6.95939 21.7271 6.50285 21.3296 6.46525 20.7979H4.92912C4.93449 22.1084 5.94963 22.957 7.63078 23.0537V23.7251H8.38273ZM9.48918 20.8677C9.48918 21.4102 9.08098 21.7593 8.38273 21.8022V19.9331C9.13469 20.0728 9.48918 20.3735 9.48918 20.8677ZM6.6425 17.3496C6.6425 16.8716 7.0507 16.5117 7.63078 16.4795V18.2412C6.98088 18.1123 6.6425 17.8008 6.6425 17.3496ZM14.216 23H15.838V15.2495H14.2213L12.2179 16.6299V18.1392L14.1193 16.8286H14.216V23ZM20.7528 23.1987C22.6703 23.1987 23.8304 21.6787 23.8304 19.1167C23.8304 16.5439 22.6542 15.0508 20.7528 15.0508C18.8461 15.0508 17.6752 16.5439 17.6752 19.1113C17.6752 21.6841 18.8353 23.1987 20.7528 23.1987ZM20.7528 21.8774C19.8666 21.8774 19.3187 20.9214 19.3187 19.1113C19.3187 17.312 19.8719 16.3774 20.7528 16.3774C21.639 16.3774 22.1869 17.3066 22.1869 19.1113C22.1869 20.9268 21.6444 21.8774 20.7528 21.8774ZM28.0631 23.1987C29.9805 23.1987 31.1407 21.6787 31.1407 19.1167C31.1407 16.5439 29.9644 15.0508 28.0631 15.0508C26.1563 15.0508 24.9854 16.5439 24.9854 19.1113C24.9854 21.6841 26.1456 23.1987 28.0631 23.1987ZM28.0631 21.8774C27.1768 21.8774 26.629 20.9214 26.629 19.1113C26.629 17.312 27.1822 16.3774 28.0631 16.3774C28.9493 16.3774 29.4971 17.3066 29.4971 19.1113C29.4971 20.9268 28.9547 21.8774 28.0631 21.8774Z" fill="white"/>
</svg>
