<svg width="37" height="55" viewBox="0 0 37 55" fill="none" xmlns="http://www.w3.org/2000/svg">
<!-- <path d="M18 37V39.6154V54" stroke="#EF3340" stroke-linecap="round"/> -->
<!-- <circle cx="18.5" cy="18.5" r="15.5" fill="#EF3340"/>
<circle cx="18.5" cy="18.5" r="18" stroke="#EF3340"/> -->
<path d="M18 37V39.6154V54" stroke="#979797" stroke-linecap="round"/>
<circle cx="18.5" cy="18.5" r="15.5" fill="#979797"/>
<circle cx="18.5" cy="18.5" r="18" stroke="#979797"/>
<path opacity="0.75" d="M12.5379 23.7251V23.043C14.219 22.9033 15.1697 22.0547 15.1697 20.6851C15.1697 19.5249 14.4929 18.8105 13.1126 18.5151L12.5379 18.397V16.4849C13.1018 16.5654 13.5047 16.9683 13.5208 17.457H15.0193C14.9978 16.2163 14.031 15.3408 12.5379 15.2012V14.4707H11.7859V15.2012C10.1853 15.3301 9.24002 16.1787 9.24002 17.5C9.24002 18.6226 9.93289 19.3638 11.222 19.6646L11.7859 19.7988V21.7969C11.1145 21.7271 10.658 21.3296 10.6204 20.7979H9.08426C9.08963 22.1084 10.1048 22.957 11.7859 23.0537V23.7251H12.5379ZM13.6443 20.8677C13.6443 21.4102 13.2361 21.7593 12.5379 21.8022V19.9331C13.2898 20.0728 13.6443 20.3735 13.6443 20.8677ZM10.7976 17.3496C10.7976 16.8716 11.2058 16.5117 11.7859 16.4795V18.2412C11.136 18.1123 10.7976 17.8008 10.7976 17.3496ZM18.3711 23H19.9932V15.2495H18.3765L16.373 16.6299V18.1392L18.2744 16.8286H18.3711V23ZM24.9079 23.1987C26.8254 23.1987 27.9856 21.6787 27.9856 19.1167C27.9856 16.5439 26.8093 15.0508 24.9079 15.0508C23.0012 15.0508 21.8303 16.5439 21.8303 19.1113C21.8303 21.6841 22.9904 23.1987 24.9079 23.1987ZM24.9079 21.8774C24.0217 21.8774 23.4738 20.9214 23.4738 19.1113C23.4738 17.312 24.0271 16.3774 24.9079 16.3774C25.7942 16.3774 26.342 17.3066 26.342 19.1113C26.342 20.9268 25.7995 21.8774 24.9079 21.8774Z" fill="white"/>
</svg>
