<svg width="37" height="55" viewBox="0 0 37 55" fill="none" xmlns="http://www.w3.org/2000/svg">
<path d="M18 37V39.6154V54" stroke="#979797" stroke-linecap="round"/>
<circle cx="18.5" cy="18.5" r="15.5" fill="#979797"/>
<circle cx="18.5" cy="18.5" r="18" stroke="#979797"/>
<path opacity="0.75" d="M11.2107 23.7251V23.043C12.8919 22.9033 13.8426 22.0547 13.8426 20.6851C13.8426 19.5249 13.1658 18.8105 11.7854 18.5151L11.2107 18.397V16.4849C11.7747 16.5654 12.1775 16.9683 12.1936 17.457H13.6922C13.6707 16.2163 12.7039 15.3408 11.2107 15.2012V14.4707H10.4588V15.2012C8.85818 15.3301 7.91287 16.1787 7.91287 17.5C7.91287 18.6226 8.60574 19.3638 9.8948 19.6646L10.4588 19.7988V21.7969C9.78738 21.7271 9.33084 21.3296 9.29324 20.7979H7.75711C7.76248 22.1084 8.77762 22.957 10.4588 23.0537V23.7251H11.2107ZM12.3172 20.8677C12.3172 21.4102 11.909 21.7593 11.2107 21.8022V19.9331C11.9627 20.0728 12.3172 20.3735 12.3172 20.8677ZM9.47049 17.3496C9.47049 16.8716 9.87869 16.5117 10.4588 16.4795V18.2412C9.80887 18.1123 9.47049 17.8008 9.47049 17.3496ZM18.0967 23.1987C19.8745 23.1987 21.0615 22.0762 21.0615 20.4326C21.0615 18.9126 20.0195 17.833 18.5479 17.833C17.7798 17.833 17.2319 18.1177 16.9043 18.5903H16.8076L16.9795 16.5977H20.5942V15.2495H15.7227L15.3359 19.7451H16.7861C17.0547 19.3101 17.5112 19.0469 18.1128 19.0469C18.9346 19.0469 19.5146 19.6162 19.5146 20.4702C19.5146 21.3135 18.9399 21.8721 18.1074 21.8721C17.3716 21.8721 16.8022 21.4424 16.7109 20.7979H15.2124C15.2607 22.1836 16.4102 23.1987 18.0967 23.1987ZM25.2351 23.1987C27.1526 23.1987 28.3127 21.6787 28.3127 19.1167C28.3127 16.5439 27.1364 15.0508 25.2351 15.0508C23.3283 15.0508 22.1574 16.5439 22.1574 19.1113C22.1574 21.6841 23.3176 23.1987 25.2351 23.1987ZM25.2351 21.8774C24.3488 21.8774 23.801 20.9214 23.801 19.1113C23.801 17.312 24.3542 16.3774 25.2351 16.3774C26.1213 16.3774 26.6692 17.3066 26.6692 19.1113C26.6692 20.9268 26.1267 21.8774 25.2351 21.8774Z" fill="white"/>
</svg>
