<svg width="16" height="16" viewBox="0 0 16 16" fill="none" xmlns="http://www.w3.org/2000/svg">
<g clip-path="url(#clip0)">
<path d="M7.69461 13.3335H1.59965C1.01055 13.3335 0.53302 12.8559 0.53302 12.2669V11.2002H8.71918L7.69461 13.3335Z" fill="#D3DCFB"/>
<path d="M14.4007 4.80048V9.28166V12.2671H1.59965C1.01055 12.2671 0.53302 11.7895 0.53302 11.2004V4.80048L8.00021 2.13379L14.4007 4.80048Z" fill="#EBF5FC"/>
<path d="M2.41663 6.93287H1.84998C1.71191 6.93287 1.59998 6.82093 1.59998 6.68287V6.11621C1.59998 5.97815 1.71191 5.86621 1.84998 5.86621H2.41663C2.5547 5.86621 2.66664 5.97815 2.66664 6.11621V6.68287C2.66664 6.82093 2.5547 6.93287 2.41663 6.93287Z" fill="#3C58A0"/>
<path d="M4.54987 6.93287H3.98322C3.84515 6.93287 3.73322 6.82093 3.73322 6.68287V6.11621C3.73322 5.97815 3.84515 5.86621 3.98322 5.86621H4.54987C4.68793 5.86621 4.79987 5.97815 4.79987 6.11621V6.68287C4.79987 6.82093 4.68793 6.93287 4.54987 6.93287Z" fill="#3C58A0"/>
<path d="M6.68308 6.93287H6.11642C5.97836 6.93287 5.86642 6.82093 5.86642 6.68287V6.11621C5.86642 5.97815 5.97836 5.86621 6.11642 5.86621H6.68308C6.82114 5.86621 6.93308 5.97815 6.93308 6.11621V6.68287C6.93308 6.82093 6.82117 6.93287 6.68308 6.93287Z" fill="#3C58A0"/>
<path d="M8.81681 6.93287H8.25015C8.11209 6.93287 8.00015 6.82093 8.00015 6.68287V6.11621C8.00015 5.97815 8.11209 5.86621 8.25015 5.86621H8.81681C8.95487 5.86621 9.06681 5.97815 9.06681 6.11621V6.68287C9.06681 6.82093 8.95487 6.93287 8.81681 6.93287Z" fill="#3C58A0"/>
<path d="M10.9494 6.93287H10.3828C10.2447 6.93287 10.1328 6.82093 10.1328 6.68287V6.11621C10.1328 5.97815 10.2447 5.86621 10.3828 5.86621H10.9494C11.0875 5.86621 11.1994 5.97815 11.1994 6.11621V6.68287C11.1994 6.82093 11.0875 6.93287 10.9494 6.93287Z" fill="#3C58A0"/>
<path d="M13.0831 6.93287H12.5165C12.3784 6.93287 12.2665 6.82093 12.2665 6.68287V6.11621C12.2665 5.97815 12.3784 5.86621 12.5165 5.86621H13.0831C13.2212 5.86621 13.3331 5.97815 13.3331 6.11621V6.68287C13.3331 6.82093 13.2212 6.93287 13.0831 6.93287Z" fill="#3C58A0"/>
<path d="M2.41663 9.06666H1.84998C1.71191 9.06666 1.59998 8.95472 1.59998 8.81666V8.25C1.59998 8.11194 1.71191 8 1.84998 8H2.41663C2.5547 8 2.66664 8.11194 2.66664 8.25V8.81666C2.66664 8.95475 2.5547 9.06666 2.41663 9.06666Z" fill="#3C58A0"/>
<path d="M4.54987 9.06666H3.98322C3.84515 9.06666 3.73322 8.95472 3.73322 8.81666V8.25C3.73322 8.11194 3.84515 8 3.98322 8H4.54987C4.68793 8 4.79987 8.11194 4.79987 8.25V8.81666C4.79987 8.95475 4.68793 9.06666 4.54987 9.06666Z" fill="#3C58A0"/>
<path d="M6.68308 9.06666H6.11642C5.97836 9.06666 5.86642 8.95472 5.86642 8.81666V8.25C5.86642 8.11194 5.97836 8 6.11642 8H6.68308C6.82114 8 6.93308 8.11194 6.93308 8.25V8.81666C6.93308 8.95475 6.82117 9.06666 6.68308 9.06666Z" fill="#3C58A0"/>
<path d="M9.06681 9.06666V8.26666C9.06681 8.11937 8.94743 8 8.80015 8H8.26681C8.11953 8 8.00015 8.11937 8.00015 8.26666V8.8C8.00015 8.94728 8.11956 9.06666 8.26681 9.06666H9.06681Z" fill="#3C58A0"/>
<path d="M2.41663 11.1995H1.84998C1.71191 11.1995 1.59998 11.0875 1.59998 10.9495V10.3828C1.59998 10.2447 1.71191 10.1328 1.84998 10.1328H2.41663C2.5547 10.1328 2.66664 10.2447 2.66664 10.3828V10.9495C2.66664 11.0875 2.5547 11.1995 2.41663 11.1995Z" fill="#3C58A0"/>
<path d="M4.54987 11.1995H3.98322C3.84515 11.1995 3.73322 11.0875 3.73322 10.9495V10.3828C3.73322 10.2447 3.84515 10.1328 3.98322 10.1328H4.54987C4.68793 10.1328 4.79987 10.2447 4.79987 10.3828V10.9495C4.79987 11.0875 4.68793 11.1995 4.54987 11.1995Z" fill="#3C58A0"/>
<path d="M6.68308 11.1995H6.11642C5.97836 11.1995 5.86642 11.0875 5.86642 10.9495V10.3828C5.86642 10.2447 5.97836 10.1328 6.11642 10.1328H6.68308C6.82114 10.1328 6.93308 10.2447 6.93308 10.3828V10.9495C6.93308 11.0875 6.82117 11.1995 6.68308 11.1995Z" fill="#3C58A0"/>
<path d="M13.0754 5.86621H12.5238C12.4904 5.86621 12.4587 5.87277 12.4294 5.8843C12.5249 5.92199 12.5925 6.01487 12.5925 6.12374V6.6753C12.5925 6.78418 12.5248 6.87705 12.4294 6.91474C12.4587 6.9263 12.4904 6.93287 12.5238 6.93287H13.0754C13.2176 6.93287 13.3329 6.81755 13.3329 6.67534V6.12377C13.3329 5.98152 13.2176 5.86621 13.0754 5.86621Z" fill="#2A428C"/>
<path d="M10.9421 5.86621H10.3906C10.3572 5.86621 10.3254 5.87277 10.2961 5.8843C10.3916 5.92199 10.4592 6.01487 10.4592 6.12374V6.6753C10.4592 6.78418 10.3916 6.87705 10.2961 6.91474C10.3254 6.9263 10.3572 6.93287 10.3906 6.93287H10.9421C11.0844 6.93287 11.1997 6.81755 11.1997 6.67534V6.12377C11.1997 5.98152 11.0844 5.86621 10.9421 5.86621Z" fill="#2A428C"/>
<path d="M8.80909 5.86621H8.25752C8.22415 5.86621 8.19237 5.87277 8.16309 5.8843C8.25855 5.92199 8.32621 6.01487 8.32621 6.12374V6.6753C8.32621 6.78418 8.25855 6.87705 8.16309 6.91474C8.19237 6.9263 8.22415 6.93287 8.25752 6.93287H8.80909C8.95134 6.93287 9.06665 6.81755 9.06665 6.67534V6.12377C9.06662 5.98152 8.9513 5.86621 8.80909 5.86621Z" fill="#2A428C"/>
<path d="M6.67582 5.86621H6.12425C6.09088 5.86621 6.0591 5.87277 6.02982 5.8843C6.12528 5.92199 6.19294 6.01487 6.19294 6.12374V6.6753C6.19294 6.78418 6.12528 6.87705 6.02982 6.91474C6.0591 6.9263 6.09088 6.93287 6.12425 6.93287H6.67582C6.81807 6.93287 6.93338 6.81755 6.93338 6.67534V6.12377C6.93335 5.98152 6.81807 5.86621 6.67582 5.86621Z" fill="#2A428C"/>
<path d="M4.54257 5.86621H3.99101C3.95764 5.86621 3.92586 5.87277 3.89658 5.8843C3.99204 5.92199 4.05967 6.01487 4.05967 6.12374V6.6753C4.05967 6.78418 3.99201 6.87705 3.89658 6.91474C3.92586 6.9263 3.95764 6.93287 3.99101 6.93287H4.54257C4.68482 6.93287 4.80013 6.81755 4.80013 6.67534V6.12377C4.80013 5.98152 4.68482 5.86621 4.54257 5.86621Z" fill="#2A428C"/>
<path d="M2.40888 5.86621H1.85732C1.82394 5.86621 1.79216 5.87277 1.76288 5.8843C1.85835 5.92199 1.926 6.01487 1.926 6.12374V6.6753C1.926 6.78418 1.85835 6.87705 1.76288 6.91474C1.79216 6.9263 1.82394 6.93287 1.85732 6.93287H2.40888C2.55113 6.93287 2.66644 6.81755 2.66644 6.67534V6.12377C2.66641 5.98152 2.55109 5.86621 2.40888 5.86621Z" fill="#2A428C"/>
<path d="M2.40888 8H1.85732C1.82394 8 1.79216 8.00656 1.76288 8.01809C1.85835 8.05578 1.926 8.14866 1.926 8.25753V8.80912C1.926 8.918 1.85835 9.01087 1.76288 9.04856C1.79216 9.06012 1.82394 9.06669 1.85732 9.06669H2.40888C2.55113 9.06669 2.66644 8.95138 2.66644 8.80916V8.25756C2.66641 8.11531 2.55109 8 2.40888 8Z" fill="#2A428C"/>
<path d="M2.40888 10.1338H1.85732C1.82394 10.1338 1.79216 10.1404 1.76288 10.1519C1.85835 10.1896 1.926 10.2824 1.926 10.3913V10.9429C1.926 11.0518 1.85835 11.1447 1.76288 11.1824C1.79216 11.1939 1.82394 11.2005 1.85732 11.2005H2.40888C2.55113 11.2005 2.66644 11.0852 2.66644 10.9429V10.3914C2.66641 10.2491 2.55109 10.1338 2.40888 10.1338Z" fill="#2A428C"/>
<path d="M4.54257 8H3.99101C3.95764 8 3.92586 8.00656 3.89658 8.01809C3.99204 8.05578 4.05967 8.14866 4.05967 8.25753V8.80912C4.05967 8.918 3.99201 9.01087 3.89658 9.04856C3.92586 9.06012 3.95764 9.06669 3.99101 9.06669H4.54257C4.68482 9.06669 4.80013 8.95138 4.80013 8.80916V8.25756C4.80013 8.11531 4.68482 8 4.54257 8Z" fill="#2A428C"/>
<path d="M4.54257 10.1338H3.99101C3.95764 10.1338 3.92586 10.1404 3.89658 10.1519C3.99204 10.1896 4.05967 10.2824 4.05967 10.3913V10.9429C4.05967 11.0518 3.99201 11.1447 3.89658 11.1824C3.92586 11.1939 3.95764 11.2005 3.99101 11.2005H4.54257C4.68482 11.2005 4.80013 11.0852 4.80013 10.9429V10.3914C4.80013 10.2491 4.68482 10.1338 4.54257 10.1338Z" fill="#2A428C"/>
<path d="M6.67582 8H6.12425C6.09088 8 6.0591 8.00656 6.02982 8.01809C6.12528 8.05578 6.19294 8.14866 6.19294 8.25753V8.80912C6.19294 8.918 6.12528 9.01087 6.02982 9.04856C6.0591 9.06012 6.09088 9.06669 6.12425 9.06669H6.67582C6.81807 9.06669 6.93338 8.95138 6.93338 8.80916V8.25756C6.93335 8.11531 6.81807 8 6.67582 8Z" fill="#2A428C"/>
<path d="M9.06659 9.06666V8.25753C9.06659 8.11528 8.95128 8 8.80903 8H8.25746C8.22409 8 8.19231 8.00656 8.16302 8.01809C8.25849 8.05578 8.32615 8.14866 8.32615 8.25753V8.80912C8.32615 8.918 8.25849 9.01087 8.16302 9.04856C8.19231 9.06012 8.22409 9.06669 8.25746 9.06669H9.06659V9.06666Z" fill="#2A428C"/>
<path d="M6.67582 10.1338H6.12425C6.09088 10.1338 6.0591 10.1404 6.02982 10.1519C6.12528 10.1896 6.19294 10.2824 6.19294 10.3913V10.9429C6.19294 11.0518 6.12528 11.1447 6.02982 11.1824C6.0591 11.1939 6.09088 11.2005 6.12425 11.2005H6.67582C6.81807 11.2005 6.93338 11.0852 6.93338 10.9429V10.3914C6.93335 10.2491 6.81807 10.1338 6.67582 10.1338Z" fill="#2A428C"/>
<path d="M13.6595 4.49121V9.28111V12.2666H14.4005V9.28111V4.79993L13.6595 4.49121Z" fill="#D3DCFB"/>
<path d="M14.4007 4.79972V2.13303C14.4007 1.54394 13.9231 1.06641 13.3341 1.06641H1.59965C1.01055 1.06641 0.53302 1.54394 0.53302 2.13303V4.79972H14.4007Z" fill="#FF4155"/>
<path d="M3.89403 2.37448H3.19975C3.06638 2.37448 2.95831 2.26638 2.95831 2.13304C2.95831 1.9997 3.06641 1.8916 3.19975 1.8916H3.89403C4.02741 1.8916 4.13547 1.9997 4.13547 2.13304C4.13547 2.26638 4.02738 2.37448 3.89403 2.37448Z" fill="#E80054"/>
<path d="M5.59969 2.37448H4.90541C4.77203 2.37448 4.66397 2.26638 4.66397 2.13304C4.66397 1.9997 4.77206 1.8916 4.90541 1.8916H5.59969C5.73306 1.8916 5.84113 1.9997 5.84113 2.13304C5.84113 2.26638 5.73306 2.37448 5.59969 2.37448Z" fill="#E80054"/>
<path d="M10.0279 2.37448H9.33354C9.20016 2.37448 9.0921 2.26638 9.0921 2.13304C9.0921 1.9997 9.2002 1.8916 9.33354 1.8916H10.0279C10.1612 1.8916 10.2693 1.9997 10.2693 2.13304C10.2693 2.26638 10.1612 2.37448 10.0279 2.37448Z" fill="#E80054"/>
<path d="M11.7336 2.37448H11.0393C10.9059 2.37448 10.7978 2.26638 10.7978 2.13304C10.7978 1.9997 10.9059 1.8916 11.0393 1.8916H11.7336C11.8669 1.8916 11.975 1.9997 11.975 2.13304C11.975 2.26638 11.8669 2.37448 11.7336 2.37448Z" fill="#E80054"/>
<path d="M5.06641 2C5.06641 2.36819 4.76794 2.66666 4.39975 2.66666C4.03156 2.66666 3.73309 2.36819 3.73309 2V0.666656C3.73306 0.298469 4.03153 0 4.39972 0C4.76791 0 5.06637 0.298469 5.06637 0.666656V2H5.06641Z" fill="#EBF5FC"/>
<path d="M11.1997 2C11.1997 2.36819 10.9013 2.66666 10.5331 2.66666C10.1649 2.66666 9.86639 2.36819 9.86639 2V0.666656C9.86639 0.298469 10.1649 0 10.5331 0C10.9012 0 11.1997 0.298469 11.1997 0.666656V2H11.1997Z" fill="#EBF5FC"/>
<path d="M10.5335 0C10.3966 0 10.2695 0.041375 10.1636 0.112125C10.3425 0.231688 10.4604 0.435344 10.4604 0.666687V2C10.4604 2.23131 10.3425 2.435 10.1636 2.55456C10.2694 2.62528 10.3966 2.66669 10.5335 2.66669C10.9017 2.66669 11.2001 2.36822 11.2001 2.00003V0.666656C11.2002 0.298469 10.9017 0 10.5335 0V0Z" fill="#D3DCFB"/>
<path d="M4.39966 0C4.26279 0 4.13566 0.041375 4.02979 0.112125C4.20869 0.231688 4.3266 0.435344 4.3266 0.666687V2C4.3266 2.23131 4.20869 2.435 4.02979 2.55456C4.13563 2.62528 4.26279 2.66669 4.39966 2.66669C4.76785 2.66669 5.06632 2.36822 5.06632 2.00003V0.666656C5.06635 0.298469 4.76788 0 4.39966 0V0Z" fill="#D3DCFB"/>
<path d="M13.3339 1.06641H12.5932C13.1823 1.06641 13.6598 1.54394 13.6598 2.13303V4.79975H14.4005V2.13306C14.4005 1.54397 13.923 1.06641 13.3339 1.06641Z" fill="#E80054"/>
<path d="M0.532959 3.49219H14.4007V3.97509H0.532959V3.49219Z" fill="#E80054"/>
<path d="M11.467 16C13.6762 16 15.467 14.2091 15.467 12C15.467 9.79086 13.6762 8 11.467 8C9.2579 8 7.46704 9.79086 7.46704 12C7.46704 14.2091 9.2579 16 11.467 16Z" fill="#4FABF7"/>
<path d="M11.4667 14.9331C13.0868 14.9331 14.4001 13.6198 14.4001 11.9998C14.4001 10.3797 13.0868 9.06641 11.4667 9.06641C9.84669 9.06641 8.53339 10.3797 8.53339 11.9998C8.53339 13.6198 9.84669 14.9331 11.4667 14.9331Z" fill="#EBF5FC"/>
<path d="M11.4666 11.7078C11.3333 11.7078 11.2252 11.5997 11.2252 11.4664V10.133C11.2252 9.99969 11.3333 9.8916 11.4666 9.8916C11.6 9.8916 11.7081 9.99969 11.7081 10.133V11.4664C11.7081 11.5997 11.6 11.7078 11.4666 11.7078Z" fill="#3C58A0"/>
<path d="M12.8001 12.2417H12C11.8667 12.2417 11.7586 12.1336 11.7586 12.0002C11.7586 11.8669 11.8667 11.7588 12 11.7588H12.8001C12.9334 11.7588 13.0415 11.8669 13.0415 12.0002C13.0415 12.1336 12.9334 12.2417 12.8001 12.2417Z" fill="#3C58A0"/>
<path d="M11.4667 8C11.3418 8 11.2184 8.00603 11.0965 8.01722C13.132 8.20406 14.7262 9.91572 14.7262 12C14.7262 14.0843 13.132 15.7959 11.0964 15.9828C11.2184 15.994 11.3418 16 11.4667 16C13.6758 16 15.4667 14.2091 15.4667 12C15.4667 9.79087 13.6758 8 11.4667 8Z" fill="#1886EA"/>
<path d="M11.4669 9.06641C11.3416 9.06641 11.2181 9.07431 11.0969 9.08956C12.5423 9.27147 13.6603 10.505 13.6603 11.9998C13.6603 13.4945 12.5423 14.728 11.0969 14.9099C11.2181 14.9252 11.3416 14.9331 11.4669 14.9331C13.0869 14.9331 14.4002 13.6198 14.4002 11.9998C14.4002 10.3797 13.0869 9.06641 11.4669 9.06641Z" fill="#D3DCFB"/>
<path d="M11.4669 12.5335C11.7615 12.5335 12.0003 12.2947 12.0003 12.0001C12.0003 11.7056 11.7615 11.4668 11.4669 11.4668C11.1724 11.4668 10.9336 11.7056 10.9336 12.0001C10.9336 12.2947 11.1724 12.5335 11.4669 12.5335Z" fill="#FFDD40"/>
</g>
<defs>
<clipPath id="clip0">
<rect width="16" height="16" fill="white"/>
</clipPath>
</defs>
</svg>
