<svg width="20" height="20" viewBox="0 0 20 20" fill="none" xmlns="http://www.w3.org/2000/svg">
<g opacity="0.4">
<path d="M13.25 7.8335C14.1475 7.8335 14.875 7.10596 14.875 6.2085C14.875 5.31103 14.1475 4.5835 13.25 4.5835C12.3525 4.5835 11.625 5.31103 11.625 6.2085C11.625 7.10596 12.3525 7.8335 13.25 7.8335Z" fill="#161616"/>
<path d="M6.75 11.625C7.64746 11.625 8.375 10.8975 8.375 10C8.375 9.10254 7.64746 8.375 6.75 8.375C5.85254 8.375 5.125 9.10254 5.125 10C5.125 10.8975 5.85254 11.625 6.75 11.625Z" fill="#161616"/>
<path d="M13.25 15.4165C14.1475 15.4165 14.875 14.689 14.875 13.7915C14.875 12.894 14.1475 12.1665 13.25 12.1665C12.3525 12.1665 11.625 12.894 11.625 13.7915C11.625 14.689 12.3525 15.4165 13.25 15.4165Z" fill="#161616"/>
<path d="M8.15295 10.8179L11.8525 12.9737" stroke="#161616" stroke-width="1.5" stroke-linecap="round" stroke-linejoin="round"/>
<path d="M11.8471 7.02637L8.15295 9.1822" stroke="#161616" stroke-width="1.5" stroke-linecap="round" stroke-linejoin="round"/>
</g>
<circle opacity="0.3" cx="10" cy="10" r="9.65" stroke="black" stroke-width="0.7"/>
</svg>
