<svg width="20" height="20" viewBox="0 0 20 20" fill="none" xmlns="http://www.w3.org/2000/svg">
<g opacity="0.4">
<path d="M13.25 7.83398C14.1475 7.83398 14.875 7.10645 14.875 6.20898C14.875 5.31152 14.1475 4.58398 13.25 4.58398C12.3525 4.58398 11.625 5.31152 11.625 6.20898C11.625 7.10645 12.3525 7.83398 13.25 7.83398Z" fill="#010101"/>
<path d="M6.75 11.625C7.64746 11.625 8.375 10.8975 8.375 10C8.375 9.10254 7.64746 8.375 6.75 8.375C5.85254 8.375 5.125 9.10254 5.125 10C5.125 10.8975 5.85254 11.625 6.75 11.625Z" fill="#010101"/>
<path d="M13.25 15.416C14.1475 15.416 14.875 14.6885 14.875 13.791C14.875 12.8936 14.1475 12.166 13.25 12.166C12.3525 12.166 11.625 12.8936 11.625 13.791C11.625 14.6885 12.3525 15.416 13.25 15.416Z" fill="#010101"/>
<path d="M8.15295 10.8184L11.8525 12.9742" stroke="#010101" stroke-width="1.5" stroke-linecap="round" stroke-linejoin="round"/>
<path d="M11.8471 7.02539L8.15295 9.18122" stroke="#010101" stroke-width="1.5" stroke-linecap="round" stroke-linejoin="round"/>
</g>
<circle opacity="0.3" cx="10" cy="10" r="9.65" stroke="#010101" stroke-width="0.7"/>
</svg>
