<svg width="76" height="74" viewBox="0 0 76 74" fill="none" xmlns="http://www.w3.org/2000/svg">
<circle cx="38.1813" cy="35.2441" r="32.5" />
<path d="M33.8854 31.7705V31.8057H36.0123V31.7705C36.0123 30.4785 36.9088 29.6084 38.236 29.6084C39.484 29.6084 40.3981 30.417 40.3981 31.5332C40.3981 32.4297 39.9674 33.0889 38.236 34.8467L34.0084 39.1709V40.7441H42.8151V38.8193H37.1198V38.6699L39.774 36.0068C41.9274 33.8799 42.6217 32.7549 42.6217 31.3926C42.6217 29.2744 40.8112 27.7451 38.3063 27.7451C35.7047 27.7451 33.8854 29.3975 33.8854 31.7705Z" fill="#E8E8E8"/>
<rect x="14.327" y="0.0942383" width="4" height="22" rx="2" transform="rotate(40.6341 14.327 0.0942383)" />
<rect x="75.2421" y="16.9355" width="4" height="22" rx="2" transform="rotate(140.335 75.2421 16.9355)" />
<rect x="56.7826" y="73.5425" width="4" height="22" rx="2" transform="rotate(-131.595 56.7826 73.5425)" />
<rect x="2.68127" y="58.6821" width="4" height="22" rx="2" transform="rotate(-47.267 2.68127 58.6821)" />
</svg>
