<svg width="76" height="78" viewBox="0 0 76 78" fill="none" xmlns="http://www.w3.org/2000/svg">
<circle cx="38.1813" cy="39.2441" r="32.5" />
<path d="M36.9176 39.1191H38.5084C40.0729 39.1191 41.0309 39.8838 41.0309 41.123C41.0309 42.3184 40.0114 43.1533 38.5612 43.1533C37.1022 43.1533 36.1002 42.4062 36.0035 41.2285H33.8326C33.9469 43.5488 35.8102 45.0605 38.5436 45.0605C41.3033 45.0605 43.3424 43.4434 43.3424 41.2637C43.3424 39.5762 42.2701 38.3984 40.5387 38.1963V38.0469C41.9449 37.748 42.8326 36.6143 42.8326 35.1289C42.8326 33.1865 40.9957 31.7451 38.5348 31.7451C35.8981 31.7451 34.193 33.1953 34.0787 35.5244H36.1969C36.2848 34.3291 37.1549 33.5908 38.4645 33.5908C39.7916 33.5908 40.6442 34.3203 40.6442 35.4453C40.6442 36.5791 39.7565 37.3613 38.4645 37.3613H36.9176V39.1191Z" fill="#E8E8E8"/>
<rect x="14.3269" y="4.09424" width="4" height="22" rx="2" transform="rotate(40.6341 14.3269 4.09424)" />
<rect x="26.3188" y="4" width="4" height="22" rx="2" transform="rotate(-90 26.3188 4)" />
<rect x="75.2421" y="20.9355" width="4" height="22" rx="2" transform="rotate(140.335 75.2421 20.9355)" />
<rect x="56.7826" y="77.5425" width="4" height="22" rx="2" transform="rotate(-131.595 56.7826 77.5425)" />
<rect x="2.68115" y="62.6821" width="4" height="22" rx="2" transform="rotate(-47.267 2.68115 62.6821)" />
</svg>
