<svg width="20" height="20" viewBox="0 0 16 20" fill="none" xmlns="http://www.w3.org/2000/svg">
<g opacity="0.6" clip-path="url(#clip0_2495_238)">
<path d="M10.2116 17.9541L13.7077 14.279H10.2116V17.9541ZM3.6735 7.47721V4.23177H2.60417V3.23242H5.84961V4.23177H4.7819V7.48698L3.6735 7.47721ZM11.582 7.51139C11.362 7.51464 11.1426 7.48558 10.931 7.42513C10.7422 7.36785 10.5731 7.25906 10.4427 7.111C10.2879 6.92192 10.1803 6.69879 10.1286 6.45996C10.0487 6.09389 10.0127 5.71963 10.0212 5.34505C10.0125 4.97979 10.0508 4.61494 10.1351 4.25944C10.1915 4.02005 10.3029 3.79713 10.4606 3.6084C10.5906 3.45738 10.7595 3.3448 10.9489 3.28288C11.1527 3.22218 11.3645 3.19255 11.5771 3.19499C11.7861 3.19276 11.995 3.20527 12.2021 3.23242C12.3579 3.252 12.5123 3.28135 12.6644 3.32031C12.7689 3.34649 12.8712 3.38078 12.9704 3.42285V4.28548C12.8988 4.27083 12.8076 4.25456 12.6904 4.23991C12.5732 4.22526 12.4463 4.21224 12.2998 4.20247C12.1533 4.19271 11.9938 4.18783 11.8229 4.18783C11.713 4.18621 11.6035 4.1999 11.4974 4.22852C11.4084 4.2549 11.332 4.31275 11.2826 4.39128C11.2198 4.4992 11.1799 4.61886 11.1654 4.74284C11.1375 4.94614 11.125 5.15126 11.1279 5.35644C11.1258 5.5473 11.1356 5.7381 11.1572 5.92773C11.1684 6.05251 11.2032 6.17401 11.2598 6.28581C11.3079 6.36976 11.3839 6.43425 11.4746 6.4681C11.5914 6.50775 11.7143 6.52594 11.8376 6.52181C12.1257 6.52181 12.3617 6.52181 12.5423 6.50716C12.723 6.49251 12.8678 6.486 12.9736 6.47135V7.32422C12.868 7.36535 12.7591 7.39747 12.6481 7.42025C12.4997 7.45006 12.3497 7.47125 12.1989 7.48372C12.0361 7.49837 11.8245 7.50651 11.5885 7.50651L11.582 7.51139ZM7.49512 7.54232C7.22992 7.54801 6.96699 7.49231 6.72689 7.37956C6.52812 7.28638 6.35909 7.13989 6.23861 6.95638C6.12438 6.78244 6.06434 6.57852 6.06608 6.37044C6.06297 6.22751 6.09364 6.08587 6.1556 5.95703C6.218 5.83421 6.30241 5.72387 6.40462 5.63151C6.52077 5.52232 6.64601 5.42322 6.77897 5.33529L7.72135 4.75098C7.80028 4.70669 7.86643 4.64278 7.91341 4.56543C7.94135 4.51273 7.95641 4.45417 7.95736 4.39453C7.95694 4.32892 7.9313 4.26598 7.88574 4.21875C7.85514 4.19099 7.81903 4.16997 7.77978 4.15708C7.74052 4.14418 7.69899 4.13968 7.65788 4.14388C7.60172 4.14264 7.54603 4.15433 7.49512 4.17806C7.45116 4.20046 7.41447 4.2349 7.38932 4.27734C7.36233 4.32253 7.34877 4.37447 7.35026 4.42708C7.35165 4.51321 7.37579 4.59744 7.42025 4.67122C7.7946 5.36133 9.30013 6.83594 9.88932 7.47721H8.76953L7.08171 5.69661C6.9987 5.60872 6.90755 5.5013 6.80664 5.37109C6.7035 5.23786 6.61713 5.09246 6.54948 4.93815C6.47553 4.77286 6.43832 4.5935 6.44043 4.41243C6.4386 4.2098 6.49086 4.01035 6.5918 3.83464C6.69505 3.66084 6.84209 3.51717 7.01823 3.41797C7.21371 3.30912 7.43415 3.25303 7.65788 3.25521C7.86732 3.24992 8.07446 3.29988 8.25846 3.40007C8.4205 3.49038 8.55538 3.62245 8.64909 3.78255C8.74196 3.94388 8.79027 4.127 8.78906 4.31315C8.79008 4.50279 8.74065 4.68928 8.64583 4.85352C8.54288 5.02815 8.40355 5.17858 8.23731 5.2946C7.99154 5.46712 7.37142 5.85124 7.2054 6.0612C7.15481 6.12727 7.12942 6.20921 7.13379 6.29232C7.13173 6.3636 7.151 6.43388 7.18913 6.49414C7.22916 6.55207 7.28595 6.59637 7.35189 6.62109C7.42664 6.65201 7.50702 6.66698 7.58789 6.66504C7.7317 6.66431 7.87333 6.62974 8.0013 6.56413C8.14494 6.49523 8.27418 6.39967 8.38216 6.28255C8.63229 6.01946 8.76957 5.66897 8.76465 5.30599H9.64844C9.64945 5.53972 9.62434 5.77283 9.57357 6.00098C9.52653 6.21706 9.44521 6.42421 9.33268 6.61458C9.2208 6.79949 9.07171 6.95911 8.89486 7.08333L8.7321 7.16308L8.56934 7.24446C8.40973 7.34872 8.23364 7.42522 8.0485 7.4707C7.87384 7.5141 7.69462 7.5365 7.51465 7.53743L7.49512 7.54232ZM3.08106 14.6484H6.21094V15.5485H3.08106V14.6484ZM3.08106 12.3698H7.52279V13.2699H3.08106V12.3698ZM3.08106 10.0911H12.57V10.9912H3.08106V10.0814V10.0911ZM15.6527 13.8102C15.6528 13.9373 15.6114 14.061 15.5347 14.1624C15.458 14.2638 15.3502 14.3373 15.2279 14.3717L10.0798 19.7852C10.0256 19.8522 9.9572 19.9063 9.87948 19.9434C9.80175 19.9806 9.71669 19.9999 9.63053 20H1.04655C0.909056 20.0002 0.77287 19.9733 0.6458 19.9208C0.51873 19.8682 0.403274 19.7912 0.306051 19.6939C0.208827 19.5967 0.131747 19.4813 0.0792286 19.3542C0.0267104 19.2271 -0.000213064 19.0909 1.2697e-06 18.9534V1.04655C-0.000213064 0.909055 0.0267104 0.77287 0.0792286 0.6458C0.131747 0.51873 0.208827 0.403274 0.306051 0.30605C0.403274 0.208827 0.51873 0.131747 0.6458 0.0792285C0.77287 0.0267104 0.909056 -0.000213064 1.04655 1.2697e-06H14.6061C14.8836 0.000431728 15.1495 0.110831 15.3457 0.307004C15.5418 0.503177 15.6522 0.76912 15.6527 1.04655V13.8102V13.8102ZM14.4857 13.1103V1.16862H1.16862V18.8363H9.04297V13.6979C9.04297 13.5421 9.10487 13.3926 9.21506 13.2824C9.32525 13.1723 9.4747 13.1103 9.63053 13.1103H14.4857Z" fill="#161616"/>
</g>
<defs>
<clipPath id="clip0_2495_238">
<rect width="15.6527" height="20" fill="white"/>
</clipPath>
</defs>
</svg>
