<svg width="13" height="13" viewBox="0 0 13 13" fill="none" xmlns="http://www.w3.org/2000/svg">
<path d="M4.01725 7.99661C4.08048 7.95416 4.11627 7.8812 4.11113 7.80522C4.10598 7.72923 4.06069 7.66177 3.99231 7.62823C3.92394 7.59469 3.84286 7.60018 3.77963 7.64263C3.51236 7.82234 3.26319 8.02761 3.03565 8.25554C2.33077 8.95508 1.85708 9.85375 1.67832 10.8306C1.65714 10.9464 1.73385 11.0575 1.84967 11.0787C1.96548 11.0999 2.07654 11.0231 2.09773 10.9073C2.26081 10.0155 2.69341 9.19519 3.3372 8.55689C3.54506 8.34838 3.77283 8.16073 4.01725 7.99661Z" fill="#010101"/>
<path d="M12.2491 11.5189C12.1517 8.78189 10.1395 6.49245 7.4376 6.04461C7.46322 5.99308 7.4846 5.93955 7.50154 5.88456C7.78182 5.91364 8.0482 5.75623 8.15793 5.49669C8.32619 5.09478 8.4145 4.66393 8.41793 4.22823C8.3904 3.97625 8.31709 3.73142 8.20162 3.50577L10.3635 4.52872C10.4601 4.57546 10.5662 4.59951 10.6735 4.59905C11.0028 4.59841 11.2897 4.37462 11.3705 4.05544C11.4512 3.73626 11.3053 3.40294 11.016 3.24577L11.0045 3.2398C11.2128 3.06556 11.305 2.78877 11.2429 2.52442C11.1808 2.26006 10.9749 2.05332 10.7108 1.99009C9.33816 1.65806 7.9316 1.37504 6.74626 1.1939C5.14023 0.535583 3.90842 0.198648 3.09006 0.198648C2.15048 0.188312 1.21919 0.37534 0.356441 0.747633C0.203778 0.816606 0.105882 0.968834 0.106458 1.13635V3.88767C0.106087 4.03835 0.185297 4.17802 0.314796 4.25505C0.444296 4.33207 0.604841 4.335 0.737064 4.26275L2.27554 3.42329C2.63451 3.22115 3.07877 3.24895 3.40974 3.49426C3.63659 3.67431 3.82777 3.8952 3.97342 4.14554C4.19826 4.51849 4.44547 4.90423 4.70611 5.29253C4.75833 5.36967 4.80905 5.44171 4.85529 5.51033L4.93052 5.61859C5.05831 5.80175 5.26768 5.91074 5.49101 5.91035H5.50124C5.51852 5.9567 5.53902 6.00177 5.56262 6.04525C2.86097 6.49283 0.848618 8.78174 0.750704 11.5185C0.380783 11.5658 0.10431 11.8816 0.106458 12.2546C0.106458 12.6665 0.440409 13.0005 0.852359 13.0005H12.1474C12.5391 13.0011 12.8642 12.698 12.891 12.3072C12.9178 11.9165 12.6372 11.5718 12.2491 11.5189ZM5.97329 4.62057C5.82258 4.3299 5.77883 3.9955 5.84969 3.67583C5.85922 3.63502 5.88775 3.60125 5.92641 3.58505C6.1531 3.55226 6.38415 3.59902 6.58024 3.71739C6.86548 3.83774 7.0654 4.10046 7.10536 4.40746C7.10106 4.48658 7.08907 4.56509 7.06956 4.64188C6.73756 4.42808 6.31335 4.41983 5.97329 4.62057ZM10.83 2.74346C10.8028 2.89042 10.6691 2.99315 10.5201 2.9815C9.80169 2.60195 9.07731 2.24114 8.38554 1.91593C9.11013 2.05872 9.86392 2.22388 10.6094 2.4046C10.761 2.44137 10.8577 2.58993 10.83 2.74346ZM5.28174 5.37585L5.20608 5.26674C5.15983 5.20025 5.11018 5.12885 5.05946 5.05362C4.80372 4.67172 4.56034 4.29174 4.33828 3.92411C4.16532 3.62824 3.93841 3.36743 3.66931 3.15519C3.20454 2.80678 2.57823 2.76461 2.07095 3.04757L0.532687 3.88767L0.529491 1.13721C1.33775 0.789099 2.21009 0.614558 3.09006 0.624879C3.92462 0.624879 5.24657 1.00849 7.01905 1.76696C8.17179 2.26182 9.51888 2.92034 10.8108 3.62106C10.9491 3.69618 11.0042 3.86666 10.9359 4.00851C10.8637 4.151 10.692 4.21131 10.5465 4.14533L7.65669 2.77713C7.56399 2.73433 7.45395 2.76436 7.39583 2.84831C7.33661 2.93342 7.34552 3.04847 7.41715 3.12344C7.72549 3.43428 7.92674 3.8353 7.9917 4.26829C7.98098 4.63434 7.90386 4.99539 7.7641 5.33387C7.72072 5.43555 7.60681 5.48719 7.50175 5.45279C7.49174 5.44926 7.48193 5.4452 7.47234 5.44064C7.46623 5.4362 7.4599 5.43208 7.45337 5.42828C7.39063 5.3916 7.35214 5.32429 7.35236 5.25161C7.3532 5.22615 7.35802 5.20098 7.36664 5.17702L7.39008 5.10072C7.46515 4.86988 7.51251 4.63094 7.53116 4.38892C7.48676 3.92391 7.19336 3.51969 6.76501 3.33336C6.53059 3.22083 6.09008 3.05332 5.76018 3.19249C5.6089 3.25639 5.49366 3.38396 5.44541 3.54093C5.29047 4.00339 5.44541 4.49015 5.63849 4.92C5.52103 5.08285 5.45235 5.27578 5.44051 5.47623C5.3766 5.46453 5.31971 5.42856 5.28174 5.37585ZM5.86865 5.63415C5.86357 5.6035 5.86086 5.57251 5.86056 5.54144C5.86016 5.37176 5.92739 5.20891 6.04738 5.08892C6.16736 4.96893 6.33021 4.9017 6.4999 4.9021C6.66951 4.90225 6.83173 4.97151 6.94915 5.0939C6.88731 5.3116 6.952 5.54561 7.11687 5.70064C7.08916 5.80918 7.03286 5.90831 6.95383 5.98771C6.80359 5.97535 6.65228 5.96767 6.4999 5.96767C6.34752 5.96767 6.19557 5.97535 6.04511 5.98707C5.95001 5.89137 5.88815 5.76765 5.86865 5.63415ZM12.374 12.4811C12.3139 12.5412 12.2324 12.5747 12.1474 12.5742H0.852359C0.675809 12.5742 0.532687 12.4311 0.532687 12.2546C0.532687 12.078 0.675809 11.9349 0.852359 11.9349H2.23761C2.35531 11.9349 2.45072 11.8395 2.45072 11.7218C2.45072 11.6041 2.35531 11.5087 2.23761 11.5087H1.17715C1.26103 9.3942 2.5888 7.52999 4.55969 6.75954C6.53058 5.9891 8.77063 6.4586 10.2663 7.95561C11.217 8.89963 11.7734 10.1698 11.8227 11.5087H3.30318C3.18548 11.5087 3.09006 11.6041 3.09006 11.7218C3.09006 11.8395 3.18548 11.9349 3.30318 11.9349H12.1474C12.277 11.9345 12.3941 12.0124 12.4437 12.1321C12.4934 12.2518 12.4658 12.3897 12.374 12.4811Z" fill="#010101"/>
<path d="M2.0009 1.13976C1.69544 1.19122 1.39477 1.26792 1.10198 1.36907C1.01631 1.39892 0.958924 1.47974 0.958984 1.57047V2.5574C0.958984 2.6751 1.0544 2.77052 1.1721 2.77052C1.2898 2.77052 1.38521 2.6751 1.38521 2.5574V1.72434C1.61028 1.65416 1.83983 1.59926 2.0723 1.56003C2.18835 1.54031 2.26645 1.43025 2.24673 1.3142C2.22702 1.19815 2.11695 1.12005 2.0009 1.13976Z" fill="#010101"/>
<path d="M4.58177 7.67232C4.69947 7.67232 4.79488 7.5769 4.79488 7.45921C4.79488 7.34151 4.69947 7.24609 4.58177 7.24609C4.46407 7.24609 4.36865 7.34151 4.36865 7.45921C4.36865 7.5769 4.46407 7.67232 4.58177 7.67232Z" fill="#010101"/>
</svg>
