<svg width="44" height="44" viewBox="0 0 44 44" fill="none" xmlns="http://www.w3.org/2000/svg">
<path d="M39.6562 9.26974C36.3144 4.50922 31.3187 1.3351 25.5895 0.331952C19.8603 -0.6712 14.0834 0.61675 9.32293 3.95861C4.56248 7.30039 1.38828 12.296 0.385132 18.0253L6.18912 19.0415C7.69956 10.4148 15.9467 4.62541 24.5733 6.13585C33.1999 7.64629 38.9894 15.8934 37.4788 24.52C35.9683 33.1466 27.7213 38.9361 19.0947 37.4255C17.7626 37.1923 16.4818 36.7975 15.2691 36.2481L17.6464 33.2146L4.86619 31.9035L9.19385 44L11.5574 40.9841C13.5916 42.0729 15.7806 42.8272 18.0784 43.2294C23.8077 44.2326 29.5846 42.9446 34.345 39.6028C39.1055 36.261 42.2797 31.2654 43.2827 25.5361C44.286 19.8071 42.998 14.0302 39.6562 9.26974Z" fill="#7DD2F0"/>
<g opacity="0.1">
<path opacity="0.1" d="M12.269 4.94063C17.0295 1.59876 22.8064 0.310812 28.5356 1.31396C29.1062 1.41391 29.6693 1.53629 30.2245 1.67868C28.751 1.06707 27.1993 0.613743 25.5895 0.331952C19.8603 -0.6712 14.0834 0.61675 9.32292 3.95862C4.56248 7.30048 1.38828 12.2961 0.385132 18.0253L3.4159 18.5559C4.5037 13.016 7.63407 8.19432 12.269 4.94063Z" fill="black"/>
</g>
<path d="M32.9968 24.7557H19.3427V11.1016H23.2708V20.8276H32.9968V24.7557Z" fill="#7DD2F0"/>
</svg>
