<svg width="32" height="27" viewBox="0 0 32 27" fill="none" xmlns="http://www.w3.org/2000/svg">
<path d="M30.0829 26.6179H1.32794C0.976 26.6179 0.63851 26.4781 0.389649 26.2292C0.140788 25.9804 0.00097694 25.643 0.00097694 25.291V1.32593C0.000845441 1.15163 0.0351046 0.979052 0.101746 0.817994C0.168387 0.656935 0.266094 0.510579 0.389344 0.387329C0.512593 0.26408 0.658949 0.166373 0.820008 0.0997318C0.981066 0.0330904 1.15364 -0.00110768 1.32794 -0.000976185H30.0829C30.2572 -0.00110768 30.4299 0.0330904 30.591 0.0997318C30.7521 0.166373 30.8983 0.26408 31.0215 0.387329C31.1448 0.510579 31.2426 0.656935 31.3093 0.817994C31.3759 0.979052 31.4101 1.15163 31.41 1.32593V25.2899C31.41 25.6419 31.2702 25.9794 31.0213 26.2283C30.7724 26.4771 30.4349 26.6169 30.0829 26.6169V26.6179ZM2.65595 23.964H28.7559V2.65503H2.65595V23.964Z" fill="#4F453C"/>
<path d="M29.2111 21.8234C28.8951 21.8237 28.5895 21.7105 28.35 21.5044L23.015 16.9324L16.376 21.3574L7.95397 12.2983L2.28204 18.1534C2.16083 18.2787 2.01616 18.3787 1.85625 18.448C1.69635 18.5173 1.52434 18.5544 1.35009 18.5573C1.17584 18.5601 1.00276 18.5285 0.84069 18.4645C0.678621 18.4004 0.530725 18.305 0.40551 18.1838C0.280294 18.0626 0.180192 17.918 0.110893 17.7581C0.0415941 17.5982 0.00447218 17.4262 0.00164 17.252C-0.00119219 17.0777 0.0303478 16.9046 0.0944134 16.7426C0.158479 16.5805 0.253843 16.4326 0.375053 16.3074L7.99401 8.43945L16.784 17.8954L23.214 13.6084L30.0751 19.4874C30.2817 19.6636 30.4293 19.899 30.4978 20.1617C30.5663 20.4245 30.5525 20.7019 30.4582 20.9565C30.364 21.2112 30.1939 21.4308 29.9708 21.5857C29.7478 21.7405 29.4826 21.8231 29.2111 21.8224V21.8234Z" fill="#4F453C"/>
<path d="M17.2859 13.1674C16.3446 13.1678 15.4244 12.889 14.6415 12.3664C13.8586 11.8437 13.2482 11.1005 12.8877 10.231C12.5272 9.36143 12.4327 8.40452 12.6161 7.48123C12.7995 6.55794 13.2526 5.70973 13.9181 5.04398C14.5836 4.37822 15.4315 3.92479 16.3548 3.741C17.278 3.55721 18.2349 3.65137 19.1046 4.01151C19.9743 4.37164 20.7177 4.98153 21.2407 5.76419C21.7638 6.54685 22.043 7.46703 22.043 8.40836C22.0414 9.66969 21.5397 10.8789 20.648 11.771C19.7563 12.6631 18.5472 13.1653 17.2859 13.1674ZM17.2859 6.30435C16.8706 6.30435 16.4646 6.4276 16.1193 6.65836C15.7739 6.88911 15.5048 7.21701 15.3458 7.60074C15.1869 7.98446 15.1453 8.40676 15.2263 8.81412C15.3074 9.22148 15.5074 9.59562 15.801 9.88931C16.0947 10.183 16.4689 10.383 16.8762 10.464C17.2836 10.545 17.7059 10.5035 18.0896 10.3445C18.4733 10.1856 18.8013 9.91642 19.032 9.57108C19.2628 9.22573 19.3859 8.81979 19.3859 8.40445C19.3838 7.84814 19.1619 7.31515 18.7686 6.92178C18.3752 6.52841 17.8422 6.30646 17.2859 6.30435Z" fill="#4F453C"/>
</svg>
