<svg width="14" height="12" viewBox="0 0 14 12" fill="none" xmlns="http://www.w3.org/2000/svg">
<path d="M2.15786 11.0548H11.8365C13.0569 11.0548 13.6897 10.4277 13.6897 9.22419V2.34235C13.6897 1.13888 13.0569 0.511719 11.8365 0.511719H2.15786C0.937439 0.511719 0.304626 1.13323 0.304626 2.34235V9.22419C0.304626 10.4277 0.937439 11.0548 2.15786 11.0548ZM2.22566 9.9474C1.7002 9.9474 1.41205 9.6762 1.41205 9.12814V2.43841C1.41205 1.89035 1.7002 1.61349 2.22566 1.61349H11.7687C12.2885 1.61349 12.5823 1.89035 12.5823 2.43841V9.12814C12.5823 9.6762 12.2885 9.9474 11.7687 9.9474H2.22566ZM4.72301 5.74937C5.40103 5.75502 5.94344 5.18436 5.94344 4.4216C5.94344 3.70968 5.40103 3.11642 4.72301 3.11642C4.05065 3.11642 3.50259 3.70968 3.50259 4.4216C3.50259 5.18436 4.05065 5.74937 4.72301 5.74937ZM8.34474 3.96394H11.2771C11.4862 3.96394 11.6388 3.80573 11.6388 3.60233C11.6388 3.40458 11.4862 3.25202 11.2771 3.25202H8.34474C8.13568 3.25202 7.98313 3.40458 7.98313 3.60233C7.98313 3.80573 8.13568 3.96394 8.34474 3.96394ZM8.34474 6.14488H11.2771C11.4862 6.14488 11.6388 5.98668 11.6388 5.78327C11.6388 5.58552 11.4862 5.42732 11.2771 5.42732H8.34474C8.13568 5.42732 7.98313 5.58552 7.98313 5.78327C7.98313 5.98668 8.13568 6.14488 8.34474 6.14488ZM2.59292 8.32017H6.85311C7.05651 8.32017 7.16386 8.17892 7.16386 7.99247C7.16386 7.46701 6.3898 6.12793 4.72301 6.12793C3.05623 6.12793 2.28782 7.46701 2.28782 7.99247C2.28782 8.17892 2.38952 8.32017 2.59292 8.32017ZM8.34474 8.32017H11.2771C11.4862 8.32017 11.6388 8.16762 11.6388 7.96987C11.6388 7.76646 11.4862 7.60261 11.2771 7.60261H8.34474C8.13568 7.60261 7.98313 7.76646 7.98313 7.96987C7.98313 8.16762 8.13568 8.32017 8.34474 8.32017Z" fill="#393939"/>
</svg>
