<svg width="150" height="150" viewBox="0 0 150 150" fill="none" xmlns="http://www.w3.org/2000/svg">
<path d="M74.9988 149.998C116.42 149.998 149.998 116.42 149.998 74.9988C149.998 33.5781 116.42 0 74.9988 0C33.5781 0 0 33.5781 0 74.9988C0 116.42 33.5781 149.998 74.9988 149.998Z" fill="#EF3340"/>
<path d="M65.6104 88.6963H47.7438C37.579 88.6963 29.3385 96.9365 29.3385 107.102V123.047H84.0157V107.101C84.0157 96.9365 75.7752 88.6963 65.6104 88.6963Z" fill="#5CC1FF"/>
<path d="M46.1236 89.0625L56.9635 107.435L67.8033 89.0625H46.1236Z" fill="white"/>
<path d="M120.661 34.7656V60.932C120.661 65.2467 117.164 68.7445 112.849 68.7445H105.729L93.1685 81.2988V68.7445H76.5209C72.2062 68.7445 68.7084 65.2467 68.7084 60.932V34.7656C68.7084 30.451 72.2062 26.9531 76.5209 26.9531H112.849C117.164 26.9531 120.661 30.451 120.661 34.7656Z" fill="#BAEE83"/>
<path d="M55.2858 68.6045C57.4776 70.127 60.1024 70.9687 62.8258 70.9687H68.7083V76.6648C68.7083 83.3096 63.3217 88.6961 56.677 88.6961C50.0323 88.6961 44.6458 83.3096 44.6458 76.6648V70.9687L48.67 68.6045L52.6942 66.2402L55.2858 68.6045Z" fill="#FFCDAC"/>
<path d="M54.5389 55.3242H70.6356V63.3123C70.6356 67.4555 67.2768 70.8143 63.1336 70.8143H44.6461V65.2172C44.6459 59.7535 49.075 55.3242 54.5389 55.3242Z" fill="#FFC870"/>
<path d="M66.3419 86.757C69.0008 84.2098 70.6614 80.6285 70.6614 76.6643V69.0248C71.8694 67.4367 72.5885 65.4572 72.5885 63.3123V55.3242C72.5885 54.2455 71.7141 53.3711 70.6354 53.3711H54.5387C48.0069 53.3711 42.6926 58.6852 42.6926 65.2172V76.6643C42.6926 80.6283 44.3534 84.2098 47.0122 86.757C36.1241 87.1436 27.3854 96.1201 27.3854 107.101V123.046C27.3854 124.125 28.2598 124.999 29.3385 124.999H84.0155C85.0942 124.999 85.9686 124.125 85.9686 123.046V107.101C85.9686 96.1203 77.2299 87.1438 66.3419 86.757ZM46.5991 65.2174C46.5991 60.8393 50.1608 57.2775 54.5389 57.2775H68.6825V63.3125C68.6825 66.3723 66.1932 68.8615 63.1337 68.8615H46.5993V68.6043L46.5991 65.2174ZM46.5991 76.6645V72.7676H63.1335C64.4159 72.7676 65.6391 72.5098 66.7551 72.0451V76.6645C66.7551 82.2217 62.2342 86.7426 56.677 86.7426C51.1198 86.7426 46.5991 82.2217 46.5991 76.6645ZM64.5991 90.6488L56.9635 103.59L49.328 90.6488H64.5991ZM82.0624 121.093H77.6667V107.434C77.6667 106.355 76.7922 105.481 75.7135 105.481C74.6348 105.481 73.7604 106.355 73.7604 107.434V121.093H40.1667V107.434C40.1667 106.355 39.2922 105.481 38.2135 105.481C37.1348 105.481 36.2604 106.355 36.2604 107.434V121.093H31.2919V107.101C31.2919 98.9863 37.1985 92.2299 44.9368 90.8934L55.2813 108.426C55.6325 109.022 56.2723 109.387 56.9635 109.387C57.6547 109.387 58.2944 109.021 58.6458 108.426L68.9354 90.9869C76.4186 92.5287 82.0626 99.1682 82.0626 107.101V121.093H82.0624Z" fill="black"/>
<path d="M112.849 25H101.804C100.725 25 99.8509 25.8744 99.8509 26.9531C99.8509 28.0318 100.725 28.9062 101.804 28.9062H112.849C116.08 28.9062 118.708 31.5348 118.708 34.7656V60.9322C118.708 64.1631 116.08 66.7916 112.849 66.7916H105.729C105.211 66.7916 104.714 66.9973 104.348 67.3633L95.1216 76.5852V68.7445C95.1216 67.6658 94.2472 66.7914 93.1685 66.7914H76.5206C75.4419 66.7914 74.5675 67.6658 74.5675 68.7445C74.5675 69.8232 75.4419 70.6977 76.5206 70.6977H91.2154V81.2986C91.2154 82.0885 91.6911 82.8006 92.4208 83.1029C92.6626 83.2031 92.9163 83.2518 93.1681 83.2518C93.6763 83.2518 94.1757 83.0533 94.5493 82.6799L106.538 70.6975H112.849C118.234 70.6975 122.615 66.3166 122.615 60.9318V34.7656C122.614 29.3809 118.234 25 112.849 25Z" fill="black"/>
<path d="M94.6847 28.9062C95.1984 28.9062 95.7023 28.6973 96.0656 28.334C96.4288 27.9707 96.6378 27.4668 96.6378 26.9531C96.6378 26.4395 96.4288 25.9355 96.0656 25.5723C95.7023 25.209 95.1984 25 94.6847 25C94.171 25 93.6671 25.209 93.3038 25.5723C92.9406 25.9355 92.7316 26.4395 92.7316 26.9531C92.7316 27.4668 92.9406 27.9707 93.3038 28.334C93.6671 28.6973 94.171 28.9062 94.6847 28.9062Z" fill="black"/>
<path d="M68.7081 47.5541C69.7868 47.5541 70.6613 46.6797 70.6613 45.601V34.7656C70.6613 31.5348 73.2898 28.9063 76.5206 28.9063H87.546C88.6247 28.9063 89.4991 28.0318 89.4991 26.9531C89.4991 25.8744 88.6247 25 87.546 25H76.5206C71.1359 25 66.755 29.3809 66.755 34.7656V45.601C66.755 46.6797 67.6294 47.5541 68.7081 47.5541Z" fill="black"/>
<path d="M69.1706 108.415H66.4362C65.3575 108.415 64.4831 109.289 64.4831 110.368C64.4831 111.447 65.3575 112.321 66.4362 112.321H69.1706C70.2493 112.321 71.1237 111.447 71.1237 110.368C71.1237 109.289 70.2493 108.415 69.1706 108.415Z" fill="black"/>
<path d="M52.0539 79.4219C52.5695 79.4219 53.0714 79.2129 53.4347 78.8496C53.8 78.4863 54.007 77.9824 54.007 77.4688C54.007 76.9551 53.8 76.4512 53.4347 76.0879C53.0714 75.7246 52.5695 75.5156 52.0539 75.5156C51.5402 75.5156 51.0363 75.7246 50.673 76.0879C50.3097 76.4512 50.1007 76.9551 50.1007 77.4688C50.1007 77.9824 50.3097 78.4863 50.673 78.8496C51.0363 79.2129 51.5402 79.4219 52.0539 79.4219Z" fill="black"/>
<path d="M61.3 79.4219C61.8137 79.4219 62.3176 79.2129 62.6809 78.8496C63.0442 78.4863 63.2532 77.9824 63.2532 77.4688C63.2532 76.9551 63.0442 76.4512 62.6809 76.0879C62.3176 75.7246 61.8137 75.5156 61.3 75.5156C60.7844 75.5156 60.2825 75.7246 59.9192 76.0879C59.554 76.4512 59.3469 76.9531 59.3469 77.4688C59.3469 77.9824 59.554 78.4863 59.9192 78.8496C60.2825 79.2129 60.7864 79.4219 61.3 79.4219Z" fill="black"/>
<path d="M87.4559 42.9873C87.4559 44.066 88.3303 44.9404 89.409 44.9404C90.4878 44.9404 91.3622 44.066 91.3622 42.9873C91.3622 42.0562 91.7372 41.1932 92.4184 40.5574C93.0987 39.9225 93.9874 39.609 94.9245 39.6726C96.5643 39.7857 97.8864 41.1076 97.9995 42.7476C98.1137 44.4049 97.027 45.8693 95.4153 46.2299C93.8352 46.5836 92.7317 47.957 92.7317 49.5701V53.49C92.7317 54.5687 93.6061 55.4432 94.6848 55.4432C95.7635 55.4432 96.638 54.5687 96.638 53.49V49.9492C99.9423 49.0303 102.135 45.9484 101.896 42.4789C101.65 38.9039 98.768 36.0223 95.193 35.7758C93.1665 35.6355 91.2333 36.3201 89.7528 37.7019C88.2932 39.0644 87.4559 40.991 87.4559 42.9873Z" fill="black"/>
<path d="M94.6847 57.9922C94.171 57.9922 93.6671 58.1992 93.3038 58.5625C92.9406 58.9277 92.7316 59.4297 92.7316 59.9453C92.7316 60.459 92.9406 60.9629 93.3038 61.3262C93.6671 61.6895 94.171 61.8984 94.6847 61.8984C95.1984 61.8984 95.7023 61.6895 96.0656 61.3262C96.4288 60.9629 96.6378 60.459 96.6378 59.9453C96.6378 59.4297 96.4288 58.9277 96.0656 58.5625C95.7023 58.1992 95.1984 57.9922 94.6847 57.9922Z" fill="black"/>
</svg>
