<svg width="12" height="14" viewBox="0 0 12 14" fill="none" xmlns="http://www.w3.org/2000/svg">
<path d="M10.8334 13C10.8334 13.2761 11.0573 13.5 11.3334 13.5C11.6096 13.5 11.8334 13.2761 11.8334 13H10.8334ZM8.66675 9V8.5V9ZM3.33341 9L3.33341 8.5L3.33341 9ZM0.666748 11.6667H0.166748H0.666748ZM0.166748 13C0.166748 13.2761 0.390606 13.5 0.666748 13.5C0.94289 13.5 1.16675 13.2761 1.16675 13H0.166748ZM11.8334 13V11.6667H10.8334V13H11.8334ZM11.8334 11.6667C11.8334 10.8268 11.4998 10.0214 10.9059 9.4275L10.1988 10.1346C10.6051 10.5409 10.8334 11.092 10.8334 11.6667H11.8334ZM10.9059 9.4275C10.3121 8.83363 9.5066 8.5 8.66675 8.5V9.5C9.24138 9.5 9.79248 9.72827 10.1988 10.1346L10.9059 9.4275ZM8.66675 8.5H3.33341V9.5H8.66675V8.5ZM3.33341 8.5C2.49356 8.5 1.68811 8.83363 1.09424 9.4275L1.80135 10.1346C2.20768 9.72827 2.75878 9.5 3.33341 9.5L3.33341 8.5ZM1.09424 9.4275C0.500378 10.0214 0.166748 10.8268 0.166748 11.6667H1.16675C1.16675 11.092 1.39502 10.5409 1.80135 10.1346L1.09424 9.4275ZM0.166748 11.6667V13H1.16675V11.6667H0.166748ZM8.16675 3.66667C8.16675 4.86328 7.1967 5.83333 6.00008 5.83333V6.83333C7.74898 6.83333 9.16675 5.41557 9.16675 3.66667H8.16675ZM6.00008 5.83333C4.80346 5.83333 3.83341 4.86328 3.83341 3.66667H2.83341C2.83341 5.41557 4.25118 6.83333 6.00008 6.83333V5.83333ZM3.83341 3.66667C3.83341 2.47005 4.80346 1.5 6.00008 1.5V0.5C4.25118 0.5 2.83341 1.91776 2.83341 3.66667H3.83341ZM6.00008 1.5C7.1967 1.5 8.16675 2.47005 8.16675 3.66667H9.16675C9.16675 1.91776 7.74898 0.5 6.00008 0.5V1.5Z" fill="#161616"/>
</svg>
