<svg width="20" height="20" viewBox="0 0 20 20" fill="none" xmlns="http://www.w3.org/2000/svg">
<path d="M19.0909 10.0839V7.27292C19.0909 6.31975 18.3515 5.54458 17.4174 5.46941L14.807 0.909826C14.565 0.488128 14.1744 0.186727 13.707 0.0615729C13.2418 -0.062729 12.7553 0.00255401 12.3389 0.244894L3.3901 5.45475H1.81841C0.815685 5.45475 0.000244141 6.27015 0.000244141 7.27292V18.1818C0.000244141 19.1846 0.815643 20 1.81841 20H17.2727C18.2754 20 19.0909 19.1846 19.0909 18.1818V15.3709C19.6188 15.1826 19.9999 14.6828 19.9999 14.091V11.3638C19.9999 10.772 19.6188 10.2721 19.0909 10.0839ZM16.3611 5.45475H12.3993L15.3707 3.72484L16.3611 5.45475ZM14.919 2.93594L10.5926 5.45475H8.79803L14.4703 2.15225L14.919 2.93594ZM12.7966 1.03055C13.0021 0.910252 13.2422 0.878292 13.4717 0.93957C13.7039 1.0017 13.8974 1.15174 14.0177 1.36169L14.0187 1.36336L6.99137 5.45475H5.19689L12.7966 1.03055ZM18.1818 18.1818C18.1818 18.683 17.7738 19.0909 17.2727 19.0909H1.81841C1.31728 19.0909 0.909349 18.683 0.909349 18.1818V7.27292C0.909349 6.77179 1.31728 6.36386 1.81841 6.36386H17.2727C17.7738 6.36386 18.1818 6.77179 18.1818 7.27292V10.0001H15.4546C13.9507 10.0001 12.7273 11.2235 12.7273 12.7274C12.7273 14.2313 13.9507 15.4546 15.4546 15.4546H18.1818V18.1818ZM19.0909 14.091C19.0909 14.3418 18.8872 14.5455 18.6363 14.5455H15.4546C14.4518 14.5455 13.6364 13.7301 13.6364 12.7274C13.6364 11.7246 14.4518 10.9092 15.4546 10.9092H18.6363C18.8871 10.9092 19.0909 11.1129 19.0909 11.3638V14.091Z" fill="#010101"/>
<path d="M15.4545 11.8184C14.9533 11.8184 14.5454 12.2263 14.5454 12.7274C14.5454 13.2285 14.9533 13.6365 15.4545 13.6365C15.9556 13.6365 16.3635 13.2285 16.3635 12.7274C16.3636 12.2263 15.9556 11.8184 15.4545 11.8184Z" fill="#010101"/>
</svg>
